<svg xmlns="http://www.w3.org/2000/svg" width="20" height="20" viewBox="0 0 20 20" fill="none">
    <path d="M0 13H7C7 14.0357 7.78722 14.887 8.7959 14.9893L9 15H11C12.1046 15 13 14.1046 13 13H20V17C20 18.1046 19.1046 19 18 19H2C0.895431 19 4.832e-08 18.1046 0 17V13ZM11 10C11.5523 10 12 10.4477 12 11V13C12 13.5523 11.5523 14 11 14H9C8.44772 14 8 13.5523 8 13V11C8 10.4477 8.44772 10 9 10H11ZM12.1543 1.00391C13.7394 1.08421 15 2.39489 15 4V5H18C19.1046 5 20 5.89543 20 7V12H13V11C13 9.89543 12.1046 9 11 9H9C7.89543 9 7 9.89543 7 11V12H0V7C0 5.89543 0.895431 5 2 5H5V4C5 2.34315 6.34315 1 8 1H12L12.1543 1.00391ZM8 3C7.44772 3 7 3.44772 7 4V5H13V4C13 3.44772 12.5523 3 12 3H8Z" fill="#4965E0"/>
</svg>