<svg width="22" height="22" viewBox="0 0 22 22" fill="none" xmlns="http://www.w3.org/2000/svg">
<rect width="22" height="22" fill="white"/>
<path fill-rule="evenodd" clip-rule="evenodd" d="M6.82143 1C7.35399 1 7.78571 1.41973 7.78571 1.9375V3.5H14.2143V1.9375C14.2143 1.41973 14.646 1 15.1786 1C15.7111 1 16.1429 1.41973 16.1429 1.9375V3.5H17.75C18.9926 3.5 20 4.47938 20 5.6875V18.8125C20 20.0206 18.9926 21 17.75 21H4.25C3.00736 21 2 20.0206 2 18.8125V5.6875C2 4.47938 3.00736 3.5 4.25 3.5H5.85714V1.9375C5.85714 1.41973 6.28887 1 6.82143 1ZM17.75 5.375C17.9275 5.375 18.0714 5.51491 18.0714 5.6875V8.5H3.92857V5.6875C3.92857 5.51491 4.07248 5.375 4.25 5.375H17.75ZM3.92857 10.375V18.8125C3.92857 18.9851 4.07248 19.125 4.25 19.125H17.75C17.9275 19.125 18.0714 18.9851 18.0714 18.8125V10.375H3.92857Z" fill="#24292E"/>
<rect x="7" y="13" width="3" height="3" rx="1" fill="#24292E"/>
<rect x="12" y="13" width="3" height="3" rx="1" fill="#24292E"/>
</svg>
