<svg width="20" height="20" viewBox="0 0 20 20" fill="none" xmlns="http://www.w3.org/2000/svg">
<path d="M1 19.5V16.2692C1 15.8115 1.16023 15.4279 1.48068 15.1183C1.80114 14.8087 2.18636 14.6538 2.63636 14.6538H5.31591C5.58864 14.6538 5.84773 14.7212 6.09318 14.8558C6.33864 14.9904 6.53636 15.1721 6.68636 15.401C7.08182 15.926 7.56932 16.3365 8.14886 16.6327C8.72841 16.9288 9.34545 17.0769 10 17.0769C10.6682 17.0769 11.292 16.9288 11.8716 16.6327C12.4511 16.3365 12.9318 15.926 13.3136 15.401C13.4909 15.1721 13.6989 14.9904 13.9375 14.8558C14.1761 14.7212 14.425 14.6538 14.6841 14.6538H17.3636C17.8273 14.6538 18.2159 14.8087 18.5295 15.1183C18.8432 15.4279 19 15.8115 19 16.2692V19.5H13.2727V17.6625C12.7955 17.999 12.2807 18.2548 11.7284 18.4298C11.1761 18.6048 10.6 18.6923 10 18.6923C9.41364 18.6923 8.84091 18.6014 8.28182 18.4197C7.72273 18.238 7.20455 17.9788 6.72727 17.6423V19.5H1ZM3.45455 13.8462C2.77273 13.8462 2.19318 13.6106 1.71591 13.1394C1.23864 12.6683 1 12.0962 1 11.4231C1 10.7365 1.23864 10.1611 1.71591 9.69663C2.19318 9.23221 2.77273 9 3.45455 9C4.15 9 4.73295 9.23221 5.20341 9.69663C5.67386 10.1611 5.90909 10.7365 5.90909 11.4231C5.90909 12.0962 5.67386 12.6683 5.20341 13.1394C4.73295 13.6106 4.15 13.8462 3.45455 13.8462ZM16.5455 13.8462C15.8636 13.8462 15.2841 13.6106 14.8068 13.1394C14.3295 12.6683 14.0909 12.0962 14.0909 11.4231C14.0909 10.7365 14.3295 10.1611 14.8068 9.69663C15.2841 9.23221 15.8636 9 16.5455 9C17.2409 9 17.8239 9.23221 18.2943 9.69663C18.7648 10.1611 19 10.7365 19 11.4231C19 12.0962 18.7648 12.6683 18.2943 13.1394C17.8239 13.6106 17.2409 13.8462 16.5455 13.8462Z" fill="#FF8B8E"/>
<path d="M13.0967 11.2139C13.0929 11.2829 13.0908 11.3526 13.0908 11.4229C13.0908 11.9513 13.2005 12.4445 13.415 12.8926C12.7199 13.4388 12.0597 13.8869 11.5332 14.2197C11.1822 14.4416 10.889 14.614 10.6816 14.7314C10.5779 14.7901 10.4948 14.8353 10.4375 14.8662C10.4089 14.8817 10.3868 14.8941 10.3711 14.9023L10.3525 14.9121L10.3477 14.915L10.3447 14.916C10.1287 15.0276 9.87124 15.0276 9.65527 14.916L9.65234 14.915L9.64746 14.9121L9.62891 14.9023C9.61324 14.8941 9.59105 14.8817 9.5625 14.8662C9.50524 14.8353 9.4221 14.7901 9.31836 14.7314C9.11102 14.614 8.81775 14.4416 8.4668 14.2197C7.94041 13.8869 7.27993 13.4396 6.58496 12.8936C6.7987 12.4446 6.90918 11.9515 6.90918 11.4229C6.90918 11.3526 6.90607 11.2829 6.90234 11.2139C7.76046 11.9495 8.6187 12.5419 9.26758 12.9521C9.56369 13.1393 9.81492 13.2877 10 13.3936C10.1851 13.2877 10.4363 13.1393 10.7324 12.9521C11.3812 12.542 12.2388 11.9492 13.0967 11.2139ZM3.4541 9C4.1494 9 4.73273 9.23207 5.20312 9.69629C5.67353 10.1607 5.90913 10.7364 5.90918 11.4229L5.89844 11.6709C5.88081 11.865 5.84026 12.0496 5.78027 12.2256C4.79956 11.3673 3.77423 10.2869 3.03906 9.0332C3.17305 9.01278 3.31114 9.00002 3.4541 9ZM16.8008 9.01074C16.8549 9.01545 16.9083 9.0225 16.9609 9.03027C16.2263 10.2838 15.2022 11.3642 14.2217 12.2227C14.1362 11.9738 14.0908 11.7078 14.0908 11.4229C14.0909 10.7364 14.3294 10.1607 14.8066 9.69629C15.2839 9.23192 15.8641 9 16.5459 9L16.8008 9.01074ZM13.75 1C15.9142 1 18 2.83579 18 5.5C18 6.42109 17.7847 7.2924 17.4336 8.10449C17.1502 8.03485 16.8536 8.00003 16.5459 8C16.2803 8 16.023 8.02624 15.7754 8.0791C16.2234 7.26021 16.5 6.3944 16.5 5.5C16.5 3.66421 15.0858 2.5 13.75 2.5C12.3768 2.5 11.1408 3.48582 10.7207 4.95605C10.6287 5.27797 10.3348 5.5 10 5.5C9.66518 5.5 9.37133 5.27797 9.2793 4.95605C8.85923 3.48582 7.62319 2.5 6.25 2.5C4.91421 2.5 3.5 3.66421 3.5 5.5C3.5 6.39383 3.77515 7.2597 4.22266 8.07812C3.97552 8.02658 3.71895 8 3.4541 8C3.14632 8.00003 2.84967 8.03544 2.56641 8.10645C2.21484 7.29388 2 6.42171 2 5.5C2 2.83579 4.08579 1 6.25 1C7.79724 1 9.15288 1.80125 10 3.01953C10.8471 1.80125 12.2027 1 13.75 1Z" fill="#FF8B8E"/>
</svg>
