<svg width="90" height="78" viewBox="0 0 90 78" fill="none" xmlns="http://www.w3.org/2000/svg">
<path d="M4.37508 48.99H6.37008V51.855H4.37508V48.99ZM4.36008 44.04H5.95008V44.34C5.95008 45.12 5.80508 45.85 5.51508 46.53C5.23508 47.21 4.81008 47.8 4.24008 48.3C3.67008 48.8 2.94008 49.17 2.05008 49.41L1.16508 47.865C1.90508 47.675 2.51008 47.4 2.98008 47.04C3.45008 46.67 3.79508 46.255 4.01508 45.795C4.24508 45.325 4.36008 44.84 4.36008 44.34V44.04ZM4.78008 44.04H6.38508V44.34C6.38508 44.82 6.49508 45.285 6.71508 45.735C6.94508 46.185 7.29508 46.585 7.76508 46.935C8.24508 47.285 8.85508 47.555 9.59508 47.745L8.71008 49.275C7.83008 49.045 7.09508 48.69 6.50508 48.21C5.92508 47.72 5.49008 47.145 5.20008 46.485C4.92008 45.815 4.78008 45.1 4.78008 44.34V44.04ZM1.57008 43.065H9.19008V44.64H1.57008V43.065ZM4.37508 41.55H6.37008V43.77H4.37508V41.55ZM10.4051 41.415H12.4001V55.35H10.4051V41.415ZM1.10508 52.77L0.880078 51.15C1.69008 51.15 2.58508 51.145 3.56508 51.135C4.55508 51.115 5.57008 51.075 6.61008 51.015C7.66008 50.945 8.67508 50.84 9.65508 50.7L9.79008 52.155C8.79008 52.345 7.77508 52.485 6.74508 52.575C5.71508 52.665 4.72008 52.72 3.76008 52.74C2.80008 52.75 1.91508 52.76 1.10508 52.77ZM16.1639 42.195H24.9389V43.785H16.1639V42.195ZM14.6189 47.58H27.2039V49.17H14.6189V47.58ZM23.7539 42.195H25.7339V43.395C25.7339 44.055 25.7139 44.77 25.6739 45.54C25.6439 46.31 25.5189 47.195 25.2989 48.195L23.3339 48.015C23.5439 47.035 23.6639 46.185 23.6939 45.465C23.7339 44.735 23.7539 44.045 23.7539 43.395V42.195ZM16.1939 53.49H26.1239V55.08H16.1939V53.49ZM16.1939 50.355H18.1739V53.64H16.1939V50.355ZM33.4062 41.94H35.3712V43.29H40.8012V41.94H42.7812V47.595H33.4062V41.94ZM35.3712 44.835V46.035H40.8012V44.835H35.3712ZM31.8012 48.78H44.3712V50.355H31.8012V48.78ZM37.0812 46.77H39.0612V49.44H37.0812V46.77ZM33.3312 53.49H42.9612V55.095H33.3312V53.49ZM33.3312 51.18H35.3262V54.09H33.3312V51.18ZM49.5534 43.17H60.9984V44.76H49.5534V43.17ZM49.0134 52.335H61.5984V53.94H49.0134V52.335ZM54.2784 50.49H56.2734V52.965H54.2784V50.49ZM55.2684 45.345C56.2284 45.345 57.0584 45.455 57.7584 45.675C58.4684 45.885 59.0134 46.195 59.3934 46.605C59.7734 47.005 59.9634 47.49 59.9634 48.06C59.9634 48.63 59.7734 49.12 59.3934 49.53C59.0134 49.93 58.4684 50.24 57.7584 50.46C57.0584 50.67 56.2234 50.775 55.2534 50.775C54.2934 50.775 53.4584 50.67 52.7484 50.46C52.0484 50.24 51.5084 49.93 51.1284 49.53C50.7484 49.12 50.5584 48.63 50.5584 48.06C50.5584 47.49 50.7484 47.005 51.1284 46.605C51.5084 46.195 52.0484 45.885 52.7484 45.675C53.4584 45.455 54.2984 45.345 55.2684 45.345ZM55.2534 46.89C54.6834 46.89 54.1984 46.935 53.7984 47.025C53.3984 47.105 53.0934 47.23 52.8834 47.4C52.6834 47.57 52.5834 47.79 52.5834 48.06C52.5834 48.32 52.6834 48.54 52.8834 48.72C53.0934 48.89 53.3984 49.015 53.7984 49.095C54.1984 49.175 54.6834 49.215 55.2534 49.215C55.8434 49.215 56.3334 49.175 56.7234 49.095C57.1134 49.015 57.4084 48.89 57.6084 48.72C57.8184 48.54 57.9234 48.32 57.9234 48.06C57.9234 47.79 57.8184 47.57 57.6084 47.4C57.4084 47.23 57.1134 47.105 56.7234 47.025C56.3334 46.935 55.8434 46.89 55.2534 46.89ZM54.2784 41.58H56.2734V44.16H54.2784V41.58ZM68.6773 44.37H70.7773V45.93H68.6773V44.37ZM63.3373 46.995H64.2973C64.9373 46.995 65.5173 46.99 66.0373 46.98C66.5573 46.97 67.0623 46.94 67.5523 46.89C68.0423 46.84 68.5473 46.78 69.0673 46.71L69.2323 48.225C68.7023 48.305 68.1823 48.37 67.6723 48.42C67.1623 48.47 66.6373 48.505 66.0973 48.525C65.5573 48.535 64.9573 48.54 64.2973 48.54H63.3373V46.995ZM63.3373 42.195H68.5723V43.74H65.2423V48.06H63.3373V42.195ZM64.7023 44.595H68.0773V46.065H64.7023V44.595ZM72.7423 41.445H74.6473V48.795H72.7423V41.445ZM70.0273 41.655H71.9023V48.705H70.0273V41.655ZM65.1973 49.29H74.6473V52.935H67.2073V54.69H65.2273V51.525H72.6823V50.805H65.1973V49.29ZM65.2273 53.73H75.0973V55.245H65.2273V53.73ZM86.1361 41.415H88.1311V55.35H86.1361V41.415ZM80.6461 42.39C81.3561 42.39 81.9861 42.595 82.5361 43.005C83.0861 43.405 83.5161 43.98 83.8261 44.73C84.1461 45.47 84.3061 46.345 84.3061 47.355C84.3061 48.375 84.1461 49.26 83.8261 50.01C83.5161 50.75 83.0861 51.325 82.5361 51.735C81.9861 52.135 81.3561 52.335 80.6461 52.335C79.9461 52.335 79.3211 52.135 78.7711 51.735C78.2211 51.325 77.7861 50.75 77.4661 50.01C77.1561 49.26 77.0011 48.375 77.0011 47.355C77.0011 46.345 77.1561 45.47 77.4661 44.73C77.7861 43.98 78.2211 43.405 78.7711 43.005C79.3211 42.595 79.9461 42.39 80.6461 42.39ZM80.6461 44.205C80.3061 44.205 80.0061 44.325 79.7461 44.565C79.4861 44.805 79.2811 45.16 79.1311 45.63C78.9911 46.09 78.9211 46.665 78.9211 47.355C78.9211 48.035 78.9911 48.615 79.1311 49.095C79.2811 49.565 79.4861 49.92 79.7461 50.16C80.0061 50.4 80.3061 50.52 80.6461 50.52C80.9961 50.52 81.3011 50.4 81.5611 50.16C81.8211 49.92 82.0211 49.565 82.1611 49.095C82.3111 48.615 82.3861 48.035 82.3861 47.355C82.3861 46.665 82.3111 46.09 82.1611 45.63C82.0211 45.16 81.8211 44.805 81.5611 44.565C81.3011 44.325 80.9961 44.205 80.6461 44.205ZM19.5323 69.575H21.3923V70.94H22.7723V69.575H24.6023V75.185H19.5323V69.575ZM21.3923 72.38V73.685H22.7723V72.38H21.3923ZM26.7623 69.455H28.2623V70.49C28.2623 71.17 28.1673 71.83 27.9773 72.47C27.7873 73.1 27.4773 73.66 27.0473 74.15C26.6273 74.65 26.0723 75.035 25.3823 75.305L24.4073 73.82C24.9673 73.59 25.4173 73.3 25.7573 72.95C26.1073 72.59 26.3623 72.2 26.5223 71.78C26.6823 71.35 26.7623 70.92 26.7623 70.49V69.455ZM27.2123 69.455H28.7423V70.49C28.7423 70.97 28.8173 71.43 28.9673 71.87C29.1273 72.3 29.3773 72.685 29.7173 73.025C30.0673 73.365 30.5223 73.63 31.0823 73.82L30.0923 75.305C29.3923 75.055 28.8323 74.69 28.4123 74.21C27.9923 73.73 27.6873 73.175 27.4973 72.545C27.3073 71.905 27.2123 71.22 27.2123 70.49V69.455ZM25.0373 64.415H28.5173V66.02H25.0373V64.415ZM21.8423 61.955C22.5423 61.955 23.1673 62.095 23.7173 62.375C24.2773 62.655 24.7173 63.04 25.0373 63.53C25.3573 64.02 25.5173 64.585 25.5173 65.225C25.5173 65.865 25.3573 66.435 25.0373 66.935C24.7173 67.425 24.2773 67.81 23.7173 68.09C23.1673 68.37 22.5423 68.51 21.8423 68.51C21.1523 68.51 20.5273 68.37 19.9673 68.09C19.4173 67.81 18.9823 67.425 18.6623 66.935C18.3423 66.435 18.1823 65.865 18.1823 65.225C18.1823 64.585 18.3423 64.02 18.6623 63.53C18.9823 63.04 19.4173 62.655 19.9673 62.375C20.5273 62.095 21.1523 61.955 21.8423 61.955ZM21.8423 63.59C21.5023 63.59 21.1973 63.655 20.9273 63.785C20.6673 63.915 20.4623 64.105 20.3123 64.355C20.1623 64.595 20.0873 64.885 20.0873 65.225C20.0873 65.565 20.1623 65.86 20.3123 66.11C20.4623 66.36 20.6673 66.55 20.9273 66.68C21.1973 66.81 21.5023 66.875 21.8423 66.875C22.1823 66.875 22.4823 66.81 22.7423 66.68C23.0123 66.55 23.2223 66.36 23.3723 66.11C23.5223 65.86 23.5973 65.565 23.5973 65.225C23.5973 64.885 23.5223 64.595 23.3723 64.355C23.2223 64.105 23.0123 63.915 22.7423 63.785C22.4823 63.655 22.1823 63.59 21.8423 63.59ZM27.6323 61.445H29.6423V68.795H27.6323V61.445ZM33.2712 69.755H35.2512V70.925H40.8162V69.755H42.7812V75.185H33.2712V69.755ZM35.2512 72.425V73.625H40.8162V72.425H35.2512ZM31.8012 67.505H44.3712V69.065H31.8012V67.505ZM37.0662 61.58H38.7762V62C38.7762 62.49 38.6912 62.955 38.5212 63.395C38.3612 63.835 38.1262 64.245 37.8162 64.625C37.5062 65.005 37.1212 65.35 36.6612 65.66C36.2112 65.96 35.6912 66.215 35.1012 66.425C34.5112 66.625 33.8562 66.775 33.1362 66.875L32.4162 65.33C33.0462 65.26 33.6112 65.145 34.1112 64.985C34.6112 64.825 35.0462 64.635 35.4162 64.415C35.7862 64.185 36.0912 63.94 36.3312 63.68C36.5812 63.41 36.7662 63.135 36.8862 62.855C37.0062 62.565 37.0662 62.28 37.0662 62V61.58ZM37.3962 61.58H39.1062V62C39.1062 62.28 39.1662 62.565 39.2862 62.855C39.4062 63.135 39.5862 63.41 39.8262 63.68C40.0762 63.94 40.3862 64.185 40.7562 64.415C41.1262 64.635 41.5612 64.825 42.0612 64.985C42.5712 65.145 43.1362 65.26 43.7562 65.33L43.0362 66.875C42.3162 66.775 41.6612 66.625 41.0712 66.425C40.4912 66.215 39.9712 65.96 39.5112 65.66C39.0512 65.35 38.6662 65.005 38.3562 64.625C38.0462 64.245 37.8062 63.835 37.6362 63.395C37.4762 62.945 37.3962 62.48 37.3962 62V61.58ZM55.23 61.43H57.21V75.32H55.23V61.43ZM46.335 62.75H48.33V71.39H46.335V62.75ZM46.335 70.205H47.565C48.585 70.205 49.65 70.165 50.76 70.085C51.87 69.995 53 69.835 54.15 69.605L54.36 71.27C53.18 71.52 52.015 71.69 50.865 71.78C49.725 71.86 48.625 71.9 47.565 71.9H46.335V70.205ZM68.2788 61.415H70.2888V75.35H68.2788V61.415ZM69.8538 66.56H72.2988V68.21H69.8538V66.56ZM59.9388 70.37H61.1088C61.8988 70.37 62.6388 70.36 63.3288 70.34C64.0188 70.31 64.6888 70.265 65.3388 70.205C65.9888 70.135 66.6538 70.04 67.3338 69.92L67.5288 71.57C66.8288 71.69 66.1388 71.785 65.4588 71.855C64.7888 71.925 64.0988 71.97 63.3888 71.99C62.6788 72.01 61.9188 72.02 61.1088 72.02H59.9388V70.37ZM59.9388 62.705H66.4188V64.31H61.9338V71.15H59.9388V62.705Z" fill="#585858"/>
<path d="M25 28V16C25 15.1 25.1833 14.2833 25.55 13.55C25.9167 12.8167 26.4 12.1667 27 11.6V6C27 4.33333 27.5833 2.91667 28.75 1.75C29.9167 0.583333 31.3333 0 33 0H41C41.7667 0 42.4833 0.141667 43.15 0.425C43.8167 0.708333 44.4333 1.1 45 1.6C45.5667 1.1 46.1833 0.708333 46.85 0.425C47.5167 0.141667 48.2333 0 49 0H57C58.6667 0 60.0833 0.583333 61.25 1.75C62.4167 2.91667 63 4.33333 63 6V11.6C63.6 12.1667 64.0833 12.8167 64.45 13.55C64.8167 14.2833 65 15.1 65 16V28H61V24H29V28H25ZM47 10H59V6C59 5.43333 58.8083 4.95833 58.425 4.575C58.0417 4.19167 57.5667 4 57 4H49C48.4333 4 47.9583 4.19167 47.575 4.575C47.1917 4.95833 47 5.43333 47 6V10ZM31 10H43V6C43 5.43333 42.8083 4.95833 42.425 4.575C42.0417 4.19167 41.5667 4 41 4H33C32.4333 4 31.9583 4.19167 31.575 4.575C31.1917 4.95833 31 5.43333 31 6V10ZM29 20H61V16C61 15.4333 60.8083 14.9583 60.425 14.575C60.0417 14.1917 59.5667 14 59 14H31C30.4333 14 29.9583 14.1917 29.575 14.575C29.1917 14.9583 29 15.4333 29 16V20Z" fill="#656565"/>
</svg>
