<svg width="20" height="20" viewBox="0 0 20 20" fill="none" xmlns="http://www.w3.org/2000/svg">
<path d="M0 17V13.25C0 12.7188 0.17803 12.2734 0.534091 11.9141C0.890152 11.5547 1.31818 11.375 1.81818 11.375H4.79545C5.09848 11.375 5.38636 11.4531 5.65909 11.6094C5.93182 11.7656 6.15152 11.9766 6.31818 12.2422C6.75758 12.8516 7.29924 13.3281 7.94318 13.6719C8.58712 14.0156 9.27273 14.1875 10 14.1875C10.7424 14.1875 11.4356 14.0156 12.0795 13.6719C12.7235 13.3281 13.2576 12.8516 13.6818 12.2422C13.8788 11.9766 14.1098 11.7656 14.375 11.6094C14.6402 11.4531 14.9167 11.375 15.2045 11.375H18.1818C18.697 11.375 19.1288 11.5547 19.4773 11.9141C19.8258 12.2734 20 12.7188 20 13.25V17H13.6364V14.8672C13.1061 15.2578 12.5341 15.5547 11.9205 15.7578C11.3068 15.9609 10.6667 16.0625 10 16.0625C9.34848 16.0625 8.71212 15.957 8.09091 15.7461C7.4697 15.5352 6.89394 15.2344 6.36364 14.8438V17H0ZM10 13.25C9.42424 13.25 8.87879 13.1133 8.36364 12.8398C7.84848 12.5664 7.41667 12.1875 7.06818 11.7031C6.81061 11.3125 6.48864 11.0039 6.10227 10.7773C5.71591 10.5508 5.29545 10.4375 4.84091 10.4375C5.17424 9.85938 5.87879 9.40234 6.95455 9.06641C8.0303 8.73047 9.04545 8.5625 10 8.5625C10.9545 8.5625 11.9697 8.73047 13.0455 9.06641C14.1212 9.40234 14.8258 9.85938 15.1591 10.4375C14.7197 10.4375 14.303 10.5508 13.9091 10.7773C13.5152 11.0039 13.1894 11.3125 12.9318 11.7031C12.5985 12.2031 12.1742 12.5859 11.6591 12.8516C11.1439 13.1172 10.5909 13.25 10 13.25ZM2.72727 10.4375C1.9697 10.4375 1.32576 10.1641 0.795455 9.61719C0.265152 9.07031 0 8.40625 0 7.625C0 6.82812 0.265152 6.16016 0.795455 5.62109C1.32576 5.08203 1.9697 4.8125 2.72727 4.8125C3.5 4.8125 4.14773 5.08203 4.67045 5.62109C5.19318 6.16016 5.45455 6.82812 5.45455 7.625C5.45455 8.40625 5.19318 9.07031 4.67045 9.61719C4.14773 10.1641 3.5 10.4375 2.72727 10.4375ZM17.2727 10.4375C16.5152 10.4375 15.8712 10.1641 15.3409 9.61719C14.8106 9.07031 14.5455 8.40625 14.5455 7.625C14.5455 6.82812 14.8106 6.16016 15.3409 5.62109C15.8712 5.08203 16.5152 4.8125 17.2727 4.8125C18.0455 4.8125 18.6932 5.08203 19.2159 5.62109C19.7386 6.16016 20 6.82812 20 7.625C20 8.40625 19.7386 9.07031 19.2159 9.61719C18.6932 10.1641 18.0455 10.4375 17.2727 10.4375ZM10 7.625C9.24242 7.625 8.59848 7.35156 8.06818 6.80469C7.53788 6.25781 7.27273 5.59375 7.27273 4.8125C7.27273 4.01562 7.53788 3.34766 8.06818 2.80859C8.59848 2.26953 9.24242 2 10 2C10.7727 2 11.4205 2.26953 11.9432 2.80859C12.4659 3.34766 12.7273 4.01562 12.7273 4.8125C12.7273 5.59375 12.4659 6.25781 11.9432 6.80469C11.4205 7.35156 10.7727 7.625 10 7.625Z" fill="#16BD80"/>
</svg>
