<svg width="60" height="60" viewBox="0 0 60 60" fill="none" xmlns="http://www.w3.org/2000/svg">
<circle cx="30" cy="30" r="30" fill="#2F2F2F"/>
<path fill-rule="evenodd" clip-rule="evenodd" d="M18.8751 21.5001L16.7469 19.3718C16.4712 19.0962 16 19.2914 16 19.6812V26.0625C16 26.3041 16.1959 26.5 16.4375 26.5H22.8187C23.2085 26.5 23.4037 26.0287 23.1281 25.7531L20.7512 23.3762C22.8163 20.4978 26.1904 18.625 30 18.625C36.2822 18.625 41.375 23.7178 41.375 30C41.375 36.2823 36.2822 41.375 30 41.375C24.116 41.375 19.274 36.9062 18.6853 31.1783C18.6112 30.4572 17.9666 29.9328 17.2455 30.0069C16.5244 30.081 15.9999 30.7256 16.0741 31.4467C16.7989 38.4996 22.7563 44 30 44C37.7319 44 44 37.732 44 30C44 22.268 37.7319 16 30 16C25.4634 16 21.4326 18.1578 18.8751 21.5001ZM29.5624 23C30.2873 23 30.8749 23.5876 30.8749 24.3125V29.5489L34.4248 30.9689C35.0978 31.2381 35.4252 32.0019 35.1561 32.6749C34.8868 33.348 34.1229 33.6753 33.4499 33.4061L29.075 31.6561C28.5767 31.4568 28.2499 30.9742 28.2499 30.4375V24.3125C28.2499 23.5876 28.8376 23 29.5624 23Z" fill="white"/>
</svg>
