<svg width="10" height="10" viewBox="0 0 10 10" fill="none" xmlns="http://www.w3.org/2000/svg">
<path fill-rule="evenodd" clip-rule="evenodd" d="M0.243223 0.264132C0.399155 0.108722 0.610542 0.0214298 0.830933 0.0214298C1.05132 0.0214298 1.2627 0.108722 1.41864 0.264132L4.98926 3.82709L8.55987 0.264132C8.63605 0.182593 8.72786 0.117198 8.82988 0.0718425C8.9319 0.0264867 9.04201 0.00209915 9.15368 0.000129567C9.26534 -0.00184002 9.37623 0.0186637 9.4798 0.0604012C9.58337 0.102139 9.6774 0.164258 9.75636 0.243064C9.83542 0.321869 9.89763 0.415746 9.93943 0.519072C9.98124 0.622409 10.0019 0.733093 9.99987 0.844518C9.99787 0.955955 9.97348 1.06584 9.92801 1.16764C9.88255 1.26944 9.81701 1.36106 9.73529 1.43703L6.16467 4.99999L9.73529 8.56295C9.81701 8.63897 9.88255 8.73059 9.92801 8.83239C9.97348 8.93419 9.99787 9.04406 9.99987 9.15549C10.0019 9.26692 9.98124 9.37757 9.93943 9.48092C9.89763 9.58426 9.83542 9.67809 9.75636 9.75688C9.6774 9.83577 9.58337 9.89785 9.4798 9.93956C9.37623 9.98128 9.26534 10.0019 9.15368 9.99987C9.04201 9.99788 8.9319 9.97353 8.82988 9.92817C8.72786 9.8828 8.63605 9.8174 8.55987 9.73585L4.98926 6.17289L1.41864 9.73585C1.26098 9.88247 1.05245 9.96225 0.836998 9.95848C0.621542 9.95461 0.415976 9.86753 0.263593 9.71549C0.111221 9.56346 0.023941 9.35831 0.0201375 9.14332C0.016334 8.92832 0.0963179 8.7203 0.243223 8.56295L3.81384 4.99999L0.243223 1.43703C0.0874801 1.28143 0 1.0705 0 0.850582C0 0.630663 0.0874801 0.41974 0.243223 0.264132Z" fill="#24292E"/>
</svg>
