<svg width="18" height="18" viewBox="0 0 18 18" fill="none" xmlns="http://www.w3.org/2000/svg">
<path d="M8.7959 1.58594C8.89554 1.4455 9.10446 1.4455 9.2041 1.58594L11.7773 5.22168C11.9993 5.53528 12.3187 5.76757 12.6855 5.88184L16.9385 7.20605C17.1031 7.25732 17.1675 7.4555 17.0645 7.59375L14.4023 11.165C14.1727 11.473 14.051 11.8483 14.0557 12.2324L14.1104 16.6865C14.1125 16.8589 13.9436 16.9821 13.7803 16.9268L9.56152 15.498C9.19752 15.3748 8.80248 15.3748 8.43848 15.498L4.21973 16.9268C4.0564 16.9821 3.88753 16.8589 3.88965 16.6865L3.94434 12.2324C3.94898 11.8483 3.82728 11.473 3.59766 11.165L0.935547 7.59375C0.832483 7.45551 0.896883 7.25732 1.06152 7.20605L5.31445 5.88184C5.68129 5.76757 6.00066 5.53528 6.22266 5.22168L8.7959 1.58594Z" stroke="#969696" stroke-width="1.5"/>
</svg>
