<svg width="166" height="36" viewBox="0 0 166 36" fill="none" xmlns="http://www.w3.org/2000/svg">
<path d="M149.429 27.6976V10.0583H157.281C158.904 10.0583 160.304 10.3187 161.478 10.8395C162.653 11.3435 163.56 12.0743 164.199 13.0318C164.838 13.9894 165.158 15.1317 165.158 16.4589C165.158 17.7692 164.838 18.9032 164.199 19.8607C163.56 20.8183 162.653 21.5574 161.478 22.0782C160.304 22.5822 158.904 22.8342 157.281 22.8342H151.761L153.627 20.9947V27.6976H149.429ZM153.627 21.4482L151.761 19.5079H157.047C158.343 19.5079 159.31 19.2391 159.95 18.7016C160.589 18.164 160.908 17.4164 160.908 16.4589C160.908 15.4845 160.589 14.7285 159.95 14.191C159.31 13.6534 158.343 13.3846 157.047 13.3846H151.761L153.627 11.4443V21.4482Z" fill="black"/>
<path d="M138.753 28C137.526 28 136.395 27.7816 135.358 27.3448C134.339 26.8912 133.501 26.2528 132.845 25.4297L135.177 22.7082C135.678 23.3466 136.205 23.8337 136.758 24.1697C137.31 24.4889 137.906 24.6485 138.545 24.6485C140.256 24.6485 141.111 23.6741 141.111 21.7254V13.3342H134.736V10.0583H145.283V21.4986C145.283 23.6825 144.73 25.3121 143.624 26.3872C142.519 27.4624 140.895 28 138.753 28Z" fill="black"/>
<path d="M123.218 27.8992C122.06 27.8992 121.024 27.6808 120.108 27.244C119.21 26.8073 118.51 26.1437 118.009 25.2533C117.508 24.3462 117.258 23.1954 117.258 21.8011V14.1406H121.3V21.2215C121.3 22.3471 121.542 23.1786 122.026 23.7162C122.527 24.237 123.226 24.4974 124.125 24.4974C124.747 24.4974 125.299 24.3714 125.783 24.1194C126.267 23.8506 126.647 23.4474 126.923 22.9098C127.2 22.3555 127.338 21.6667 127.338 20.8435V14.1406H131.38V27.6976H127.545V23.9682L128.245 25.0517C127.778 25.9925 127.087 26.7065 126.172 27.1936C125.273 27.664 124.289 27.8992 123.218 27.8992Z" fill="black"/>
<path d="M104.053 24.9257L104.156 20.1379L110.66 14.1406H115.48L109.235 20.3143L107.136 21.9774L104.053 24.9257ZM100.71 27.6976V9H104.752V27.6976H100.71ZM111.101 27.6976L106.385 22.0026L108.924 18.9536L115.998 27.6976H111.101Z" fill="black"/>
<path d="M82.7939 27.6976V14.1406H86.6549V17.8952L85.9294 16.7612C86.4303 15.8541 87.1472 15.1569 88.0801 14.6697C89.0129 14.1826 90.0753 13.939 91.2673 13.939C92.3729 13.939 93.3576 14.1574 94.2213 14.5941C95.1024 15.0141 95.7934 15.6693 96.2943 16.5596C96.7953 17.4332 97.0458 18.5588 97.0458 19.9363V27.6976H93.0035V20.5411C93.0035 19.4491 92.753 18.6428 92.252 18.122C91.7683 17.6012 91.0773 17.3408 90.179 17.3408C89.5398 17.3408 88.9611 17.4752 88.4429 17.744C87.9419 17.996 87.5446 18.3908 87.2509 18.9283C86.9745 19.4659 86.8363 20.1547 86.8363 20.9947V27.6976H82.7939Z" fill="black"/>
<path d="M75.3523 27.6976V25.0517L75.0932 24.4721V19.7347C75.0932 18.8947 74.8254 18.2396 74.2899 17.7692C73.7717 17.2988 72.9684 17.0636 71.8801 17.0636C71.1372 17.0636 70.4031 17.1812 69.6775 17.4164C68.9692 17.6348 68.3646 17.9372 67.8636 18.3236L66.4125 15.5769C67.1726 15.0561 68.0882 14.6529 69.1593 14.3673C70.2303 14.0818 71.3186 13.939 72.4242 13.939C74.549 13.939 76.1988 14.4261 77.3735 15.4005C78.5482 16.3749 79.1356 17.8952 79.1356 19.9615V27.6976H75.3523ZM71.1027 27.8991C70.0144 27.8991 69.0815 27.7228 68.3041 27.37C67.5268 27.0004 66.9308 26.5048 66.5162 25.8832C66.1016 25.2617 65.8943 24.5645 65.8943 23.7917C65.8943 22.9854 66.0929 22.2798 66.4903 21.675C66.9049 21.0702 67.5527 20.5999 68.4337 20.2639C69.3147 19.9111 70.4635 19.7347 71.8801 19.7347H75.5855V22.0278H72.3206C71.3705 22.0278 70.714 22.179 70.3512 22.4814C70.0057 22.7838 69.833 23.1618 69.833 23.6153C69.833 24.1193 70.0316 24.5225 70.429 24.8249C70.8436 25.1105 71.405 25.2533 72.1133 25.2533C72.787 25.2533 73.3916 25.1021 73.9271 24.7997C74.4627 24.4805 74.8514 24.0185 75.0932 23.4137L75.7151 25.2281C75.4214 26.1016 74.8859 26.7652 74.1085 27.2188C73.3312 27.6724 72.3292 27.8991 71.1027 27.8991Z" fill="black"/>
<path d="M48.158 27.6976V10.0583H55.9058C58.4279 10.0583 60.3886 10.6295 61.7879 11.7719C63.1872 12.8974 63.8868 14.4598 63.8868 16.4589C63.8868 17.7692 63.5672 18.9032 62.9281 19.8607C62.2889 20.8015 61.382 21.5238 60.2073 22.0278C59.0326 22.5318 57.6333 22.7838 56.0094 22.7838H50.4901L52.3558 20.9947V27.6976H48.158ZM59.689 27.6976L55.1543 21.2971H59.6372L64.2237 27.6976H59.689ZM52.3558 21.4482L50.4901 19.5331H55.7762C57.0718 19.5331 58.0392 19.2643 58.6784 18.7268C59.3176 18.1724 59.6372 17.4164 59.6372 16.4589C59.6372 15.4845 59.3176 14.7285 58.6784 14.191C58.0392 13.6534 57.0718 13.3846 55.7762 13.3846H50.4901L52.3558 11.4443V21.4482Z" fill="black"/>
<g clip-path="url(#clip0_2648_10317)">
<rect width="36" height="36" rx="7.2" fill="black"/>
<rect width="12.6667" height="3.33333" transform="matrix(-1 0 0 1 29.7 28.0667)" fill="white"/>
<rect width="12.6667" height="3.33333" transform="matrix(-1 0 0 1 23.0334 22.7332)" fill="white"/>
<path d="M5.44702 12.2395L10.7541 13.9032L13.1744 10.1689L17.1376 12.1927L20.9018 8.0984L21.9498 17.3851L9.85475 20.626L5.44702 12.2395Z" fill="white"/>
<circle cx="12.7902" cy="7.39103" r="1.3913" transform="rotate(-15 12.7902 7.39103)" fill="white"/>
</g>
<defs>
<clipPath id="clip0_2648_10317">
<rect width="36" height="36" rx="7.2" fill="white"/>
</clipPath>
</defs>
</svg>
