<svg width="170" height="47" viewBox="0 0 170 47" fill="none" xmlns="http://www.w3.org/2000/svg">
<path d="M52.158 33V14.8H59.932C62.4627 14.8 64.43 15.3893 65.834 16.568C67.238 17.7293 67.94 19.3413 67.94 21.404C67.94 22.756 67.6193 23.926 66.978 24.914C66.3367 25.8847 65.4267 26.63 64.248 27.15C63.0693 27.67 61.6653 27.93 60.036 27.93H54.498L56.37 26.084V33H52.158ZM63.728 33L59.178 26.396H63.676L68.278 33H63.728ZM56.37 26.552L54.498 24.576H59.802C61.102 24.576 62.0727 24.2987 62.714 23.744C63.3553 23.172 63.676 22.392 63.676 21.404C63.676 20.3987 63.3553 19.6187 62.714 19.064C62.0727 18.5093 61.102 18.232 59.802 18.232H54.498L56.37 16.23V26.552ZM79.4442 33V30.27L79.1842 29.672V24.784C79.1842 23.9173 78.9155 23.2413 78.3782 22.756C77.8582 22.2707 77.0522 22.028 75.9602 22.028C75.2149 22.028 74.4782 22.1493 73.7502 22.392C73.0395 22.6173 72.4329 22.9293 71.9302 23.328L70.4742 20.494C71.2369 19.9567 72.1555 19.5407 73.2302 19.246C74.3049 18.9513 75.3969 18.804 76.5062 18.804C78.6382 18.804 80.2935 19.3067 81.4722 20.312C82.6509 21.3173 83.2402 22.886 83.2402 25.018V33H79.4442ZM75.1802 33.208C74.0882 33.208 73.1522 33.026 72.3722 32.662C71.5922 32.2807 70.9942 31.7693 70.5782 31.128C70.1622 30.4867 69.9542 29.7673 69.9542 28.97C69.9542 28.138 70.1535 27.41 70.5522 26.786C70.9682 26.162 71.6182 25.6767 72.5022 25.33C73.3862 24.966 74.5389 24.784 75.9602 24.784H79.6782V27.15H76.4022C75.4489 27.15 74.7902 27.306 74.4262 27.618C74.0795 27.93 73.9062 28.32 73.9062 28.788C73.9062 29.308 74.1055 29.724 74.5042 30.036C74.9202 30.3307 75.4835 30.478 76.1942 30.478C76.8702 30.478 77.4769 30.322 78.0142 30.01C78.5515 29.6807 78.9415 29.204 79.1842 28.58L79.8082 30.452C79.5135 31.3533 78.9762 32.038 78.1962 32.506C77.4162 32.974 76.4109 33.208 75.1802 33.208ZM86.9111 33V19.012H90.7851V22.886L90.0571 21.716C90.5597 20.78 91.2791 20.0607 92.2151 19.558C93.1511 19.0553 94.2171 18.804 95.4131 18.804C96.5224 18.804 97.5104 19.0293 98.3771 19.48C99.2611 19.9133 99.9544 20.5893 100.457 21.508C100.96 22.4093 101.211 23.5707 101.211 24.992V33H97.1551V25.616C97.1551 24.4893 96.9037 23.6573 96.4011 23.12C95.9157 22.5827 95.2224 22.314 94.3211 22.314C93.6797 22.314 93.0991 22.4527 92.5791 22.73C92.0764 22.99 91.6777 23.3973 91.3831 23.952C91.1057 24.5067 90.9671 25.2173 90.9671 26.084V33H86.9111ZM108.242 30.14L108.346 25.2L114.872 19.012H119.708L113.442 25.382L111.336 27.098L108.242 30.14ZM104.888 33V13.708H108.944V33H104.888ZM115.314 33L110.582 27.124L113.13 23.978L120.228 33H115.314ZM127.471 33.208C126.31 33.208 125.27 32.9827 124.351 32.532C123.45 32.0813 122.748 31.3967 122.245 30.478C121.743 29.542 121.491 28.3547 121.491 26.916V19.012H125.547V26.318C125.547 27.4793 125.79 28.3373 126.275 28.892C126.778 29.4293 127.48 29.698 128.381 29.698C129.005 29.698 129.56 29.568 130.045 29.308C130.531 29.0307 130.912 28.6147 131.189 28.06C131.467 27.488 131.605 26.7773 131.605 25.928V19.012H135.661V33H131.813V29.152L132.515 30.27C132.047 31.2407 131.354 31.9773 130.435 32.48C129.534 32.9653 128.546 33.208 127.471 33.208ZM143.059 33.312C141.828 33.312 140.693 33.0867 139.653 32.636C138.63 32.168 137.79 31.5093 137.131 30.66L139.471 27.852C139.974 28.5107 140.502 29.0133 141.057 29.36C141.612 29.6893 142.21 29.854 142.851 29.854C144.567 29.854 145.425 28.8487 145.425 26.838V18.18H139.029V14.8H149.611V26.604C149.611 28.8573 149.056 30.5387 147.947 31.648C146.838 32.7573 145.208 33.312 143.059 33.312ZM153.771 33V14.8H161.649C163.279 14.8 164.683 15.0687 165.861 15.606C167.04 16.126 167.95 16.88 168.591 17.868C169.233 18.856 169.553 20.0347 169.553 21.404C169.553 22.756 169.233 23.926 168.591 24.914C167.95 25.902 167.04 26.6647 165.861 27.202C164.683 27.722 163.279 27.982 161.649 27.982H156.111L157.983 26.084V33H153.771ZM157.983 26.552L156.111 24.55H161.415C162.715 24.55 163.686 24.2727 164.327 23.718C164.969 23.1633 165.289 22.392 165.289 21.404C165.289 20.3987 164.969 19.6187 164.327 19.064C163.686 18.5093 162.715 18.232 161.415 18.232H156.111L157.983 16.23V26.552Z" fill="black"/>
<g clip-path="url(#clip0_2270_9900)">
<rect y="4" width="40" height="40" rx="8" fill="black"/>
<rect width="14.0741" height="3.7037" transform="matrix(-1 0 0 1 33 35.1851)" fill="white"/>
<rect width="14.0741" height="3.7037" transform="matrix(-1 0 0 1 25.5927 29.259)" fill="white"/>
<path d="M6.05225 17.5994L11.949 19.4479L14.6383 15.2988L19.0418 17.5474L23.2243 12.9981L24.3887 23.3167L10.9497 26.9177L6.05225 17.5994Z" fill="white"/>
<circle cx="14.2113" cy="12.2123" r="1.54589" transform="rotate(-15 14.2113 12.2123)" fill="white"/>
</g>
<defs>
<clipPath id="clip0_2270_9900">
<rect y="4" width="40" height="40" rx="8" fill="white"/>
</clipPath>
</defs>
</svg>
