<svg width="52" height="52" viewBox="0 0 52 52" fill="none" xmlns="http://www.w3.org/2000/svg">
<path d="M6.5 45.5V41.1667H10.8333V10.8333C10.8333 9.64167 11.2576 8.62153 12.1063 7.77292C12.9549 6.92431 13.975 6.5 15.1667 6.5H36.8333C38.025 6.5 39.0451 6.92431 39.8937 7.77292C40.7424 8.62153 41.1667 9.64167 41.1667 10.8333V41.1667H45.5V45.5H6.5ZM36.8333 41.1667V10.8333H15.1667V41.1667H36.8333ZM30.3333 28.1667C30.9472 28.1667 31.4618 27.959 31.8771 27.5438C32.2924 27.1285 32.5 26.6139 32.5 26C32.5 25.3861 32.2924 24.8715 31.8771 24.4562C31.4618 24.041 30.9472 23.8333 30.3333 23.8333C29.7194 23.8333 29.2049 24.041 28.7896 24.4562C28.3743 24.8715 28.1667 25.3861 28.1667 26C28.1667 26.6139 28.3743 27.1285 28.7896 27.5438C29.2049 27.959 29.7194 28.1667 30.3333 28.1667Z" fill="#959595"/>
</svg>
