<svg width="335" height="260" viewBox="0 0 335 260" fill="none" xmlns="http://www.w3.org/2000/svg">
<g clip-path="url(#clip0_2338_13194)">
<circle opacity="0.1" cx="266.531" cy="68.47" r="68.47" fill="#A4A4A4"/>
<path opacity="0.3" d="M310.918 52.6174C319.024 52.8229 326.145 56.9873 330.423 63.2483H330.599V63.5051C332.897 66.9624 334.334 71.0405 334.609 75.4338H334.659V78.5276H334.609C334.334 82.9201 332.896 86.9966 330.599 90.4534V90.7122H330.423C326.307 96.7355 319.56 100.816 311.836 101.3V101.351H308.742V101.3C301.017 100.816 294.268 96.7363 290.152 90.7122H289.98V90.4543C287.682 86.9973 286.243 82.9207 285.968 78.5276H285.918V75.4338H285.969C286.244 71.0405 287.682 66.9634 289.98 63.5061V63.2483H290.153C294.542 56.8255 301.923 52.6097 310.289 52.6096L310.918 52.6174ZM301.374 90.7122C301.695 91.378 302.036 92.0082 302.397 92.5989C304.321 95.7469 306.567 97.4968 308.742 98.0559V90.7122H301.374ZM311.836 98.0549C314.01 97.4951 316.255 95.7457 318.178 92.5989C318.539 92.0082 318.88 91.378 319.201 90.7122H311.836V98.0549ZM322.592 90.7122C321.724 92.7899 320.665 94.6361 319.456 96.1838C322.191 94.8761 324.601 93.0015 326.538 90.7122H322.592ZM294.039 90.7122C295.975 93.0001 298.384 94.8742 301.116 96.1819C299.908 94.6345 298.849 92.789 297.981 90.7122H294.039ZM289.069 78.5276C289.306 81.8224 290.293 84.9091 291.86 87.6184H296.886C296.061 84.8418 295.549 81.7709 295.425 78.5276H289.069ZM298.521 78.5276C298.659 81.847 299.234 84.9264 300.128 87.6184H308.742V78.5276H298.521ZM311.836 78.5276V87.6184H320.447C321.341 84.9264 321.916 81.8471 322.054 78.5276H311.836ZM325.149 78.5276C325.025 81.7708 324.515 84.8419 323.69 87.6184H328.718C330.285 84.9091 331.272 81.8223 331.509 78.5276H325.149ZM291.86 66.342C290.293 69.0516 289.306 72.1387 289.069 75.4338H295.425C295.549 72.1902 296.061 69.1189 296.886 66.342H291.86ZM300.128 66.342C299.234 69.0343 298.659 72.1141 298.521 75.4338H308.742V66.342H300.128ZM311.836 75.4338H322.054C321.916 72.1141 321.341 69.0343 320.447 66.342H311.836V75.4338ZM323.689 66.342C324.514 69.1189 325.026 72.1902 325.15 75.4338H331.509C331.272 72.1386 330.284 69.0517 328.717 66.342H323.689ZM301.116 57.7776C298.384 59.0853 295.975 60.9602 294.039 63.2483H297.983C298.851 61.1715 299.908 59.3249 301.116 57.7776ZM308.742 55.9036C306.567 56.4626 304.321 58.2134 302.397 61.3616C302.036 61.9523 301.695 62.5825 301.374 63.2483H308.742V55.9036ZM311.836 63.2483H319.201C318.88 62.5825 318.539 61.9523 318.178 61.3616C316.255 58.2146 314.01 56.4643 311.836 55.9045V63.2483ZM319.456 57.7766C320.665 59.3244 321.724 61.1705 322.592 63.2483H326.538C324.601 60.9589 322.191 59.0844 319.456 57.7766Z" fill="#5F5F5F"/>
<circle opacity="0.1" cx="32.8811" cy="162.027" r="32.8811" fill="#A4A4A4"/>
<g clip-path="url(#clip1_2338_13194)">
<path d="M44 42.6997H291.575V159.524C291.575 163.797 288.111 167.261 283.838 167.261H51.7367C47.4638 167.261 44 163.797 44 159.524V42.6997Z" fill="#E8E8E8"/>
<path d="M44 35.7367C44 31.4638 47.4638 28 51.7367 28H283.838C288.111 28 291.575 31.4638 291.575 35.7367V42.6998H44V35.7367Z" fill="white"/>
<circle cx="54.0573" cy="35.7368" r="2.32102" fill="#EA6A5E"/>
<circle cx="61.7937" cy="35.7368" r="2.32102" fill="#F3BE4F"/>
<circle cx="69.53" cy="35.7368" r="2.32102" fill="#64C554"/>
<path d="M129.038 104.149V99.9329L141.804 82.7574H148.38L135.885 99.9329L132.829 99.0432H154.144V104.149H129.038ZM143.622 109.836V104.149L143.815 99.0432V93.9757H149.734V109.836H143.622ZM167.043 110.3C164.825 110.3 162.839 109.759 161.086 108.675C159.332 107.566 157.952 105.968 156.946 103.879C155.941 101.79 155.438 99.2624 155.438 96.2967C155.438 93.3309 155.941 90.8036 156.946 88.7147C157.952 86.6258 159.332 85.0397 161.086 83.9566C162.839 82.8477 164.825 82.2932 167.043 82.2932C169.287 82.2932 171.272 82.8477 173 83.9566C174.754 85.0397 176.134 86.6258 177.139 88.7147C178.145 90.8036 178.648 93.3309 178.648 96.2967C178.648 99.2624 178.145 101.79 177.139 103.879C176.134 105.968 174.754 107.566 173 108.675C171.272 109.759 169.287 110.3 167.043 110.3ZM167.043 105C168.1 105 169.016 104.704 169.789 104.111C170.589 103.518 171.208 102.576 171.646 101.287C172.11 99.9974 172.343 98.334 172.343 96.2967C172.343 94.2593 172.11 92.5959 171.646 91.3065C171.208 90.017 170.589 89.0757 169.789 88.4826C169.016 87.8894 168.1 87.5929 167.043 87.5929C166.011 87.5929 165.096 87.8894 164.296 88.4826C163.523 89.0757 162.904 90.017 162.44 91.3065C162.001 92.5959 161.782 94.2593 161.782 96.2967C161.782 98.334 162.001 99.9974 162.44 101.287C162.904 102.576 163.523 103.518 164.296 104.111C165.096 104.704 166.011 105 167.043 105ZM180.803 104.149V99.9329L193.569 82.7574H200.145L187.65 99.9329L184.594 99.0432H205.909V104.149H180.803ZM195.387 109.836V104.149L195.58 99.0432V93.9757H201.499V109.836H195.387Z" fill="#9C9C9C"/>
<path d="M149.247 128.878V118.046H157.433V120.058H151.739V126.866H157.634V128.878H149.247ZM151.553 124.359V122.41H156.768V124.359H151.553ZM159.226 128.878V120.553H161.532V122.905L161.207 122.224C161.454 121.636 161.852 121.193 162.398 120.893C162.945 120.584 163.61 120.429 164.394 120.429V122.657C164.291 122.647 164.198 122.642 164.116 122.642C164.033 122.632 163.946 122.626 163.853 122.626C163.193 122.626 162.656 122.817 162.244 123.199C161.841 123.57 161.64 124.153 161.64 124.947V128.878H159.226ZM165.613 128.878V120.553H167.918V122.905L167.593 122.224C167.841 121.636 168.238 121.193 168.785 120.893C169.331 120.584 169.997 120.429 170.781 120.429V122.657C170.678 122.647 170.585 122.642 170.502 122.642C170.42 122.632 170.332 122.626 170.239 122.626C169.579 122.626 169.043 122.817 168.63 123.199C168.228 123.57 168.027 124.153 168.027 124.947V128.878H165.613ZM175.885 129.001C174.998 129.001 174.208 128.816 173.517 128.444C172.836 128.073 172.295 127.568 171.893 126.928C171.501 126.278 171.305 125.541 171.305 124.715C171.305 123.88 171.501 123.142 171.893 122.503C172.295 121.853 172.836 121.347 173.517 120.986C174.208 120.615 174.998 120.429 175.885 120.429C176.762 120.429 177.546 120.615 178.237 120.986C178.928 121.347 179.469 121.848 179.861 122.487C180.253 123.127 180.449 123.869 180.449 124.715C180.449 125.541 180.253 126.278 179.861 126.928C179.469 127.568 178.928 128.073 178.237 128.444C177.546 128.816 176.762 129.001 175.885 129.001ZM175.885 127.021C176.287 127.021 176.648 126.928 176.968 126.742C177.288 126.557 177.54 126.294 177.726 125.953C177.912 125.602 178.005 125.19 178.005 124.715C178.005 124.23 177.912 123.818 177.726 123.477C177.54 123.137 177.288 122.874 176.968 122.688C176.648 122.503 176.287 122.41 175.885 122.41C175.482 122.41 175.121 122.503 174.802 122.688C174.482 122.874 174.224 123.137 174.028 123.477C173.842 123.818 173.749 124.23 173.749 124.715C173.749 125.19 173.842 125.602 174.028 125.953C174.224 126.294 174.482 126.557 174.802 126.742C175.121 126.928 175.482 127.021 175.885 127.021ZM181.831 128.878V120.553H184.136V122.905L183.811 122.224C184.059 121.636 184.456 121.193 185.003 120.893C185.55 120.584 186.215 120.429 186.999 120.429V122.657C186.896 122.647 186.803 122.642 186.72 122.642C186.638 122.632 186.55 122.626 186.457 122.626C185.797 122.626 185.261 122.817 184.848 123.199C184.446 123.57 184.245 124.153 184.245 124.947V128.878H181.831Z" fill="#9C9C9C"/>
</g>
<rect x="44.3868" y="28.3868" width="246.801" height="138.487" rx="7.34989" stroke="#E7E7E7" stroke-width="0.773672"/>
<path d="M87.0906 185.74H88.7106V186.25C88.7106 187.03 88.5656 187.77 88.2756 188.47C87.9956 189.16 87.5656 189.76 86.9856 190.27C86.4056 190.78 85.6706 191.155 84.7806 191.395L83.8656 189.835C84.6256 189.635 85.2406 189.35 85.7106 188.98C86.1906 188.61 86.5406 188.19 86.7606 187.72C86.9806 187.24 87.0906 186.75 87.0906 186.25V185.74ZM87.4656 185.74H89.0856V186.25C89.0856 186.71 89.1956 187.165 89.4156 187.615C89.6456 188.055 89.9956 188.45 90.4656 188.8C90.9356 189.15 91.5406 189.42 92.2806 189.61L91.3956 191.155C90.5056 190.925 89.7706 190.57 89.1906 190.09C88.6106 189.6 88.1756 189.025 87.8856 188.365C87.6056 187.705 87.4656 187 87.4656 186.25V185.74ZM84.3606 184.765H91.8306V186.325H84.3606V184.765ZM87.0906 183.385H89.0856V185.5H87.0906V183.385ZM92.9106 183.445H94.9056V191.35H92.9106V183.445ZM94.3656 186.55H96.7506V188.185H94.3656V186.55ZM89.3706 192.61H91.0656V192.94C91.0656 193.47 90.9556 193.975 90.7356 194.455C90.5156 194.935 90.1856 195.37 89.7456 195.76C89.3056 196.14 88.7656 196.46 88.1256 196.72C87.4856 196.98 86.7456 197.17 85.9056 197.29L85.1856 195.775C85.9056 195.685 86.5306 195.545 87.0606 195.355C87.5906 195.165 88.0256 194.94 88.3656 194.68C88.7056 194.42 88.9556 194.14 89.1156 193.84C89.2856 193.53 89.3706 193.23 89.3706 192.94V192.61ZM89.8206 192.61H91.5006V192.94C91.5006 193.23 91.5856 193.525 91.7556 193.825C91.9256 194.115 92.1806 194.395 92.5206 194.665C92.8706 194.925 93.3056 195.155 93.8256 195.355C94.3456 195.555 94.9606 195.7 95.6706 195.79L94.9656 197.305C94.1256 197.195 93.3856 197.005 92.7456 196.735C92.1056 196.465 91.5656 196.135 91.1256 195.745C90.6956 195.355 90.3706 194.92 90.1506 194.44C89.9306 193.96 89.8206 193.46 89.8206 192.94V192.61ZM85.7856 191.935H95.0856V193.51H85.7856V191.935ZM104.069 183.625C105.649 183.625 106.879 183.83 107.759 184.24C108.649 184.65 109.094 185.24 109.094 186.01C109.094 186.77 108.649 187.355 107.759 187.765C106.879 188.175 105.649 188.38 104.069 188.38C102.479 188.38 101.239 188.175 100.349 187.765C99.4694 187.355 99.0294 186.77 99.0294 186.01C99.0294 185.24 99.4694 184.65 100.349 184.24C101.239 183.83 102.479 183.625 104.069 183.625ZM104.054 185.095C103.394 185.095 102.844 185.13 102.404 185.2C101.964 185.26 101.634 185.36 101.414 185.5C101.204 185.63 101.099 185.8 101.099 186.01C101.099 186.22 101.204 186.395 101.414 186.535C101.634 186.665 101.964 186.76 102.404 186.82C102.844 186.88 103.394 186.91 104.054 186.91C104.724 186.91 105.279 186.88 105.719 186.82C106.159 186.76 106.484 186.665 106.694 186.535C106.904 186.395 107.009 186.22 107.009 186.01C107.009 185.8 106.904 185.63 106.694 185.5C106.484 185.36 106.159 185.26 105.719 185.2C105.279 185.13 104.724 185.095 104.054 185.095ZM97.7694 189.025H110.339V190.6H97.7694V189.025ZM99.2094 191.38H108.809V194.935H101.204V196.165H99.2244V193.555H106.844V192.85H99.2094V191.38ZM99.2244 195.73H109.184V197.245H99.2244V195.73ZM120.217 183.835H121.957V184.495C121.957 185.025 121.872 185.54 121.702 186.04C121.542 186.53 121.302 186.99 120.982 187.42C120.662 187.85 120.272 188.235 119.812 188.575C119.352 188.915 118.817 189.205 118.207 189.445C117.607 189.675 116.947 189.85 116.227 189.97L115.447 188.365C116.087 188.285 116.657 188.15 117.157 187.96C117.667 187.77 118.112 187.545 118.492 187.285C118.882 187.025 119.202 186.74 119.452 186.43C119.702 186.12 119.892 185.8 120.022 185.47C120.152 185.14 120.217 184.815 120.217 184.495V183.835ZM120.592 183.835H122.332V184.495C122.332 184.815 122.397 185.14 122.527 185.47C122.657 185.8 122.847 186.12 123.097 186.43C123.347 186.74 123.662 187.025 124.042 187.285C124.432 187.545 124.877 187.77 125.377 187.96C125.887 188.15 126.462 188.285 127.102 188.365L126.322 189.97C125.592 189.85 124.927 189.675 124.327 189.445C123.727 189.205 123.197 188.915 122.737 188.575C122.277 188.225 121.887 187.835 121.567 187.405C121.247 186.975 121.002 186.515 120.832 186.025C120.672 185.535 120.592 185.025 120.592 184.495V183.835ZM120.217 192.235H122.212V197.335H120.217V192.235ZM114.982 190.975H127.552V192.595H114.982V190.975ZM133.694 191.575H135.554V192.94H136.934V191.575H138.764V197.185H133.694V191.575ZM135.554 194.38V195.685H136.934V194.38H135.554ZM140.924 191.455H142.424V192.49C142.424 193.17 142.329 193.83 142.139 194.47C141.949 195.1 141.639 195.66 141.209 196.15C140.789 196.65 140.234 197.035 139.544 197.305L138.569 195.82C139.129 195.59 139.579 195.3 139.919 194.95C140.269 194.59 140.524 194.2 140.684 193.78C140.844 193.35 140.924 192.92 140.924 192.49V191.455ZM141.374 191.455H142.904V192.49C142.904 192.97 142.979 193.43 143.129 193.87C143.289 194.3 143.539 194.685 143.879 195.025C144.229 195.365 144.684 195.63 145.244 195.82L144.254 197.305C143.554 197.055 142.994 196.69 142.574 196.21C142.154 195.73 141.849 195.175 141.659 194.545C141.469 193.905 141.374 193.22 141.374 192.49V191.455ZM139.199 186.415H142.679V188.02H139.199V186.415ZM136.004 183.955C136.704 183.955 137.329 184.095 137.879 184.375C138.439 184.655 138.879 185.04 139.199 185.53C139.519 186.02 139.679 186.585 139.679 187.225C139.679 187.865 139.519 188.435 139.199 188.935C138.879 189.425 138.439 189.81 137.879 190.09C137.329 190.37 136.704 190.51 136.004 190.51C135.314 190.51 134.689 190.37 134.129 190.09C133.579 189.81 133.144 189.425 132.824 188.935C132.504 188.435 132.344 187.865 132.344 187.225C132.344 186.585 132.504 186.02 132.824 185.53C133.144 185.04 133.579 184.655 134.129 184.375C134.689 184.095 135.314 183.955 136.004 183.955ZM136.004 185.59C135.664 185.59 135.359 185.655 135.089 185.785C134.829 185.915 134.624 186.105 134.474 186.355C134.324 186.595 134.249 186.885 134.249 187.225C134.249 187.565 134.324 187.86 134.474 188.11C134.624 188.36 134.829 188.55 135.089 188.68C135.359 188.81 135.664 188.875 136.004 188.875C136.344 188.875 136.644 188.81 136.904 188.68C137.174 188.55 137.384 188.36 137.534 188.11C137.684 187.86 137.759 187.565 137.759 187.225C137.759 186.885 137.684 186.595 137.534 186.355C137.384 186.105 137.174 185.915 136.904 185.785C136.644 185.655 136.344 185.59 136.004 185.59ZM141.794 183.445H143.804V190.795H141.794V183.445ZM147.523 187.18H157.153V188.77H147.523V187.18ZM145.978 190.21H158.548V191.8H145.978V190.21ZM147.523 183.925H149.518V187.975H147.523V183.925ZM147.403 195.43H157.228V197.035H147.403V195.43ZM147.403 192.895H149.398V195.865H147.403V192.895ZM173.33 183.445H175.22V197.335H173.33V183.445ZM169.25 188.5H171.11V190.24H169.25V188.5ZM170.57 183.7H172.43V196.675H170.57V183.7ZM163.265 185.005H169.595V186.595H163.265V185.005ZM163.25 194.185L163.04 192.55C163.47 192.55 163.965 192.55 164.525 192.55C165.085 192.54 165.67 192.525 166.28 192.505C166.89 192.475 167.495 192.44 168.095 192.4C168.705 192.35 169.275 192.29 169.805 192.22L169.925 193.66C169.215 193.82 168.45 193.94 167.63 194.02C166.81 194.09 166.015 194.135 165.245 194.155C164.485 194.175 163.82 194.185 163.25 194.185ZM164.12 186.01H165.92V192.985H164.12V186.01ZM166.925 186.01H168.71V192.985H166.925V186.01ZM186.499 183.415H188.494V197.35H186.499V183.415ZM181.009 184.39C181.719 184.39 182.349 184.595 182.899 185.005C183.449 185.405 183.879 185.98 184.189 186.73C184.509 187.47 184.669 188.345 184.669 189.355C184.669 190.375 184.509 191.26 184.189 192.01C183.879 192.75 183.449 193.325 182.899 193.735C182.349 194.135 181.719 194.335 181.009 194.335C180.309 194.335 179.684 194.135 179.134 193.735C178.584 193.325 178.149 192.75 177.829 192.01C177.519 191.26 177.364 190.375 177.364 189.355C177.364 188.345 177.519 187.47 177.829 186.73C178.149 185.98 178.584 185.405 179.134 185.005C179.684 184.595 180.309 184.39 181.009 184.39ZM181.009 186.205C180.669 186.205 180.369 186.325 180.109 186.565C179.849 186.805 179.644 187.16 179.494 187.63C179.354 188.09 179.284 188.665 179.284 189.355C179.284 190.035 179.354 190.615 179.494 191.095C179.644 191.565 179.849 191.92 180.109 192.16C180.369 192.4 180.669 192.52 181.009 192.52C181.359 192.52 181.664 192.4 181.924 192.16C182.184 191.92 182.384 191.565 182.524 191.095C182.674 190.615 182.749 190.035 182.749 189.355C182.749 188.665 182.674 188.09 182.524 187.63C182.384 187.16 182.184 186.805 181.924 186.565C181.664 186.325 181.359 186.205 181.009 186.205ZM194.118 185.635H195.708V187.195C195.708 187.995 195.623 188.78 195.453 189.55C195.293 190.32 195.048 191.045 194.718 191.725C194.398 192.395 193.993 192.99 193.503 193.51C193.013 194.02 192.443 194.425 191.793 194.725L190.653 193.15C191.233 192.88 191.738 192.53 192.168 192.1C192.608 191.67 192.968 191.19 193.248 190.66C193.538 190.12 193.753 189.555 193.893 188.965C194.043 188.365 194.118 187.775 194.118 187.195V185.635ZM194.553 185.635H196.128V187.195C196.128 187.745 196.198 188.305 196.338 188.875C196.488 189.435 196.703 189.97 196.983 190.48C197.263 190.98 197.618 191.43 198.048 191.83C198.478 192.23 198.988 192.55 199.578 192.79L198.483 194.38C197.823 194.09 197.248 193.7 196.758 193.21C196.268 192.72 195.858 192.155 195.528 191.515C195.198 190.875 194.953 190.19 194.793 189.46C194.633 188.72 194.553 187.965 194.553 187.195V185.635ZM191.208 184.765H199.008V186.415H191.208V184.765ZM200.298 183.445H202.293V197.335H200.298V183.445ZM217.51 183.445H219.505V190.9H217.51V183.445ZM210.28 191.515H212.245V192.805H217.525V191.515H219.505V197.185H210.28V191.515ZM212.245 194.335V195.595H217.525V194.335H212.245ZM211.945 184.015C212.665 184.015 213.31 184.155 213.88 184.435C214.45 184.715 214.9 185.1 215.23 185.59C215.56 186.08 215.725 186.645 215.725 187.285C215.725 187.925 215.56 188.495 215.23 188.995C214.9 189.485 214.45 189.87 213.88 190.15C213.31 190.43 212.665 190.57 211.945 190.57C211.225 190.57 210.58 190.43 210.01 190.15C209.44 189.87 208.99 189.485 208.66 188.995C208.33 188.495 208.165 187.925 208.165 187.285C208.165 186.645 208.33 186.08 208.66 185.59C208.99 185.1 209.44 184.715 210.01 184.435C210.58 184.155 211.225 184.015 211.945 184.015ZM211.945 185.65C211.595 185.65 211.28 185.715 211 185.845C210.72 185.975 210.5 186.165 210.34 186.415C210.19 186.655 210.115 186.945 210.115 187.285C210.115 187.635 210.19 187.935 210.34 188.185C210.5 188.425 210.72 188.61 211 188.74C211.28 188.86 211.595 188.92 211.945 188.92C212.295 188.92 212.605 188.86 212.875 188.74C213.155 188.61 213.375 188.425 213.535 188.185C213.695 187.935 213.775 187.635 213.775 187.285C213.775 186.945 213.695 186.655 213.535 186.415C213.375 186.165 213.155 185.975 212.875 185.845C212.605 185.715 212.295 185.65 211.945 185.65ZM231.384 183.43H233.364V197.32H231.384V183.43ZM222.489 184.75H224.484V193.39H222.489V184.75ZM222.489 192.205H223.719C224.739 192.205 225.804 192.165 226.914 192.085C228.024 191.995 229.154 191.835 230.304 191.605L230.514 193.27C229.334 193.52 228.169 193.69 227.019 193.78C225.879 193.86 224.779 193.9 223.719 193.9H222.489V192.205ZM244.433 183.415H246.443V197.35H244.433V183.415ZM246.008 188.56H248.453V190.21H246.008V188.56ZM236.093 192.37H237.263C238.053 192.37 238.793 192.36 239.483 192.34C240.173 192.31 240.843 192.265 241.493 192.205C242.143 192.135 242.808 192.04 243.488 191.92L243.683 193.57C242.983 193.69 242.293 193.785 241.613 193.855C240.943 193.925 240.253 193.97 239.543 193.99C238.833 194.01 238.073 194.02 237.263 194.02H236.093V192.37ZM236.093 184.705H242.573V186.31H238.088V193.15H236.093V184.705ZM251.196 196.21C250.796 196.21 250.466 196.07 250.206 195.79C249.946 195.51 249.816 195.17 249.816 194.77C249.816 194.35 249.946 194.005 250.206 193.735C250.466 193.465 250.796 193.33 251.196 193.33C251.586 193.33 251.911 193.465 252.171 193.735C252.431 194.005 252.561 194.35 252.561 194.77C252.561 195.17 252.431 195.51 252.171 195.79C251.911 196.07 251.586 196.21 251.196 196.21ZM78.7842 230.495H80.7792V234.38H78.7842V230.495ZM83.8242 230.495H85.8192V234.38H83.8242V230.495ZM76.0242 234.095H88.6092V235.715H76.0242V234.095ZM82.2942 224.12C83.2942 224.12 84.1842 224.275 84.9642 224.585C85.7542 224.895 86.3692 225.33 86.8092 225.89C87.2592 226.44 87.4842 227.095 87.4842 227.855C87.4842 228.605 87.2592 229.26 86.8092 229.82C86.3692 230.37 85.7542 230.8 84.9642 231.11C84.1842 231.42 83.2942 231.575 82.2942 231.575C81.3042 231.575 80.4142 231.42 79.6242 231.11C78.8442 230.8 78.2292 230.37 77.7792 229.82C77.3292 229.26 77.1042 228.605 77.1042 227.855C77.1042 227.095 77.3292 226.44 77.7792 225.89C78.2292 225.33 78.8442 224.895 79.6242 224.585C80.4142 224.275 81.3042 224.12 82.2942 224.12ZM82.2942 225.665C81.6542 225.665 81.0892 225.755 80.5992 225.935C80.1192 226.105 79.7442 226.35 79.4742 226.67C79.2042 226.99 79.0692 227.385 79.0692 227.855C79.0692 228.305 79.2042 228.695 79.4742 229.025C79.7442 229.345 80.1192 229.595 80.5992 229.775C81.0892 229.945 81.6542 230.03 82.2942 230.03C82.9442 230.03 83.5092 229.945 83.9892 229.775C84.4792 229.595 84.8542 229.345 85.1142 229.025C85.3842 228.695 85.5192 228.305 85.5192 227.855C85.5192 227.385 85.3842 226.99 85.1142 226.67C84.8542 226.35 84.4792 226.105 83.9892 225.935C83.5092 225.755 82.9442 225.665 82.2942 225.665ZM92.928 225.875H94.548V226.37C94.548 227.18 94.408 227.945 94.128 228.665C93.848 229.385 93.418 230.01 92.838 230.54C92.268 231.07 91.543 231.465 90.663 231.725L89.718 230.18C90.468 229.96 91.078 229.655 91.548 229.265C92.028 228.865 92.378 228.415 92.598 227.915C92.818 227.405 92.928 226.89 92.928 226.37V225.875ZM93.303 225.875H94.923V226.37C94.923 226.73 94.983 227.085 95.103 227.435C95.233 227.785 95.428 228.115 95.688 228.425C95.958 228.735 96.298 229.01 96.708 229.25C97.118 229.49 97.598 229.685 98.148 229.835L97.248 231.395C96.368 231.155 95.633 230.79 95.043 230.3C94.463 229.8 94.028 229.21 93.738 228.53C93.448 227.85 93.303 227.13 93.303 226.37V225.875ZM90.198 224.87H97.668V226.445H90.198V224.87ZM92.928 223.385H94.923V225.5H92.928V223.385ZM97.278 227.135H99.918V228.74H97.278V227.135ZM99.438 223.445H101.448V231.83H99.438V223.445ZM96.738 232.055C98.208 232.055 99.368 232.285 100.218 232.745C101.068 233.205 101.493 233.855 101.493 234.695C101.493 235.525 101.068 236.17 100.218 236.63C99.368 237.1 98.208 237.335 96.738 237.335C95.268 237.335 94.108 237.1 93.258 236.63C92.408 236.17 91.983 235.525 91.983 234.695C91.983 233.855 92.408 233.205 93.258 232.745C94.108 232.285 95.268 232.055 96.738 232.055ZM96.738 233.585C96.138 233.585 95.628 233.625 95.208 233.705C94.798 233.785 94.488 233.91 94.278 234.08C94.068 234.24 93.963 234.445 93.963 234.695C93.963 234.935 94.068 235.14 94.278 235.31C94.488 235.48 94.798 235.605 95.208 235.685C95.628 235.765 96.138 235.805 96.738 235.805C97.348 235.805 97.858 235.765 98.268 235.685C98.678 235.605 98.983 235.48 99.183 235.31C99.393 235.14 99.498 234.935 99.498 234.695C99.498 234.445 99.393 234.24 99.183 234.08C98.983 233.91 98.678 233.785 98.268 233.705C97.858 233.625 97.348 233.585 96.738 233.585ZM112.517 223.445H114.512V237.335H112.517V223.445ZM114.062 228.86H116.507V230.51H114.062V228.86ZM103.547 225.485H111.647V227.075H103.547V225.485ZM107.627 227.87C108.297 227.87 108.897 228.015 109.427 228.305C109.957 228.585 110.372 228.97 110.672 229.46C110.982 229.95 111.137 230.52 111.137 231.17C111.137 231.82 110.982 232.395 110.672 232.895C110.372 233.385 109.957 233.775 109.427 234.065C108.907 234.345 108.307 234.485 107.627 234.485C106.957 234.485 106.352 234.345 105.812 234.065C105.282 233.775 104.862 233.385 104.552 232.895C104.252 232.395 104.102 231.82 104.102 231.17C104.102 230.52 104.252 229.95 104.552 229.46C104.862 228.97 105.282 228.585 105.812 228.305C106.352 228.015 106.957 227.87 107.627 227.87ZM107.627 229.49C107.307 229.49 107.027 229.555 106.787 229.685C106.547 229.815 106.357 230.005 106.217 230.255C106.077 230.505 106.007 230.81 106.007 231.17C106.007 231.52 106.077 231.825 106.217 232.085C106.357 232.335 106.547 232.53 106.787 232.67C107.027 232.8 107.307 232.865 107.627 232.865C107.937 232.865 108.212 232.8 108.452 232.67C108.692 232.53 108.882 232.335 109.022 232.085C109.162 231.825 109.232 231.52 109.232 231.17C109.232 230.81 109.162 230.505 109.022 230.255C108.882 230.005 108.692 229.815 108.452 229.685C108.212 229.555 107.937 229.49 107.627 229.49ZM106.607 223.67H108.617V226.1H106.607V223.67ZM126.961 223.445H128.956V233.57H126.961V223.445ZM119.701 235.49H129.316V237.095H119.701V235.49ZM119.701 232.595H121.696V236.315H119.701V232.595ZM120.676 224.21H122.326V225.56C122.326 226.46 122.181 227.32 121.891 228.14C121.611 228.96 121.181 229.68 120.601 230.3C120.021 230.92 119.281 231.39 118.381 231.71L117.361 230.12C118.141 229.85 118.771 229.475 119.251 228.995C119.741 228.515 120.101 227.975 120.331 227.375C120.561 226.775 120.676 226.17 120.676 225.56V224.21ZM121.081 224.21H122.701V225.56C122.701 226.01 122.761 226.455 122.881 226.895C123.011 227.325 123.206 227.735 123.466 228.125C123.726 228.505 124.061 228.85 124.471 229.16C124.881 229.47 125.366 229.715 125.926 229.895L124.921 231.47C124.041 231.18 123.316 230.74 122.746 230.15C122.176 229.56 121.756 228.87 121.486 228.08C121.216 227.29 121.081 226.45 121.081 225.56V224.21ZM144.773 223.445H146.663V237.335H144.773V223.445ZM140.693 228.5H142.553V230.24H140.693V228.5ZM142.013 223.7H143.873V236.675H142.013V223.7ZM134.708 225.005H141.038V226.595H134.708V225.005ZM134.693 234.185L134.483 232.55C134.913 232.55 135.408 232.55 135.968 232.55C136.528 232.54 137.113 232.525 137.723 232.505C138.333 232.475 138.938 232.44 139.538 232.4C140.148 232.35 140.718 232.29 141.248 232.22L141.368 233.66C140.658 233.82 139.893 233.94 139.073 234.02C138.253 234.09 137.458 234.135 136.688 234.155C135.928 234.175 135.263 234.185 134.693 234.185ZM135.563 226.01H137.363V232.985H135.563V226.01ZM138.368 226.01H140.153V232.985H138.368V226.01ZM157.942 223.415H159.937V237.35H157.942V223.415ZM152.452 224.39C153.162 224.39 153.792 224.595 154.342 225.005C154.892 225.405 155.322 225.98 155.632 226.73C155.952 227.47 156.112 228.345 156.112 229.355C156.112 230.375 155.952 231.26 155.632 232.01C155.322 232.75 154.892 233.325 154.342 233.735C153.792 234.135 153.162 234.335 152.452 234.335C151.752 234.335 151.127 234.135 150.577 233.735C150.027 233.325 149.592 232.75 149.272 232.01C148.962 231.26 148.807 230.375 148.807 229.355C148.807 228.345 148.962 227.47 149.272 226.73C149.592 225.98 150.027 225.405 150.577 225.005C151.127 224.595 151.752 224.39 152.452 224.39ZM152.452 226.205C152.112 226.205 151.812 226.325 151.552 226.565C151.292 226.805 151.087 227.16 150.937 227.63C150.797 228.09 150.727 228.665 150.727 229.355C150.727 230.035 150.797 230.615 150.937 231.095C151.087 231.565 151.292 231.92 151.552 232.16C151.812 232.4 152.112 232.52 152.452 232.52C152.802 232.52 153.107 232.4 153.367 232.16C153.627 231.92 153.827 231.565 153.967 231.095C154.117 230.615 154.192 230.035 154.192 229.355C154.192 228.665 154.117 228.09 153.967 227.63C153.827 227.16 153.627 226.805 153.367 226.565C153.107 226.325 152.802 226.205 152.452 226.205ZM165.561 225.635H167.151V227.195C167.151 227.995 167.066 228.78 166.896 229.55C166.736 230.32 166.491 231.045 166.161 231.725C165.841 232.395 165.436 232.99 164.946 233.51C164.456 234.02 163.886 234.425 163.236 234.725L162.096 233.15C162.676 232.88 163.181 232.53 163.611 232.1C164.051 231.67 164.411 231.19 164.691 230.66C164.981 230.12 165.196 229.555 165.336 228.965C165.486 228.365 165.561 227.775 165.561 227.195V225.635ZM165.996 225.635H167.571V227.195C167.571 227.745 167.641 228.305 167.781 228.875C167.931 229.435 168.146 229.97 168.426 230.48C168.706 230.98 169.061 231.43 169.491 231.83C169.921 232.23 170.431 232.55 171.021 232.79L169.926 234.38C169.266 234.09 168.691 233.7 168.201 233.21C167.711 232.72 167.301 232.155 166.971 231.515C166.641 230.875 166.396 230.19 166.236 229.46C166.076 228.72 165.996 227.965 165.996 227.195V225.635ZM162.651 224.765H170.451V226.415H162.651V224.765ZM171.741 223.445H173.736V237.335H171.741V223.445ZM184.879 223.415H186.889V237.305H184.879V223.415ZM186.379 228.74H188.824V230.375H186.379V228.74ZM181.234 224.855H183.199C183.199 226.245 182.999 227.56 182.599 228.8C182.209 230.04 181.559 231.18 180.649 232.22C179.749 233.25 178.529 234.15 176.989 234.92L175.864 233.405C177.084 232.775 178.089 232.065 178.879 231.275C179.679 230.485 180.269 229.59 180.649 228.59C181.039 227.58 181.234 226.455 181.234 225.215V224.855ZM176.629 224.855H182.269V226.46H176.629V224.855ZM196.332 224.51H197.937V226.52C197.937 227.38 197.862 228.22 197.712 229.04C197.562 229.85 197.327 230.605 197.007 231.305C196.697 232.005 196.302 232.63 195.822 233.18C195.342 233.72 194.777 234.15 194.127 234.47L192.927 232.865C193.517 232.595 194.022 232.235 194.442 231.785C194.872 231.335 195.227 230.825 195.507 230.255C195.787 229.685 195.992 229.085 196.122 228.455C196.262 227.815 196.332 227.17 196.332 226.52V224.51ZM196.722 224.51H198.327V226.52C198.327 227.15 198.387 227.77 198.507 228.38C198.637 228.99 198.832 229.57 199.092 230.12C199.362 230.66 199.697 231.145 200.097 231.575C200.497 232.005 200.977 232.36 201.537 232.64L200.322 234.23C199.702 233.91 199.162 233.49 198.702 232.97C198.252 232.44 197.882 231.835 197.592 231.155C197.302 230.465 197.082 229.73 196.932 228.95C196.792 228.16 196.722 227.35 196.722 226.52V224.51ZM202.077 223.445H204.087V237.335H202.077V223.445ZM203.652 228.785H206.097V230.435H203.652V228.785ZM215.906 223.415H217.901V237.35H215.906V223.415ZM217.451 228.68H219.896V230.315H217.451V228.68ZM207.581 232.49H208.736C209.526 232.49 210.266 232.48 210.956 232.46C211.646 232.44 212.316 232.4 212.966 232.34C213.626 232.27 214.296 232.18 214.976 232.07L215.156 233.675C214.456 233.795 213.766 233.89 213.086 233.96C212.416 234.02 211.726 234.065 211.016 234.095C210.306 234.125 209.546 234.14 208.736 234.14H207.581V232.49ZM207.551 224.6H213.941V229.985H209.546V233.12H207.581V228.41H211.961V226.205H207.551V224.6ZM230.424 223.445H232.434V231.47H230.424V223.445ZM224.019 225.035H225.654V225.905C225.654 226.775 225.514 227.6 225.234 228.38C224.954 229.16 224.524 229.845 223.944 230.435C223.374 231.015 222.644 231.45 221.754 231.74L220.749 230.165C221.529 229.905 222.154 229.555 222.624 229.115C223.104 228.675 223.454 228.175 223.674 227.615C223.904 227.055 224.019 226.485 224.019 225.905V225.035ZM224.454 225.035H226.059V225.905C226.059 226.445 226.164 226.98 226.374 227.51C226.594 228.03 226.939 228.505 227.409 228.935C227.879 229.355 228.474 229.68 229.194 229.91L228.219 231.47C227.359 231.19 226.649 230.775 226.089 230.225C225.539 229.665 225.129 229.015 224.859 228.275C224.589 227.525 224.454 226.735 224.454 225.905V225.035ZM228.459 225.845H231.039V227.435H228.459V225.845ZM221.319 224.255H228.729V225.83H221.319V224.255ZM228.459 228.305H231.039V229.88H228.459V228.305ZM224.094 231.92H225.609V232.265C225.609 232.975 225.499 233.655 225.279 234.305C225.069 234.955 224.734 235.525 224.274 236.015C223.824 236.505 223.234 236.88 222.504 237.14L221.514 235.7C222.124 235.48 222.614 235.19 222.984 234.83C223.364 234.47 223.644 234.07 223.824 233.63C224.004 233.18 224.094 232.725 224.094 232.265V231.92ZM224.589 231.92H226.029V232.265C226.029 232.725 226.109 233.185 226.269 233.645C226.429 234.095 226.684 234.51 227.034 234.89C227.384 235.27 227.844 235.58 228.414 235.82L227.589 237.29C226.859 237.01 226.274 236.605 225.834 236.075C225.394 235.555 225.074 234.965 224.874 234.305C224.684 233.635 224.589 232.955 224.589 232.265V231.92ZM229.149 231.92H230.589V232.265C230.589 232.915 230.489 233.57 230.289 234.23C230.099 234.89 229.784 235.49 229.344 236.03C228.914 236.58 228.329 237 227.589 237.29L226.779 235.82C227.349 235.56 227.809 235.23 228.159 234.83C228.509 234.43 228.759 234.01 228.909 233.57C229.069 233.12 229.149 232.685 229.149 232.265V231.92ZM229.629 231.92H231.129V232.265C231.129 232.755 231.214 233.225 231.384 233.675C231.554 234.125 231.829 234.525 232.209 234.875C232.589 235.225 233.089 235.5 233.709 235.7L232.719 237.14C231.989 236.89 231.394 236.525 230.934 236.045C230.484 235.565 230.154 235 229.944 234.35C229.734 233.7 229.629 233.005 229.629 232.265V231.92ZM244.223 223.445H246.218V237.335H244.223V223.445ZM241.553 228.755H245.198V230.375H241.553V228.755ZM239.678 224.87H241.643C241.643 225.92 241.543 226.925 241.343 227.885C241.153 228.835 240.828 229.735 240.368 230.585C239.908 231.435 239.278 232.225 238.478 232.955C237.688 233.675 236.693 234.335 235.493 234.935L234.443 233.39C235.423 232.9 236.243 232.37 236.903 231.8C237.573 231.23 238.113 230.615 238.523 229.955C238.933 229.295 239.228 228.575 239.408 227.795C239.588 227.005 239.678 226.15 239.678 225.23V224.87ZM235.103 224.87H240.728V226.46H235.103V224.87ZM258.772 228.68H261.217V230.33H258.772V228.68ZM257.272 223.415H259.282V237.305H257.272V223.415ZM248.827 224.75H250.807V233.39H248.827V224.75ZM248.827 232.265H250.012C251.002 232.265 252.032 232.225 253.102 232.145C254.172 232.065 255.267 231.915 256.387 231.695L256.597 233.315C255.437 233.555 254.307 233.72 253.207 233.81C252.107 233.89 251.042 233.93 250.012 233.93H248.827V232.265ZM83.1927 244.48H84.8277V245.32C84.8277 246.14 84.6827 246.915 84.3927 247.645C84.1127 248.375 83.6777 249.01 83.0877 249.55C82.4977 250.09 81.7477 250.49 80.8377 250.75L79.8777 249.175C80.6577 248.955 81.2927 248.645 81.7827 248.245C82.2727 247.845 82.6277 247.39 82.8477 246.88C83.0777 246.36 83.1927 245.84 83.1927 245.32V244.48ZM83.6127 244.48H85.2177V245.32C85.2177 245.79 85.3277 246.26 85.5477 246.73C85.7777 247.2 86.1277 247.625 86.5977 248.005C87.0777 248.385 87.6877 248.68 88.4277 248.89L87.5127 250.435C86.6327 250.195 85.9027 249.82 85.3227 249.31C84.7427 248.8 84.3127 248.2 84.0327 247.51C83.7527 246.82 83.6127 246.09 83.6127 245.32V244.48ZM80.4327 244.06H87.9327V245.65H80.4327V244.06ZM89.0727 243.445H91.0677V250.54H89.0727V243.445ZM90.2727 246.16H92.8977V247.78H90.2727V246.16ZM81.9027 251.08H91.0677V254.8H83.8977V256.555H81.9177V253.39H89.1027V252.58H81.9027V251.08ZM81.9177 255.685H91.4727V257.2H81.9177V255.685ZM95.4765 243.985H104.912V248.815H95.4765V243.985ZM102.947 245.545H97.4415V247.255H102.947V245.545ZM93.9315 250.045H106.502V251.605H93.9315V250.045ZM99.2115 248.44H101.207V250.555H99.2115V248.44ZM99.1965 252.25H100.907V252.505C100.907 253.115 100.787 253.685 100.547 254.215C100.317 254.735 99.9715 255.205 99.5115 255.625C99.0515 256.035 98.4815 256.38 97.8015 256.66C97.1315 256.95 96.3565 257.155 95.4765 257.275L94.7715 255.73C95.5415 255.64 96.2015 255.49 96.7515 255.28C97.3115 255.07 97.7715 254.82 98.1315 254.53C98.5015 254.23 98.7715 253.91 98.9415 253.57C99.1115 253.22 99.1965 252.865 99.1965 252.505V252.25ZM99.5115 252.25H101.222V252.505C101.222 252.865 101.307 253.22 101.477 253.57C101.657 253.91 101.927 254.23 102.287 254.53C102.647 254.82 103.107 255.07 103.667 255.28C104.227 255.49 104.892 255.64 105.662 255.73L104.942 257.275C104.062 257.155 103.282 256.95 102.602 256.66C101.932 256.38 101.367 256.035 100.907 255.625C100.457 255.205 100.112 254.735 99.8715 254.215C99.6315 253.685 99.5115 253.115 99.5115 252.505V252.25ZM108.945 247.69H115.755V249.265H108.945V247.69ZM111.33 248.71H113.34V251.365H111.33V248.71ZM108.945 244.285H115.68V245.86H110.94V248.35H108.945V244.285ZM117.315 243.43H119.31V253.885H117.315V243.43ZM109.905 255.49H119.685V257.095H109.905V255.49ZM109.905 253.15H111.915V256.105H109.905V253.15ZM108.045 252.31L107.805 250.735C108.685 250.735 109.615 250.73 110.595 250.72C111.575 250.7 112.565 250.67 113.565 250.63C114.575 250.58 115.545 250.51 116.475 250.42L116.625 251.845C115.655 251.985 114.67 252.09 113.67 252.16C112.68 252.22 111.71 252.26 110.76 252.28C109.81 252.3 108.905 252.31 108.045 252.31ZM131.633 245.635H134.888V247.21H131.633V245.635ZM131.513 248.5H134.783V250.105H131.513V248.5ZM134.558 243.43H136.568V251.425H134.558V243.43ZM130.043 244.375H132.158C132.158 245.635 131.923 246.75 131.453 247.72C130.983 248.68 130.278 249.495 129.338 250.165C128.398 250.825 127.223 251.35 125.813 251.74L125.048 250.18C126.228 249.87 127.183 249.48 127.913 249.01C128.643 248.53 129.178 247.98 129.518 247.36C129.868 246.74 130.043 246.07 130.043 245.35V244.375ZM125.798 244.375H131.438V245.965H125.798V244.375ZM131.963 251.605C132.903 251.605 133.723 251.72 134.423 251.95C135.133 252.18 135.678 252.505 136.058 252.925C136.448 253.345 136.643 253.845 136.643 254.425C136.643 255.005 136.448 255.505 136.058 255.925C135.678 256.345 135.133 256.67 134.423 256.9C133.723 257.14 132.903 257.26 131.963 257.26C131.023 257.26 130.198 257.14 129.488 256.9C128.788 256.67 128.243 256.345 127.853 255.925C127.463 255.505 127.268 255.005 127.268 254.425C127.268 253.845 127.463 253.345 127.853 252.925C128.243 252.505 128.788 252.18 129.488 251.95C130.198 251.72 131.023 251.605 131.963 251.605ZM131.963 253.135C131.393 253.135 130.903 253.185 130.493 253.285C130.093 253.385 129.783 253.53 129.563 253.72C129.343 253.91 129.233 254.145 129.233 254.425C129.233 254.705 129.343 254.945 129.563 255.145C129.783 255.335 130.093 255.48 130.493 255.58C130.903 255.67 131.393 255.715 131.963 255.715C132.533 255.715 133.018 255.67 133.418 255.58C133.818 255.48 134.128 255.335 134.348 255.145C134.568 254.945 134.678 254.705 134.678 254.425C134.678 254.145 134.568 253.91 134.348 253.72C134.128 253.53 133.818 253.385 133.418 253.285C133.018 253.185 132.533 253.135 131.963 253.135ZM138.741 254.185H151.326V255.805H138.741V254.185ZM144.021 251.545H146.001V254.83H144.021V251.545ZM140.166 244.33H149.901V248.965H142.161V251.29H140.181V247.405H147.921V245.92H140.166V244.33ZM140.181 250.51H150.216V252.1H140.181V250.51ZM152.54 249.67H165.11V251.11H152.54V249.67ZM153.95 251.815H163.625V255.115H155.945V256.3H153.965V253.855H161.66V253.165H153.95V251.815ZM153.965 255.865H164.015V257.215H153.965V255.865ZM154.07 243.67H163.58V246.955H156.065V248.08H154.1V245.695H161.615V245.02H154.07V243.67ZM154.1 247.675H163.835V249.025H154.1V247.675ZM179.263 243.415H181.258V257.35H179.263V243.415ZM173.773 244.39C174.483 244.39 175.113 244.595 175.663 245.005C176.213 245.405 176.643 245.98 176.953 246.73C177.273 247.47 177.433 248.345 177.433 249.355C177.433 250.375 177.273 251.26 176.953 252.01C176.643 252.75 176.213 253.325 175.663 253.735C175.113 254.135 174.483 254.335 173.773 254.335C173.073 254.335 172.448 254.135 171.898 253.735C171.348 253.325 170.913 252.75 170.593 252.01C170.283 251.26 170.128 250.375 170.128 249.355C170.128 248.345 170.283 247.47 170.593 246.73C170.913 245.98 171.348 245.405 171.898 245.005C172.448 244.595 173.073 244.39 173.773 244.39ZM173.773 246.205C173.433 246.205 173.133 246.325 172.873 246.565C172.613 246.805 172.408 247.16 172.258 247.63C172.118 248.09 172.048 248.665 172.048 249.355C172.048 250.035 172.118 250.615 172.258 251.095C172.408 251.565 172.613 251.92 172.873 252.16C173.133 252.4 173.433 252.52 173.773 252.52C174.123 252.52 174.428 252.4 174.688 252.16C174.948 251.92 175.148 251.565 175.288 251.095C175.438 250.615 175.513 250.035 175.513 249.355C175.513 248.665 175.438 248.09 175.288 247.63C175.148 247.16 174.948 246.805 174.688 246.565C174.428 246.325 174.123 246.205 173.773 246.205ZM186.356 248.08H188.336V250.63H186.356V248.08ZM191.231 248.08H193.226V250.63H191.231V248.08ZM183.521 250.03H196.091V251.59H183.521V250.03ZM189.776 252.295C191.276 252.295 192.456 252.515 193.316 252.955C194.176 253.385 194.606 254.005 194.606 254.815C194.606 255.615 194.176 256.235 193.316 256.675C192.456 257.115 191.276 257.335 189.776 257.335C188.276 257.335 187.096 257.115 186.236 256.675C185.386 256.235 184.961 255.615 184.961 254.815C184.961 254.005 185.386 253.385 186.236 252.955C187.096 252.515 188.276 252.295 189.776 252.295ZM189.776 253.795C189.156 253.795 188.636 253.835 188.216 253.915C187.806 253.985 187.496 254.095 187.286 254.245C187.076 254.395 186.971 254.585 186.971 254.815C186.971 255.045 187.076 255.24 187.286 255.4C187.496 255.55 187.806 255.66 188.216 255.73C188.636 255.8 189.156 255.835 189.776 255.835C190.396 255.835 190.911 255.8 191.321 255.73C191.741 255.66 192.056 255.55 192.266 255.4C192.476 255.24 192.581 255.045 192.581 254.815C192.581 254.585 192.476 254.395 192.266 254.245C192.056 254.095 191.741 253.985 191.321 253.915C190.911 253.835 190.396 253.795 189.776 253.795ZM189.806 243.64C190.836 243.64 191.726 243.75 192.476 243.97C193.236 244.18 193.821 244.485 194.231 244.885C194.641 245.285 194.846 245.76 194.846 246.31C194.846 246.86 194.641 247.335 194.231 247.735C193.821 248.125 193.236 248.43 192.476 248.65C191.726 248.86 190.836 248.965 189.806 248.965C188.796 248.965 187.911 248.86 187.151 248.65C186.391 248.43 185.806 248.125 185.396 247.735C184.986 247.335 184.781 246.86 184.781 246.31C184.781 245.76 184.986 245.285 185.396 244.885C185.806 244.485 186.391 244.18 187.151 243.97C187.911 243.75 188.796 243.64 189.806 243.64ZM189.806 245.155C189.186 245.155 188.651 245.2 188.201 245.29C187.751 245.37 187.411 245.495 187.181 245.665C186.961 245.835 186.851 246.05 186.851 246.31C186.851 246.56 186.961 246.77 187.181 246.94C187.411 247.11 187.751 247.24 188.201 247.33C188.651 247.41 189.186 247.45 189.806 247.45C190.446 247.45 190.986 247.41 191.426 247.33C191.866 247.24 192.201 247.11 192.431 246.94C192.661 246.77 192.776 246.56 192.776 246.31C192.776 246.05 192.661 245.835 192.431 245.665C192.201 245.495 191.866 245.37 191.426 245.29C190.986 245.2 190.446 245.155 189.806 245.155ZM206.23 243.445H208.225V257.335H206.23V243.445ZM207.775 248.86H210.22V250.51H207.775V248.86ZM197.26 245.485H205.36V247.075H197.26V245.485ZM201.34 247.87C202.01 247.87 202.61 248.015 203.14 248.305C203.67 248.585 204.085 248.97 204.385 249.46C204.695 249.95 204.85 250.52 204.85 251.17C204.85 251.82 204.695 252.395 204.385 252.895C204.085 253.385 203.67 253.775 203.14 254.065C202.62 254.345 202.02 254.485 201.34 254.485C200.67 254.485 200.065 254.345 199.525 254.065C198.995 253.775 198.575 253.385 198.265 252.895C197.965 252.395 197.815 251.82 197.815 251.17C197.815 250.52 197.965 249.95 198.265 249.46C198.575 248.97 198.995 248.585 199.525 248.305C200.065 248.015 200.67 247.87 201.34 247.87ZM201.34 249.49C201.02 249.49 200.74 249.555 200.5 249.685C200.26 249.815 200.07 250.005 199.93 250.255C199.79 250.505 199.72 250.81 199.72 251.17C199.72 251.52 199.79 251.825 199.93 252.085C200.07 252.335 200.26 252.53 200.5 252.67C200.74 252.8 201.02 252.865 201.34 252.865C201.65 252.865 201.925 252.8 202.165 252.67C202.405 252.53 202.595 252.335 202.735 252.085C202.875 251.825 202.945 251.52 202.945 251.17C202.945 250.81 202.875 250.505 202.735 250.255C202.595 250.005 202.405 249.815 202.165 249.685C201.925 249.555 201.65 249.49 201.34 249.49ZM200.32 243.67H202.33V246.1H200.32V243.67ZM218.529 244.825H221.289V246.415H218.529V244.825ZM218.529 247.405H221.289V248.995H218.529V247.405ZM220.749 243.445H222.759V251.425H220.749V243.445ZM214.299 243.94H215.934V245.2C215.934 246.15 215.799 247.045 215.529 247.885C215.259 248.725 214.844 249.46 214.284 250.09C213.724 250.72 213.004 251.2 212.124 251.53L211.029 249.955C211.809 249.675 212.439 249.29 212.919 248.8C213.399 248.31 213.749 247.755 213.969 247.135C214.189 246.505 214.299 245.86 214.299 245.2V243.94ZM214.689 243.94H216.309V245.2C216.309 245.67 216.369 246.135 216.489 246.595C216.609 247.055 216.794 247.49 217.044 247.9C217.294 248.31 217.614 248.68 218.004 249.01C218.394 249.34 218.864 249.605 219.414 249.805L218.304 251.365C217.484 251.045 216.804 250.575 216.264 249.955C215.734 249.335 215.339 248.615 215.079 247.795C214.819 246.975 214.689 246.11 214.689 245.2V243.94ZM214.419 251.95H215.919V252.265C215.919 252.975 215.809 253.655 215.589 254.305C215.379 254.945 215.044 255.51 214.584 256C214.134 256.49 213.544 256.87 212.814 257.14L211.839 255.7C212.449 255.48 212.939 255.19 213.309 254.83C213.689 254.47 213.969 254.07 214.149 253.63C214.329 253.18 214.419 252.725 214.419 252.265V251.95ZM214.914 251.95H216.354V252.265C216.354 252.725 216.434 253.185 216.594 253.645C216.754 254.095 217.009 254.51 217.359 254.89C217.709 255.27 218.169 255.58 218.739 255.82L217.914 257.29C217.184 257.01 216.599 256.605 216.159 256.075C215.719 255.555 215.399 254.965 215.199 254.305C215.009 253.635 214.914 252.955 214.914 252.265V251.95ZM219.474 251.95H220.914V252.265C220.914 252.915 220.814 253.57 220.614 254.23C220.424 254.89 220.109 255.49 219.669 256.03C219.239 256.58 218.654 257 217.914 257.29L217.104 255.82C217.674 255.56 218.134 255.23 218.484 254.83C218.834 254.43 219.084 254.01 219.234 253.57C219.394 253.12 219.474 252.685 219.474 252.265V251.95ZM219.954 251.95H221.454V252.265C221.454 252.755 221.539 253.225 221.709 253.675C221.879 254.125 222.154 254.525 222.534 254.875C222.914 255.225 223.414 255.5 224.034 255.7L223.044 257.14C222.314 256.89 221.719 256.525 221.259 256.045C220.809 255.565 220.479 255 220.269 254.35C220.059 253.7 219.954 253.005 219.954 252.265V251.95ZM228.728 244.39C229.418 244.39 230.033 244.595 230.573 245.005C231.123 245.405 231.548 245.98 231.848 246.73C232.158 247.47 232.313 248.345 232.313 249.355C232.313 250.375 232.158 251.26 231.848 252.01C231.548 252.75 231.123 253.325 230.573 253.735C230.033 254.135 229.418 254.335 228.728 254.335C228.038 254.335 227.423 254.135 226.883 253.735C226.343 253.325 225.918 252.75 225.608 252.01C225.298 251.26 225.143 250.375 225.143 249.355C225.143 248.345 225.298 247.47 225.608 246.73C225.918 245.98 226.343 245.405 226.883 245.005C227.423 244.595 228.038 244.39 228.728 244.39ZM228.728 246.205C228.398 246.205 228.103 246.325 227.843 246.565C227.593 246.805 227.398 247.16 227.258 247.63C227.118 248.09 227.048 248.665 227.048 249.355C227.048 250.035 227.118 250.615 227.258 251.095C227.398 251.565 227.593 251.92 227.843 252.16C228.103 252.4 228.398 252.52 228.728 252.52C229.078 252.52 229.378 252.4 229.628 252.16C229.878 251.92 230.073 251.565 230.213 251.095C230.353 250.615 230.423 250.035 230.423 249.355C230.423 248.665 230.353 248.09 230.213 247.63C230.073 247.16 229.878 246.805 229.628 246.565C229.378 246.325 229.078 246.205 228.728 246.205ZM234.593 243.415H236.588V257.35H234.593V243.415ZM231.728 248.44H235.433V250.03H231.728V248.44ZM241.492 250.495H243.487V254.38H241.492V250.495ZM246.532 250.495H248.527V254.38H246.532V250.495ZM238.732 254.095H251.317V255.715H238.732V254.095ZM245.002 244.12C246.002 244.12 246.892 244.275 247.672 244.585C248.462 244.895 249.077 245.33 249.517 245.89C249.967 246.44 250.192 247.095 250.192 247.855C250.192 248.605 249.967 249.26 249.517 249.82C249.077 250.37 248.462 250.8 247.672 251.11C246.892 251.42 246.002 251.575 245.002 251.575C244.012 251.575 243.122 251.42 242.332 251.11C241.552 250.8 240.937 250.37 240.487 249.82C240.037 249.26 239.812 248.605 239.812 247.855C239.812 247.095 240.037 246.44 240.487 245.89C240.937 245.33 241.552 244.895 242.332 244.585C243.122 244.275 244.012 244.12 245.002 244.12ZM245.002 245.665C244.362 245.665 243.797 245.755 243.307 245.935C242.827 246.105 242.452 246.35 242.182 246.67C241.912 246.99 241.777 247.385 241.777 247.855C241.777 248.305 241.912 248.695 242.182 249.025C242.452 249.345 242.827 249.595 243.307 249.775C243.797 249.945 244.362 250.03 245.002 250.03C245.652 250.03 246.217 249.945 246.697 249.775C247.187 249.595 247.562 249.345 247.822 249.025C248.092 248.695 248.227 248.305 248.227 247.855C248.227 247.385 248.092 246.99 247.822 246.67C247.562 246.35 247.187 246.105 246.697 245.935C246.217 245.755 245.652 245.665 245.002 245.665ZM253.971 252.22L253.656 246.685L253.581 244.585H255.801L255.726 246.685L255.411 252.22H253.971ZM254.691 256.21C254.291 256.21 253.961 256.07 253.701 255.79C253.451 255.51 253.326 255.17 253.326 254.77C253.326 254.35 253.451 254.005 253.701 253.735C253.961 253.465 254.291 253.33 254.691 253.33C255.091 253.33 255.416 253.465 255.666 253.735C255.926 254.005 256.056 254.35 256.056 254.77C256.056 255.17 255.926 255.51 255.666 255.79C255.416 256.07 255.091 256.21 254.691 256.21Z" fill="#7D7D7D"/>
<path d="M87.0906 185.74H88.7106V186.25C88.7106 187.03 88.5656 187.77 88.2756 188.47C87.9956 189.16 87.5656 189.76 86.9856 190.27C86.4056 190.78 85.6706 191.155 84.7806 191.395L83.8656 189.835C84.6256 189.635 85.2406 189.35 85.7106 188.98C86.1906 188.61 86.5406 188.19 86.7606 187.72C86.9806 187.24 87.0906 186.75 87.0906 186.25V185.74ZM87.4656 185.74H89.0856V186.25C89.0856 186.71 89.1956 187.165 89.4156 187.615C89.6456 188.055 89.9956 188.45 90.4656 188.8C90.9356 189.15 91.5406 189.42 92.2806 189.61L91.3956 191.155C90.5056 190.925 89.7706 190.57 89.1906 190.09C88.6106 189.6 88.1756 189.025 87.8856 188.365C87.6056 187.705 87.4656 187 87.4656 186.25V185.74ZM84.3606 184.765H91.8306V186.325H84.3606V184.765ZM87.0906 183.385H89.0856V185.5H87.0906V183.385ZM92.9106 183.445H94.9056V191.35H92.9106V183.445ZM94.3656 186.55H96.7506V188.185H94.3656V186.55ZM89.3706 192.61H91.0656V192.94C91.0656 193.47 90.9556 193.975 90.7356 194.455C90.5156 194.935 90.1856 195.37 89.7456 195.76C89.3056 196.14 88.7656 196.46 88.1256 196.72C87.4856 196.98 86.7456 197.17 85.9056 197.29L85.1856 195.775C85.9056 195.685 86.5306 195.545 87.0606 195.355C87.5906 195.165 88.0256 194.94 88.3656 194.68C88.7056 194.42 88.9556 194.14 89.1156 193.84C89.2856 193.53 89.3706 193.23 89.3706 192.94V192.61ZM89.8206 192.61H91.5006V192.94C91.5006 193.23 91.5856 193.525 91.7556 193.825C91.9256 194.115 92.1806 194.395 92.5206 194.665C92.8706 194.925 93.3056 195.155 93.8256 195.355C94.3456 195.555 94.9606 195.7 95.6706 195.79L94.9656 197.305C94.1256 197.195 93.3856 197.005 92.7456 196.735C92.1056 196.465 91.5656 196.135 91.1256 195.745C90.6956 195.355 90.3706 194.92 90.1506 194.44C89.9306 193.96 89.8206 193.46 89.8206 192.94V192.61ZM85.7856 191.935H95.0856V193.51H85.7856V191.935ZM104.069 183.625C105.649 183.625 106.879 183.83 107.759 184.24C108.649 184.65 109.094 185.24 109.094 186.01C109.094 186.77 108.649 187.355 107.759 187.765C106.879 188.175 105.649 188.38 104.069 188.38C102.479 188.38 101.239 188.175 100.349 187.765C99.4694 187.355 99.0294 186.77 99.0294 186.01C99.0294 185.24 99.4694 184.65 100.349 184.24C101.239 183.83 102.479 183.625 104.069 183.625ZM104.054 185.095C103.394 185.095 102.844 185.13 102.404 185.2C101.964 185.26 101.634 185.36 101.414 185.5C101.204 185.63 101.099 185.8 101.099 186.01C101.099 186.22 101.204 186.395 101.414 186.535C101.634 186.665 101.964 186.76 102.404 186.82C102.844 186.88 103.394 186.91 104.054 186.91C104.724 186.91 105.279 186.88 105.719 186.82C106.159 186.76 106.484 186.665 106.694 186.535C106.904 186.395 107.009 186.22 107.009 186.01C107.009 185.8 106.904 185.63 106.694 185.5C106.484 185.36 106.159 185.26 105.719 185.2C105.279 185.13 104.724 185.095 104.054 185.095ZM97.7694 189.025H110.339V190.6H97.7694V189.025ZM99.2094 191.38H108.809V194.935H101.204V196.165H99.2244V193.555H106.844V192.85H99.2094V191.38ZM99.2244 195.73H109.184V197.245H99.2244V195.73ZM120.217 183.835H121.957V184.495C121.957 185.025 121.872 185.54 121.702 186.04C121.542 186.53 121.302 186.99 120.982 187.42C120.662 187.85 120.272 188.235 119.812 188.575C119.352 188.915 118.817 189.205 118.207 189.445C117.607 189.675 116.947 189.85 116.227 189.97L115.447 188.365C116.087 188.285 116.657 188.15 117.157 187.96C117.667 187.77 118.112 187.545 118.492 187.285C118.882 187.025 119.202 186.74 119.452 186.43C119.702 186.12 119.892 185.8 120.022 185.47C120.152 185.14 120.217 184.815 120.217 184.495V183.835ZM120.592 183.835H122.332V184.495C122.332 184.815 122.397 185.14 122.527 185.47C122.657 185.8 122.847 186.12 123.097 186.43C123.347 186.74 123.662 187.025 124.042 187.285C124.432 187.545 124.877 187.77 125.377 187.96C125.887 188.15 126.462 188.285 127.102 188.365L126.322 189.97C125.592 189.85 124.927 189.675 124.327 189.445C123.727 189.205 123.197 188.915 122.737 188.575C122.277 188.225 121.887 187.835 121.567 187.405C121.247 186.975 121.002 186.515 120.832 186.025C120.672 185.535 120.592 185.025 120.592 184.495V183.835ZM120.217 192.235H122.212V197.335H120.217V192.235ZM114.982 190.975H127.552V192.595H114.982V190.975ZM133.694 191.575H135.554V192.94H136.934V191.575H138.764V197.185H133.694V191.575ZM135.554 194.38V195.685H136.934V194.38H135.554ZM140.924 191.455H142.424V192.49C142.424 193.17 142.329 193.83 142.139 194.47C141.949 195.1 141.639 195.66 141.209 196.15C140.789 196.65 140.234 197.035 139.544 197.305L138.569 195.82C139.129 195.59 139.579 195.3 139.919 194.95C140.269 194.59 140.524 194.2 140.684 193.78C140.844 193.35 140.924 192.92 140.924 192.49V191.455ZM141.374 191.455H142.904V192.49C142.904 192.97 142.979 193.43 143.129 193.87C143.289 194.3 143.539 194.685 143.879 195.025C144.229 195.365 144.684 195.63 145.244 195.82L144.254 197.305C143.554 197.055 142.994 196.69 142.574 196.21C142.154 195.73 141.849 195.175 141.659 194.545C141.469 193.905 141.374 193.22 141.374 192.49V191.455ZM139.199 186.415H142.679V188.02H139.199V186.415ZM136.004 183.955C136.704 183.955 137.329 184.095 137.879 184.375C138.439 184.655 138.879 185.04 139.199 185.53C139.519 186.02 139.679 186.585 139.679 187.225C139.679 187.865 139.519 188.435 139.199 188.935C138.879 189.425 138.439 189.81 137.879 190.09C137.329 190.37 136.704 190.51 136.004 190.51C135.314 190.51 134.689 190.37 134.129 190.09C133.579 189.81 133.144 189.425 132.824 188.935C132.504 188.435 132.344 187.865 132.344 187.225C132.344 186.585 132.504 186.02 132.824 185.53C133.144 185.04 133.579 184.655 134.129 184.375C134.689 184.095 135.314 183.955 136.004 183.955ZM136.004 185.59C135.664 185.59 135.359 185.655 135.089 185.785C134.829 185.915 134.624 186.105 134.474 186.355C134.324 186.595 134.249 186.885 134.249 187.225C134.249 187.565 134.324 187.86 134.474 188.11C134.624 188.36 134.829 188.55 135.089 188.68C135.359 188.81 135.664 188.875 136.004 188.875C136.344 188.875 136.644 188.81 136.904 188.68C137.174 188.55 137.384 188.36 137.534 188.11C137.684 187.86 137.759 187.565 137.759 187.225C137.759 186.885 137.684 186.595 137.534 186.355C137.384 186.105 137.174 185.915 136.904 185.785C136.644 185.655 136.344 185.59 136.004 185.59ZM141.794 183.445H143.804V190.795H141.794V183.445ZM147.523 187.18H157.153V188.77H147.523V187.18ZM145.978 190.21H158.548V191.8H145.978V190.21ZM147.523 183.925H149.518V187.975H147.523V183.925ZM147.403 195.43H157.228V197.035H147.403V195.43ZM147.403 192.895H149.398V195.865H147.403V192.895ZM173.33 183.445H175.22V197.335H173.33V183.445ZM169.25 188.5H171.11V190.24H169.25V188.5ZM170.57 183.7H172.43V196.675H170.57V183.7ZM163.265 185.005H169.595V186.595H163.265V185.005ZM163.25 194.185L163.04 192.55C163.47 192.55 163.965 192.55 164.525 192.55C165.085 192.54 165.67 192.525 166.28 192.505C166.89 192.475 167.495 192.44 168.095 192.4C168.705 192.35 169.275 192.29 169.805 192.22L169.925 193.66C169.215 193.82 168.45 193.94 167.63 194.02C166.81 194.09 166.015 194.135 165.245 194.155C164.485 194.175 163.82 194.185 163.25 194.185ZM164.12 186.01H165.92V192.985H164.12V186.01ZM166.925 186.01H168.71V192.985H166.925V186.01ZM186.499 183.415H188.494V197.35H186.499V183.415ZM181.009 184.39C181.719 184.39 182.349 184.595 182.899 185.005C183.449 185.405 183.879 185.98 184.189 186.73C184.509 187.47 184.669 188.345 184.669 189.355C184.669 190.375 184.509 191.26 184.189 192.01C183.879 192.75 183.449 193.325 182.899 193.735C182.349 194.135 181.719 194.335 181.009 194.335C180.309 194.335 179.684 194.135 179.134 193.735C178.584 193.325 178.149 192.75 177.829 192.01C177.519 191.26 177.364 190.375 177.364 189.355C177.364 188.345 177.519 187.47 177.829 186.73C178.149 185.98 178.584 185.405 179.134 185.005C179.684 184.595 180.309 184.39 181.009 184.39ZM181.009 186.205C180.669 186.205 180.369 186.325 180.109 186.565C179.849 186.805 179.644 187.16 179.494 187.63C179.354 188.09 179.284 188.665 179.284 189.355C179.284 190.035 179.354 190.615 179.494 191.095C179.644 191.565 179.849 191.92 180.109 192.16C180.369 192.4 180.669 192.52 181.009 192.52C181.359 192.52 181.664 192.4 181.924 192.16C182.184 191.92 182.384 191.565 182.524 191.095C182.674 190.615 182.749 190.035 182.749 189.355C182.749 188.665 182.674 188.09 182.524 187.63C182.384 187.16 182.184 186.805 181.924 186.565C181.664 186.325 181.359 186.205 181.009 186.205ZM194.118 185.635H195.708V187.195C195.708 187.995 195.623 188.78 195.453 189.55C195.293 190.32 195.048 191.045 194.718 191.725C194.398 192.395 193.993 192.99 193.503 193.51C193.013 194.02 192.443 194.425 191.793 194.725L190.653 193.15C191.233 192.88 191.738 192.53 192.168 192.1C192.608 191.67 192.968 191.19 193.248 190.66C193.538 190.12 193.753 189.555 193.893 188.965C194.043 188.365 194.118 187.775 194.118 187.195V185.635ZM194.553 185.635H196.128V187.195C196.128 187.745 196.198 188.305 196.338 188.875C196.488 189.435 196.703 189.97 196.983 190.48C197.263 190.98 197.618 191.43 198.048 191.83C198.478 192.23 198.988 192.55 199.578 192.79L198.483 194.38C197.823 194.09 197.248 193.7 196.758 193.21C196.268 192.72 195.858 192.155 195.528 191.515C195.198 190.875 194.953 190.19 194.793 189.46C194.633 188.72 194.553 187.965 194.553 187.195V185.635ZM191.208 184.765H199.008V186.415H191.208V184.765ZM200.298 183.445H202.293V197.335H200.298V183.445ZM217.51 183.445H219.505V190.9H217.51V183.445ZM210.28 191.515H212.245V192.805H217.525V191.515H219.505V197.185H210.28V191.515ZM212.245 194.335V195.595H217.525V194.335H212.245ZM211.945 184.015C212.665 184.015 213.31 184.155 213.88 184.435C214.45 184.715 214.9 185.1 215.23 185.59C215.56 186.08 215.725 186.645 215.725 187.285C215.725 187.925 215.56 188.495 215.23 188.995C214.9 189.485 214.45 189.87 213.88 190.15C213.31 190.43 212.665 190.57 211.945 190.57C211.225 190.57 210.58 190.43 210.01 190.15C209.44 189.87 208.99 189.485 208.66 188.995C208.33 188.495 208.165 187.925 208.165 187.285C208.165 186.645 208.33 186.08 208.66 185.59C208.99 185.1 209.44 184.715 210.01 184.435C210.58 184.155 211.225 184.015 211.945 184.015ZM211.945 185.65C211.595 185.65 211.28 185.715 211 185.845C210.72 185.975 210.5 186.165 210.34 186.415C210.19 186.655 210.115 186.945 210.115 187.285C210.115 187.635 210.19 187.935 210.34 188.185C210.5 188.425 210.72 188.61 211 188.74C211.28 188.86 211.595 188.92 211.945 188.92C212.295 188.92 212.605 188.86 212.875 188.74C213.155 188.61 213.375 188.425 213.535 188.185C213.695 187.935 213.775 187.635 213.775 187.285C213.775 186.945 213.695 186.655 213.535 186.415C213.375 186.165 213.155 185.975 212.875 185.845C212.605 185.715 212.295 185.65 211.945 185.65ZM231.384 183.43H233.364V197.32H231.384V183.43ZM222.489 184.75H224.484V193.39H222.489V184.75ZM222.489 192.205H223.719C224.739 192.205 225.804 192.165 226.914 192.085C228.024 191.995 229.154 191.835 230.304 191.605L230.514 193.27C229.334 193.52 228.169 193.69 227.019 193.78C225.879 193.86 224.779 193.9 223.719 193.9H222.489V192.205ZM244.433 183.415H246.443V197.35H244.433V183.415ZM246.008 188.56H248.453V190.21H246.008V188.56ZM236.093 192.37H237.263C238.053 192.37 238.793 192.36 239.483 192.34C240.173 192.31 240.843 192.265 241.493 192.205C242.143 192.135 242.808 192.04 243.488 191.92L243.683 193.57C242.983 193.69 242.293 193.785 241.613 193.855C240.943 193.925 240.253 193.97 239.543 193.99C238.833 194.01 238.073 194.02 237.263 194.02H236.093V192.37ZM236.093 184.705H242.573V186.31H238.088V193.15H236.093V184.705ZM251.196 196.21C250.796 196.21 250.466 196.07 250.206 195.79C249.946 195.51 249.816 195.17 249.816 194.77C249.816 194.35 249.946 194.005 250.206 193.735C250.466 193.465 250.796 193.33 251.196 193.33C251.586 193.33 251.911 193.465 252.171 193.735C252.431 194.005 252.561 194.35 252.561 194.77C252.561 195.17 252.431 195.51 252.171 195.79C251.911 196.07 251.586 196.21 251.196 196.21ZM78.7842 230.495H80.7792V234.38H78.7842V230.495ZM83.8242 230.495H85.8192V234.38H83.8242V230.495ZM76.0242 234.095H88.6092V235.715H76.0242V234.095ZM82.2942 224.12C83.2942 224.12 84.1842 224.275 84.9642 224.585C85.7542 224.895 86.3692 225.33 86.8092 225.89C87.2592 226.44 87.4842 227.095 87.4842 227.855C87.4842 228.605 87.2592 229.26 86.8092 229.82C86.3692 230.37 85.7542 230.8 84.9642 231.11C84.1842 231.42 83.2942 231.575 82.2942 231.575C81.3042 231.575 80.4142 231.42 79.6242 231.11C78.8442 230.8 78.2292 230.37 77.7792 229.82C77.3292 229.26 77.1042 228.605 77.1042 227.855C77.1042 227.095 77.3292 226.44 77.7792 225.89C78.2292 225.33 78.8442 224.895 79.6242 224.585C80.4142 224.275 81.3042 224.12 82.2942 224.12ZM82.2942 225.665C81.6542 225.665 81.0892 225.755 80.5992 225.935C80.1192 226.105 79.7442 226.35 79.4742 226.67C79.2042 226.99 79.0692 227.385 79.0692 227.855C79.0692 228.305 79.2042 228.695 79.4742 229.025C79.7442 229.345 80.1192 229.595 80.5992 229.775C81.0892 229.945 81.6542 230.03 82.2942 230.03C82.9442 230.03 83.5092 229.945 83.9892 229.775C84.4792 229.595 84.8542 229.345 85.1142 229.025C85.3842 228.695 85.5192 228.305 85.5192 227.855C85.5192 227.385 85.3842 226.99 85.1142 226.67C84.8542 226.35 84.4792 226.105 83.9892 225.935C83.5092 225.755 82.9442 225.665 82.2942 225.665ZM92.928 225.875H94.548V226.37C94.548 227.18 94.408 227.945 94.128 228.665C93.848 229.385 93.418 230.01 92.838 230.54C92.268 231.07 91.543 231.465 90.663 231.725L89.718 230.18C90.468 229.96 91.078 229.655 91.548 229.265C92.028 228.865 92.378 228.415 92.598 227.915C92.818 227.405 92.928 226.89 92.928 226.37V225.875ZM93.303 225.875H94.923V226.37C94.923 226.73 94.983 227.085 95.103 227.435C95.233 227.785 95.428 228.115 95.688 228.425C95.958 228.735 96.298 229.01 96.708 229.25C97.118 229.49 97.598 229.685 98.148 229.835L97.248 231.395C96.368 231.155 95.633 230.79 95.043 230.3C94.463 229.8 94.028 229.21 93.738 228.53C93.448 227.85 93.303 227.13 93.303 226.37V225.875ZM90.198 224.87H97.668V226.445H90.198V224.87ZM92.928 223.385H94.923V225.5H92.928V223.385ZM97.278 227.135H99.918V228.74H97.278V227.135ZM99.438 223.445H101.448V231.83H99.438V223.445ZM96.738 232.055C98.208 232.055 99.368 232.285 100.218 232.745C101.068 233.205 101.493 233.855 101.493 234.695C101.493 235.525 101.068 236.17 100.218 236.63C99.368 237.1 98.208 237.335 96.738 237.335C95.268 237.335 94.108 237.1 93.258 236.63C92.408 236.17 91.983 235.525 91.983 234.695C91.983 233.855 92.408 233.205 93.258 232.745C94.108 232.285 95.268 232.055 96.738 232.055ZM96.738 233.585C96.138 233.585 95.628 233.625 95.208 233.705C94.798 233.785 94.488 233.91 94.278 234.08C94.068 234.24 93.963 234.445 93.963 234.695C93.963 234.935 94.068 235.14 94.278 235.31C94.488 235.48 94.798 235.605 95.208 235.685C95.628 235.765 96.138 235.805 96.738 235.805C97.348 235.805 97.858 235.765 98.268 235.685C98.678 235.605 98.983 235.48 99.183 235.31C99.393 235.14 99.498 234.935 99.498 234.695C99.498 234.445 99.393 234.24 99.183 234.08C98.983 233.91 98.678 233.785 98.268 233.705C97.858 233.625 97.348 233.585 96.738 233.585ZM112.517 223.445H114.512V237.335H112.517V223.445ZM114.062 228.86H116.507V230.51H114.062V228.86ZM103.547 225.485H111.647V227.075H103.547V225.485ZM107.627 227.87C108.297 227.87 108.897 228.015 109.427 228.305C109.957 228.585 110.372 228.97 110.672 229.46C110.982 229.95 111.137 230.52 111.137 231.17C111.137 231.82 110.982 232.395 110.672 232.895C110.372 233.385 109.957 233.775 109.427 234.065C108.907 234.345 108.307 234.485 107.627 234.485C106.957 234.485 106.352 234.345 105.812 234.065C105.282 233.775 104.862 233.385 104.552 232.895C104.252 232.395 104.102 231.82 104.102 231.17C104.102 230.52 104.252 229.95 104.552 229.46C104.862 228.97 105.282 228.585 105.812 228.305C106.352 228.015 106.957 227.87 107.627 227.87ZM107.627 229.49C107.307 229.49 107.027 229.555 106.787 229.685C106.547 229.815 106.357 230.005 106.217 230.255C106.077 230.505 106.007 230.81 106.007 231.17C106.007 231.52 106.077 231.825 106.217 232.085C106.357 232.335 106.547 232.53 106.787 232.67C107.027 232.8 107.307 232.865 107.627 232.865C107.937 232.865 108.212 232.8 108.452 232.67C108.692 232.53 108.882 232.335 109.022 232.085C109.162 231.825 109.232 231.52 109.232 231.17C109.232 230.81 109.162 230.505 109.022 230.255C108.882 230.005 108.692 229.815 108.452 229.685C108.212 229.555 107.937 229.49 107.627 229.49ZM106.607 223.67H108.617V226.1H106.607V223.67ZM126.961 223.445H128.956V233.57H126.961V223.445ZM119.701 235.49H129.316V237.095H119.701V235.49ZM119.701 232.595H121.696V236.315H119.701V232.595ZM120.676 224.21H122.326V225.56C122.326 226.46 122.181 227.32 121.891 228.14C121.611 228.96 121.181 229.68 120.601 230.3C120.021 230.92 119.281 231.39 118.381 231.71L117.361 230.12C118.141 229.85 118.771 229.475 119.251 228.995C119.741 228.515 120.101 227.975 120.331 227.375C120.561 226.775 120.676 226.17 120.676 225.56V224.21ZM121.081 224.21H122.701V225.56C122.701 226.01 122.761 226.455 122.881 226.895C123.011 227.325 123.206 227.735 123.466 228.125C123.726 228.505 124.061 228.85 124.471 229.16C124.881 229.47 125.366 229.715 125.926 229.895L124.921 231.47C124.041 231.18 123.316 230.74 122.746 230.15C122.176 229.56 121.756 228.87 121.486 228.08C121.216 227.29 121.081 226.45 121.081 225.56V224.21ZM144.773 223.445H146.663V237.335H144.773V223.445ZM140.693 228.5H142.553V230.24H140.693V228.5ZM142.013 223.7H143.873V236.675H142.013V223.7ZM134.708 225.005H141.038V226.595H134.708V225.005ZM134.693 234.185L134.483 232.55C134.913 232.55 135.408 232.55 135.968 232.55C136.528 232.54 137.113 232.525 137.723 232.505C138.333 232.475 138.938 232.44 139.538 232.4C140.148 232.35 140.718 232.29 141.248 232.22L141.368 233.66C140.658 233.82 139.893 233.94 139.073 234.02C138.253 234.09 137.458 234.135 136.688 234.155C135.928 234.175 135.263 234.185 134.693 234.185ZM135.563 226.01H137.363V232.985H135.563V226.01ZM138.368 226.01H140.153V232.985H138.368V226.01ZM157.942 223.415H159.937V237.35H157.942V223.415ZM152.452 224.39C153.162 224.39 153.792 224.595 154.342 225.005C154.892 225.405 155.322 225.98 155.632 226.73C155.952 227.47 156.112 228.345 156.112 229.355C156.112 230.375 155.952 231.26 155.632 232.01C155.322 232.75 154.892 233.325 154.342 233.735C153.792 234.135 153.162 234.335 152.452 234.335C151.752 234.335 151.127 234.135 150.577 233.735C150.027 233.325 149.592 232.75 149.272 232.01C148.962 231.26 148.807 230.375 148.807 229.355C148.807 228.345 148.962 227.47 149.272 226.73C149.592 225.98 150.027 225.405 150.577 225.005C151.127 224.595 151.752 224.39 152.452 224.39ZM152.452 226.205C152.112 226.205 151.812 226.325 151.552 226.565C151.292 226.805 151.087 227.16 150.937 227.63C150.797 228.09 150.727 228.665 150.727 229.355C150.727 230.035 150.797 230.615 150.937 231.095C151.087 231.565 151.292 231.92 151.552 232.16C151.812 232.4 152.112 232.52 152.452 232.52C152.802 232.52 153.107 232.4 153.367 232.16C153.627 231.92 153.827 231.565 153.967 231.095C154.117 230.615 154.192 230.035 154.192 229.355C154.192 228.665 154.117 228.09 153.967 227.63C153.827 227.16 153.627 226.805 153.367 226.565C153.107 226.325 152.802 226.205 152.452 226.205ZM165.561 225.635H167.151V227.195C167.151 227.995 167.066 228.78 166.896 229.55C166.736 230.32 166.491 231.045 166.161 231.725C165.841 232.395 165.436 232.99 164.946 233.51C164.456 234.02 163.886 234.425 163.236 234.725L162.096 233.15C162.676 232.88 163.181 232.53 163.611 232.1C164.051 231.67 164.411 231.19 164.691 230.66C164.981 230.12 165.196 229.555 165.336 228.965C165.486 228.365 165.561 227.775 165.561 227.195V225.635ZM165.996 225.635H167.571V227.195C167.571 227.745 167.641 228.305 167.781 228.875C167.931 229.435 168.146 229.97 168.426 230.48C168.706 230.98 169.061 231.43 169.491 231.83C169.921 232.23 170.431 232.55 171.021 232.79L169.926 234.38C169.266 234.09 168.691 233.7 168.201 233.21C167.711 232.72 167.301 232.155 166.971 231.515C166.641 230.875 166.396 230.19 166.236 229.46C166.076 228.72 165.996 227.965 165.996 227.195V225.635ZM162.651 224.765H170.451V226.415H162.651V224.765ZM171.741 223.445H173.736V237.335H171.741V223.445ZM184.879 223.415H186.889V237.305H184.879V223.415ZM186.379 228.74H188.824V230.375H186.379V228.74ZM181.234 224.855H183.199C183.199 226.245 182.999 227.56 182.599 228.8C182.209 230.04 181.559 231.18 180.649 232.22C179.749 233.25 178.529 234.15 176.989 234.92L175.864 233.405C177.084 232.775 178.089 232.065 178.879 231.275C179.679 230.485 180.269 229.59 180.649 228.59C181.039 227.58 181.234 226.455 181.234 225.215V224.855ZM176.629 224.855H182.269V226.46H176.629V224.855ZM196.332 224.51H197.937V226.52C197.937 227.38 197.862 228.22 197.712 229.04C197.562 229.85 197.327 230.605 197.007 231.305C196.697 232.005 196.302 232.63 195.822 233.18C195.342 233.72 194.777 234.15 194.127 234.47L192.927 232.865C193.517 232.595 194.022 232.235 194.442 231.785C194.872 231.335 195.227 230.825 195.507 230.255C195.787 229.685 195.992 229.085 196.122 228.455C196.262 227.815 196.332 227.17 196.332 226.52V224.51ZM196.722 224.51H198.327V226.52C198.327 227.15 198.387 227.77 198.507 228.38C198.637 228.99 198.832 229.57 199.092 230.12C199.362 230.66 199.697 231.145 200.097 231.575C200.497 232.005 200.977 232.36 201.537 232.64L200.322 234.23C199.702 233.91 199.162 233.49 198.702 232.97C198.252 232.44 197.882 231.835 197.592 231.155C197.302 230.465 197.082 229.73 196.932 228.95C196.792 228.16 196.722 227.35 196.722 226.52V224.51ZM202.077 223.445H204.087V237.335H202.077V223.445ZM203.652 228.785H206.097V230.435H203.652V228.785ZM215.906 223.415H217.901V237.35H215.906V223.415ZM217.451 228.68H219.896V230.315H217.451V228.68ZM207.581 232.49H208.736C209.526 232.49 210.266 232.48 210.956 232.46C211.646 232.44 212.316 232.4 212.966 232.34C213.626 232.27 214.296 232.18 214.976 232.07L215.156 233.675C214.456 233.795 213.766 233.89 213.086 233.96C212.416 234.02 211.726 234.065 211.016 234.095C210.306 234.125 209.546 234.14 208.736 234.14H207.581V232.49ZM207.551 224.6H213.941V229.985H209.546V233.12H207.581V228.41H211.961V226.205H207.551V224.6ZM230.424 223.445H232.434V231.47H230.424V223.445ZM224.019 225.035H225.654V225.905C225.654 226.775 225.514 227.6 225.234 228.38C224.954 229.16 224.524 229.845 223.944 230.435C223.374 231.015 222.644 231.45 221.754 231.74L220.749 230.165C221.529 229.905 222.154 229.555 222.624 229.115C223.104 228.675 223.454 228.175 223.674 227.615C223.904 227.055 224.019 226.485 224.019 225.905V225.035ZM224.454 225.035H226.059V225.905C226.059 226.445 226.164 226.98 226.374 227.51C226.594 228.03 226.939 228.505 227.409 228.935C227.879 229.355 228.474 229.68 229.194 229.91L228.219 231.47C227.359 231.19 226.649 230.775 226.089 230.225C225.539 229.665 225.129 229.015 224.859 228.275C224.589 227.525 224.454 226.735 224.454 225.905V225.035ZM228.459 225.845H231.039V227.435H228.459V225.845ZM221.319 224.255H228.729V225.83H221.319V224.255ZM228.459 228.305H231.039V229.88H228.459V228.305ZM224.094 231.92H225.609V232.265C225.609 232.975 225.499 233.655 225.279 234.305C225.069 234.955 224.734 235.525 224.274 236.015C223.824 236.505 223.234 236.88 222.504 237.14L221.514 235.7C222.124 235.48 222.614 235.19 222.984 234.83C223.364 234.47 223.644 234.07 223.824 233.63C224.004 233.18 224.094 232.725 224.094 232.265V231.92ZM224.589 231.92H226.029V232.265C226.029 232.725 226.109 233.185 226.269 233.645C226.429 234.095 226.684 234.51 227.034 234.89C227.384 235.27 227.844 235.58 228.414 235.82L227.589 237.29C226.859 237.01 226.274 236.605 225.834 236.075C225.394 235.555 225.074 234.965 224.874 234.305C224.684 233.635 224.589 232.955 224.589 232.265V231.92ZM229.149 231.92H230.589V232.265C230.589 232.915 230.489 233.57 230.289 234.23C230.099 234.89 229.784 235.49 229.344 236.03C228.914 236.58 228.329 237 227.589 237.29L226.779 235.82C227.349 235.56 227.809 235.23 228.159 234.83C228.509 234.43 228.759 234.01 228.909 233.57C229.069 233.12 229.149 232.685 229.149 232.265V231.92ZM229.629 231.92H231.129V232.265C231.129 232.755 231.214 233.225 231.384 233.675C231.554 234.125 231.829 234.525 232.209 234.875C232.589 235.225 233.089 235.5 233.709 235.7L232.719 237.14C231.989 236.89 231.394 236.525 230.934 236.045C230.484 235.565 230.154 235 229.944 234.35C229.734 233.7 229.629 233.005 229.629 232.265V231.92ZM244.223 223.445H246.218V237.335H244.223V223.445ZM241.553 228.755H245.198V230.375H241.553V228.755ZM239.678 224.87H241.643C241.643 225.92 241.543 226.925 241.343 227.885C241.153 228.835 240.828 229.735 240.368 230.585C239.908 231.435 239.278 232.225 238.478 232.955C237.688 233.675 236.693 234.335 235.493 234.935L234.443 233.39C235.423 232.9 236.243 232.37 236.903 231.8C237.573 231.23 238.113 230.615 238.523 229.955C238.933 229.295 239.228 228.575 239.408 227.795C239.588 227.005 239.678 226.15 239.678 225.23V224.87ZM235.103 224.87H240.728V226.46H235.103V224.87ZM258.772 228.68H261.217V230.33H258.772V228.68ZM257.272 223.415H259.282V237.305H257.272V223.415ZM248.827 224.75H250.807V233.39H248.827V224.75ZM248.827 232.265H250.012C251.002 232.265 252.032 232.225 253.102 232.145C254.172 232.065 255.267 231.915 256.387 231.695L256.597 233.315C255.437 233.555 254.307 233.72 253.207 233.81C252.107 233.89 251.042 233.93 250.012 233.93H248.827V232.265ZM83.1927 244.48H84.8277V245.32C84.8277 246.14 84.6827 246.915 84.3927 247.645C84.1127 248.375 83.6777 249.01 83.0877 249.55C82.4977 250.09 81.7477 250.49 80.8377 250.75L79.8777 249.175C80.6577 248.955 81.2927 248.645 81.7827 248.245C82.2727 247.845 82.6277 247.39 82.8477 246.88C83.0777 246.36 83.1927 245.84 83.1927 245.32V244.48ZM83.6127 244.48H85.2177V245.32C85.2177 245.79 85.3277 246.26 85.5477 246.73C85.7777 247.2 86.1277 247.625 86.5977 248.005C87.0777 248.385 87.6877 248.68 88.4277 248.89L87.5127 250.435C86.6327 250.195 85.9027 249.82 85.3227 249.31C84.7427 248.8 84.3127 248.2 84.0327 247.51C83.7527 246.82 83.6127 246.09 83.6127 245.32V244.48ZM80.4327 244.06H87.9327V245.65H80.4327V244.06ZM89.0727 243.445H91.0677V250.54H89.0727V243.445ZM90.2727 246.16H92.8977V247.78H90.2727V246.16ZM81.9027 251.08H91.0677V254.8H83.8977V256.555H81.9177V253.39H89.1027V252.58H81.9027V251.08ZM81.9177 255.685H91.4727V257.2H81.9177V255.685ZM95.4765 243.985H104.912V248.815H95.4765V243.985ZM102.947 245.545H97.4415V247.255H102.947V245.545ZM93.9315 250.045H106.502V251.605H93.9315V250.045ZM99.2115 248.44H101.207V250.555H99.2115V248.44ZM99.1965 252.25H100.907V252.505C100.907 253.115 100.787 253.685 100.547 254.215C100.317 254.735 99.9715 255.205 99.5115 255.625C99.0515 256.035 98.4815 256.38 97.8015 256.66C97.1315 256.95 96.3565 257.155 95.4765 257.275L94.7715 255.73C95.5415 255.64 96.2015 255.49 96.7515 255.28C97.3115 255.07 97.7715 254.82 98.1315 254.53C98.5015 254.23 98.7715 253.91 98.9415 253.57C99.1115 253.22 99.1965 252.865 99.1965 252.505V252.25ZM99.5115 252.25H101.222V252.505C101.222 252.865 101.307 253.22 101.477 253.57C101.657 253.91 101.927 254.23 102.287 254.53C102.647 254.82 103.107 255.07 103.667 255.28C104.227 255.49 104.892 255.64 105.662 255.73L104.942 257.275C104.062 257.155 103.282 256.95 102.602 256.66C101.932 256.38 101.367 256.035 100.907 255.625C100.457 255.205 100.112 254.735 99.8715 254.215C99.6315 253.685 99.5115 253.115 99.5115 252.505V252.25ZM108.945 247.69H115.755V249.265H108.945V247.69ZM111.33 248.71H113.34V251.365H111.33V248.71ZM108.945 244.285H115.68V245.86H110.94V248.35H108.945V244.285ZM117.315 243.43H119.31V253.885H117.315V243.43ZM109.905 255.49H119.685V257.095H109.905V255.49ZM109.905 253.15H111.915V256.105H109.905V253.15ZM108.045 252.31L107.805 250.735C108.685 250.735 109.615 250.73 110.595 250.72C111.575 250.7 112.565 250.67 113.565 250.63C114.575 250.58 115.545 250.51 116.475 250.42L116.625 251.845C115.655 251.985 114.67 252.09 113.67 252.16C112.68 252.22 111.71 252.26 110.76 252.28C109.81 252.3 108.905 252.31 108.045 252.31ZM131.633 245.635H134.888V247.21H131.633V245.635ZM131.513 248.5H134.783V250.105H131.513V248.5ZM134.558 243.43H136.568V251.425H134.558V243.43ZM130.043 244.375H132.158C132.158 245.635 131.923 246.75 131.453 247.72C130.983 248.68 130.278 249.495 129.338 250.165C128.398 250.825 127.223 251.35 125.813 251.74L125.048 250.18C126.228 249.87 127.183 249.48 127.913 249.01C128.643 248.53 129.178 247.98 129.518 247.36C129.868 246.74 130.043 246.07 130.043 245.35V244.375ZM125.798 244.375H131.438V245.965H125.798V244.375ZM131.963 251.605C132.903 251.605 133.723 251.72 134.423 251.95C135.133 252.18 135.678 252.505 136.058 252.925C136.448 253.345 136.643 253.845 136.643 254.425C136.643 255.005 136.448 255.505 136.058 255.925C135.678 256.345 135.133 256.67 134.423 256.9C133.723 257.14 132.903 257.26 131.963 257.26C131.023 257.26 130.198 257.14 129.488 256.9C128.788 256.67 128.243 256.345 127.853 255.925C127.463 255.505 127.268 255.005 127.268 254.425C127.268 253.845 127.463 253.345 127.853 252.925C128.243 252.505 128.788 252.18 129.488 251.95C130.198 251.72 131.023 251.605 131.963 251.605ZM131.963 253.135C131.393 253.135 130.903 253.185 130.493 253.285C130.093 253.385 129.783 253.53 129.563 253.72C129.343 253.91 129.233 254.145 129.233 254.425C129.233 254.705 129.343 254.945 129.563 255.145C129.783 255.335 130.093 255.48 130.493 255.58C130.903 255.67 131.393 255.715 131.963 255.715C132.533 255.715 133.018 255.67 133.418 255.58C133.818 255.48 134.128 255.335 134.348 255.145C134.568 254.945 134.678 254.705 134.678 254.425C134.678 254.145 134.568 253.91 134.348 253.72C134.128 253.53 133.818 253.385 133.418 253.285C133.018 253.185 132.533 253.135 131.963 253.135ZM138.741 254.185H151.326V255.805H138.741V254.185ZM144.021 251.545H146.001V254.83H144.021V251.545ZM140.166 244.33H149.901V248.965H142.161V251.29H140.181V247.405H147.921V245.92H140.166V244.33ZM140.181 250.51H150.216V252.1H140.181V250.51ZM152.54 249.67H165.11V251.11H152.54V249.67ZM153.95 251.815H163.625V255.115H155.945V256.3H153.965V253.855H161.66V253.165H153.95V251.815ZM153.965 255.865H164.015V257.215H153.965V255.865ZM154.07 243.67H163.58V246.955H156.065V248.08H154.1V245.695H161.615V245.02H154.07V243.67ZM154.1 247.675H163.835V249.025H154.1V247.675ZM179.263 243.415H181.258V257.35H179.263V243.415ZM173.773 244.39C174.483 244.39 175.113 244.595 175.663 245.005C176.213 245.405 176.643 245.98 176.953 246.73C177.273 247.47 177.433 248.345 177.433 249.355C177.433 250.375 177.273 251.26 176.953 252.01C176.643 252.75 176.213 253.325 175.663 253.735C175.113 254.135 174.483 254.335 173.773 254.335C173.073 254.335 172.448 254.135 171.898 253.735C171.348 253.325 170.913 252.75 170.593 252.01C170.283 251.26 170.128 250.375 170.128 249.355C170.128 248.345 170.283 247.47 170.593 246.73C170.913 245.98 171.348 245.405 171.898 245.005C172.448 244.595 173.073 244.39 173.773 244.39ZM173.773 246.205C173.433 246.205 173.133 246.325 172.873 246.565C172.613 246.805 172.408 247.16 172.258 247.63C172.118 248.09 172.048 248.665 172.048 249.355C172.048 250.035 172.118 250.615 172.258 251.095C172.408 251.565 172.613 251.92 172.873 252.16C173.133 252.4 173.433 252.52 173.773 252.52C174.123 252.52 174.428 252.4 174.688 252.16C174.948 251.92 175.148 251.565 175.288 251.095C175.438 250.615 175.513 250.035 175.513 249.355C175.513 248.665 175.438 248.09 175.288 247.63C175.148 247.16 174.948 246.805 174.688 246.565C174.428 246.325 174.123 246.205 173.773 246.205ZM186.356 248.08H188.336V250.63H186.356V248.08ZM191.231 248.08H193.226V250.63H191.231V248.08ZM183.521 250.03H196.091V251.59H183.521V250.03ZM189.776 252.295C191.276 252.295 192.456 252.515 193.316 252.955C194.176 253.385 194.606 254.005 194.606 254.815C194.606 255.615 194.176 256.235 193.316 256.675C192.456 257.115 191.276 257.335 189.776 257.335C188.276 257.335 187.096 257.115 186.236 256.675C185.386 256.235 184.961 255.615 184.961 254.815C184.961 254.005 185.386 253.385 186.236 252.955C187.096 252.515 188.276 252.295 189.776 252.295ZM189.776 253.795C189.156 253.795 188.636 253.835 188.216 253.915C187.806 253.985 187.496 254.095 187.286 254.245C187.076 254.395 186.971 254.585 186.971 254.815C186.971 255.045 187.076 255.24 187.286 255.4C187.496 255.55 187.806 255.66 188.216 255.73C188.636 255.8 189.156 255.835 189.776 255.835C190.396 255.835 190.911 255.8 191.321 255.73C191.741 255.66 192.056 255.55 192.266 255.4C192.476 255.24 192.581 255.045 192.581 254.815C192.581 254.585 192.476 254.395 192.266 254.245C192.056 254.095 191.741 253.985 191.321 253.915C190.911 253.835 190.396 253.795 189.776 253.795ZM189.806 243.64C190.836 243.64 191.726 243.75 192.476 243.97C193.236 244.18 193.821 244.485 194.231 244.885C194.641 245.285 194.846 245.76 194.846 246.31C194.846 246.86 194.641 247.335 194.231 247.735C193.821 248.125 193.236 248.43 192.476 248.65C191.726 248.86 190.836 248.965 189.806 248.965C188.796 248.965 187.911 248.86 187.151 248.65C186.391 248.43 185.806 248.125 185.396 247.735C184.986 247.335 184.781 246.86 184.781 246.31C184.781 245.76 184.986 245.285 185.396 244.885C185.806 244.485 186.391 244.18 187.151 243.97C187.911 243.75 188.796 243.64 189.806 243.64ZM189.806 245.155C189.186 245.155 188.651 245.2 188.201 245.29C187.751 245.37 187.411 245.495 187.181 245.665C186.961 245.835 186.851 246.05 186.851 246.31C186.851 246.56 186.961 246.77 187.181 246.94C187.411 247.11 187.751 247.24 188.201 247.33C188.651 247.41 189.186 247.45 189.806 247.45C190.446 247.45 190.986 247.41 191.426 247.33C191.866 247.24 192.201 247.11 192.431 246.94C192.661 246.77 192.776 246.56 192.776 246.31C192.776 246.05 192.661 245.835 192.431 245.665C192.201 245.495 191.866 245.37 191.426 245.29C190.986 245.2 190.446 245.155 189.806 245.155ZM206.23 243.445H208.225V257.335H206.23V243.445ZM207.775 248.86H210.22V250.51H207.775V248.86ZM197.26 245.485H205.36V247.075H197.26V245.485ZM201.34 247.87C202.01 247.87 202.61 248.015 203.14 248.305C203.67 248.585 204.085 248.97 204.385 249.46C204.695 249.95 204.85 250.52 204.85 251.17C204.85 251.82 204.695 252.395 204.385 252.895C204.085 253.385 203.67 253.775 203.14 254.065C202.62 254.345 202.02 254.485 201.34 254.485C200.67 254.485 200.065 254.345 199.525 254.065C198.995 253.775 198.575 253.385 198.265 252.895C197.965 252.395 197.815 251.82 197.815 251.17C197.815 250.52 197.965 249.95 198.265 249.46C198.575 248.97 198.995 248.585 199.525 248.305C200.065 248.015 200.67 247.87 201.34 247.87ZM201.34 249.49C201.02 249.49 200.74 249.555 200.5 249.685C200.26 249.815 200.07 250.005 199.93 250.255C199.79 250.505 199.72 250.81 199.72 251.17C199.72 251.52 199.79 251.825 199.93 252.085C200.07 252.335 200.26 252.53 200.5 252.67C200.74 252.8 201.02 252.865 201.34 252.865C201.65 252.865 201.925 252.8 202.165 252.67C202.405 252.53 202.595 252.335 202.735 252.085C202.875 251.825 202.945 251.52 202.945 251.17C202.945 250.81 202.875 250.505 202.735 250.255C202.595 250.005 202.405 249.815 202.165 249.685C201.925 249.555 201.65 249.49 201.34 249.49ZM200.32 243.67H202.33V246.1H200.32V243.67ZM218.529 244.825H221.289V246.415H218.529V244.825ZM218.529 247.405H221.289V248.995H218.529V247.405ZM220.749 243.445H222.759V251.425H220.749V243.445ZM214.299 243.94H215.934V245.2C215.934 246.15 215.799 247.045 215.529 247.885C215.259 248.725 214.844 249.46 214.284 250.09C213.724 250.72 213.004 251.2 212.124 251.53L211.029 249.955C211.809 249.675 212.439 249.29 212.919 248.8C213.399 248.31 213.749 247.755 213.969 247.135C214.189 246.505 214.299 245.86 214.299 245.2V243.94ZM214.689 243.94H216.309V245.2C216.309 245.67 216.369 246.135 216.489 246.595C216.609 247.055 216.794 247.49 217.044 247.9C217.294 248.31 217.614 248.68 218.004 249.01C218.394 249.34 218.864 249.605 219.414 249.805L218.304 251.365C217.484 251.045 216.804 250.575 216.264 249.955C215.734 249.335 215.339 248.615 215.079 247.795C214.819 246.975 214.689 246.11 214.689 245.2V243.94ZM214.419 251.95H215.919V252.265C215.919 252.975 215.809 253.655 215.589 254.305C215.379 254.945 215.044 255.51 214.584 256C214.134 256.49 213.544 256.87 212.814 257.14L211.839 255.7C212.449 255.48 212.939 255.19 213.309 254.83C213.689 254.47 213.969 254.07 214.149 253.63C214.329 253.18 214.419 252.725 214.419 252.265V251.95ZM214.914 251.95H216.354V252.265C216.354 252.725 216.434 253.185 216.594 253.645C216.754 254.095 217.009 254.51 217.359 254.89C217.709 255.27 218.169 255.58 218.739 255.82L217.914 257.29C217.184 257.01 216.599 256.605 216.159 256.075C215.719 255.555 215.399 254.965 215.199 254.305C215.009 253.635 214.914 252.955 214.914 252.265V251.95ZM219.474 251.95H220.914V252.265C220.914 252.915 220.814 253.57 220.614 254.23C220.424 254.89 220.109 255.49 219.669 256.03C219.239 256.58 218.654 257 217.914 257.29L217.104 255.82C217.674 255.56 218.134 255.23 218.484 254.83C218.834 254.43 219.084 254.01 219.234 253.57C219.394 253.12 219.474 252.685 219.474 252.265V251.95ZM219.954 251.95H221.454V252.265C221.454 252.755 221.539 253.225 221.709 253.675C221.879 254.125 222.154 254.525 222.534 254.875C222.914 255.225 223.414 255.5 224.034 255.7L223.044 257.14C222.314 256.89 221.719 256.525 221.259 256.045C220.809 255.565 220.479 255 220.269 254.35C220.059 253.7 219.954 253.005 219.954 252.265V251.95ZM228.728 244.39C229.418 244.39 230.033 244.595 230.573 245.005C231.123 245.405 231.548 245.98 231.848 246.73C232.158 247.47 232.313 248.345 232.313 249.355C232.313 250.375 232.158 251.26 231.848 252.01C231.548 252.75 231.123 253.325 230.573 253.735C230.033 254.135 229.418 254.335 228.728 254.335C228.038 254.335 227.423 254.135 226.883 253.735C226.343 253.325 225.918 252.75 225.608 252.01C225.298 251.26 225.143 250.375 225.143 249.355C225.143 248.345 225.298 247.47 225.608 246.73C225.918 245.98 226.343 245.405 226.883 245.005C227.423 244.595 228.038 244.39 228.728 244.39ZM228.728 246.205C228.398 246.205 228.103 246.325 227.843 246.565C227.593 246.805 227.398 247.16 227.258 247.63C227.118 248.09 227.048 248.665 227.048 249.355C227.048 250.035 227.118 250.615 227.258 251.095C227.398 251.565 227.593 251.92 227.843 252.16C228.103 252.4 228.398 252.52 228.728 252.52C229.078 252.52 229.378 252.4 229.628 252.16C229.878 251.92 230.073 251.565 230.213 251.095C230.353 250.615 230.423 250.035 230.423 249.355C230.423 248.665 230.353 248.09 230.213 247.63C230.073 247.16 229.878 246.805 229.628 246.565C229.378 246.325 229.078 246.205 228.728 246.205ZM234.593 243.415H236.588V257.35H234.593V243.415ZM231.728 248.44H235.433V250.03H231.728V248.44ZM241.492 250.495H243.487V254.38H241.492V250.495ZM246.532 250.495H248.527V254.38H246.532V250.495ZM238.732 254.095H251.317V255.715H238.732V254.095ZM245.002 244.12C246.002 244.12 246.892 244.275 247.672 244.585C248.462 244.895 249.077 245.33 249.517 245.89C249.967 246.44 250.192 247.095 250.192 247.855C250.192 248.605 249.967 249.26 249.517 249.82C249.077 250.37 248.462 250.8 247.672 251.11C246.892 251.42 246.002 251.575 245.002 251.575C244.012 251.575 243.122 251.42 242.332 251.11C241.552 250.8 240.937 250.37 240.487 249.82C240.037 249.26 239.812 248.605 239.812 247.855C239.812 247.095 240.037 246.44 240.487 245.89C240.937 245.33 241.552 244.895 242.332 244.585C243.122 244.275 244.012 244.12 245.002 244.12ZM245.002 245.665C244.362 245.665 243.797 245.755 243.307 245.935C242.827 246.105 242.452 246.35 242.182 246.67C241.912 246.99 241.777 247.385 241.777 247.855C241.777 248.305 241.912 248.695 242.182 249.025C242.452 249.345 242.827 249.595 243.307 249.775C243.797 249.945 244.362 250.03 245.002 250.03C245.652 250.03 246.217 249.945 246.697 249.775C247.187 249.595 247.562 249.345 247.822 249.025C248.092 248.695 248.227 248.305 248.227 247.855C248.227 247.385 248.092 246.99 247.822 246.67C247.562 246.35 247.187 246.105 246.697 245.935C246.217 245.755 245.652 245.665 245.002 245.665ZM253.971 252.22L253.656 246.685L253.581 244.585H255.801L255.726 246.685L255.411 252.22H253.971ZM254.691 256.21C254.291 256.21 253.961 256.07 253.701 255.79C253.451 255.51 253.326 255.17 253.326 254.77C253.326 254.35 253.451 254.005 253.701 253.735C253.961 253.465 254.291 253.33 254.691 253.33C255.091 253.33 255.416 253.465 255.666 253.735C255.926 254.005 256.056 254.35 256.056 254.77C256.056 255.17 255.926 255.51 255.666 255.79C255.416 256.07 255.091 256.21 254.691 256.21Z" fill="#585858"/>
<circle cx="284.369" cy="102.125" r="4.64203" fill="white"/>
<path d="M280.888 85.104C296.911 85.104 309.9 98.0934 309.9 114.117C309.9 120.733 307.683 126.83 303.954 131.711L318.429 146.186C319.939 147.697 319.939 150.146 318.429 151.657C316.918 153.167 314.469 153.167 312.958 151.657L298.483 137.182C293.602 140.911 287.505 143.129 280.888 143.129C264.864 143.129 251.875 130.14 251.875 114.117C251.875 98.0934 264.864 85.104 280.888 85.104ZM280.888 93.1646C269.316 93.1646 259.936 102.545 259.936 114.117C259.936 125.688 269.316 135.069 280.888 135.069C292.459 135.069 301.84 125.688 301.84 114.117C301.84 102.545 292.459 93.1646 280.888 93.1646Z" fill="#9C9C9C"/>
</g>
<defs>
<clipPath id="clip0_2338_13194">
<rect width="335" height="260" fill="white"/>
</clipPath>
<clipPath id="clip1_2338_13194">
<rect x="44" y="28" width="247.575" height="139.261" rx="7.73672" fill="white"/>
</clipPath>
</defs>
</svg>
