<svg width="22" height="22" viewBox="0 0 22 22" fill="none" xmlns="http://www.w3.org/2000/svg">
<path d="M16.4993 10.3357V12.467C16.8049 12.6809 17.0341 12.8986 17.1868 13.1201C17.3396 13.3416 17.416 13.5517 17.416 13.7503C17.416 13.842 17.4046 13.9337 17.3816 14.0253C17.3587 14.117 17.3167 14.2087 17.2556 14.3003L16.4993 14.667H14.4368L14.2993 15.0566L13.291 14.667H9.62435L8.95977 15.5378L6.50768 15.1712L5.49935 13.7503H4.58268C4.58268 13.5517 4.65907 13.3416 4.81185 13.1201C4.96463 12.8986 5.19379 12.6809 5.49935 12.467V10.3357C4.61324 10.7788 3.93338 11.2944 3.45976 11.8826C2.98615 12.4708 2.74935 13.0934 2.74935 13.7503L1.83268 15.1253L2.74935 17.8753H5.59101L5.49935 18.3337L7.79102 19.2503H14.2077L14.4368 18.6545L16.9577 19.2503L20.166 16.9587V14.667L19.2035 14.1857C19.2188 14.1094 19.2303 14.0368 19.2379 13.968C19.2455 13.8993 19.2493 13.8267 19.2493 13.7503C19.2493 13.0934 19.0125 12.4708 18.5389 11.8826C18.0653 11.2944 17.3855 10.7788 16.4993 10.3357ZM18.2868 16.5691L17.4389 15.7212L18.3327 15.2857L18.791 15.5149V16.2253L18.2868 16.5691ZM16.6139 17.7607L14.8952 17.3482L15.3993 16.042H15.8118L17.1181 17.3482L16.6139 17.7607ZM13.2452 17.8753H10.4723L9.85352 16.6378L10.3118 16.042H13.016L13.7952 16.3628L13.2452 17.8753ZM8.89102 17.8753H8.06602L7.10352 17.4857L7.26393 16.6837L8.29518 16.8441L8.89102 17.8753ZM5.72852 16.5003H3.73476L3.34518 15.3316L3.48268 15.1253H4.78893L5.72852 16.5003ZM15.8118 11.917C15.7355 11.6878 15.6782 11.4701 15.64 11.2639C15.6018 11.0576 15.5827 10.8323 15.5827 10.5878C15.5827 10.1295 15.6973 9.73227 15.9264 9.39616C16.1556 9.06005 16.4153 8.70102 16.7056 8.31908C16.9959 7.93713 17.2556 7.51317 17.4848 7.0472C17.7139 6.58123 17.8285 5.98158 17.8285 5.24824C17.8285 5.01908 17.8171 4.77463 17.7941 4.51491C17.7712 4.25519 17.7292 3.97255 17.6681 3.66699H15.8118C15.8882 4.01838 15.9379 4.30866 15.9608 4.53783C15.9837 4.76699 15.9952 4.98088 15.9952 5.17949C15.9952 5.74477 15.8768 6.21456 15.64 6.58887C15.4032 6.96317 15.1473 7.33366 14.8723 7.70033C14.5973 8.06699 14.3414 8.47185 14.1046 8.91491C13.8678 9.35796 13.7493 9.93088 13.7493 10.6337C13.7493 10.8475 13.7646 11.0614 13.7952 11.2753C13.8257 11.4892 13.8716 11.7031 13.9327 11.917H15.8118ZM12.1452 11.917C12.0688 11.6878 12.0115 11.4701 11.9733 11.2639C11.9351 11.0576 11.916 10.8323 11.916 10.5878C11.916 10.1295 12.0306 9.73227 12.2598 9.39616C12.4889 9.06005 12.7487 8.70102 13.0389 8.31908C13.3292 7.93713 13.5889 7.51317 13.8181 7.0472C14.0473 6.58123 14.1618 5.98158 14.1618 5.24824C14.1618 5.01908 14.1504 4.77463 14.1275 4.51491C14.1046 4.25519 14.0625 3.97255 14.0014 3.66699H12.1452C12.2216 4.01838 12.275 4.30866 12.3056 4.53783C12.3362 4.76699 12.3514 4.98088 12.3514 5.17949C12.3514 5.74477 12.233 6.21456 11.9962 6.58887C11.7594 6.96317 11.5035 7.33366 11.2285 7.70033C10.9535 8.06699 10.6976 8.47185 10.4608 8.91491C10.224 9.35796 10.1056 9.93088 10.1056 10.6337C10.1056 10.8475 10.1171 11.0614 10.14 11.2753C10.1629 11.4892 10.2049 11.7031 10.266 11.917H12.1452ZM8.47852 11.917C8.40213 11.6878 8.34483 11.4701 8.30664 11.2639C8.26845 11.0576 8.24935 10.8323 8.24935 10.5878C8.24935 10.1295 8.36393 9.73227 8.5931 9.39616C8.82227 9.06005 9.08199 8.70102 9.37226 8.31908C9.66254 7.93713 9.92227 7.51317 10.1514 7.0472C10.3806 6.58123 10.4952 5.98158 10.4952 5.24824C10.4952 5.01908 10.4837 4.77463 10.4608 4.51491C10.4379 4.25519 10.3959 3.97255 10.3348 3.66699H8.47852C8.5549 4.01838 8.60838 4.30866 8.63893 4.53783C8.66949 4.76699 8.68476 4.98088 8.68476 5.17949C8.68476 5.74477 8.56636 6.21456 8.32956 6.58887C8.09275 6.96317 7.83685 7.33366 7.56185 7.70033C7.28685 8.06699 7.03095 8.47185 6.79414 8.91491C6.55733 9.35796 6.43893 9.93088 6.43893 10.6337C6.43893 10.8475 6.45039 11.0614 6.47331 11.2753C6.49622 11.4892 6.53824 11.7031 6.59935 11.917H8.47852Z" fill="#D16D6A"/>
</svg>
