<svg width="12" height="14" viewBox="0 0 12 14" fill="none" xmlns="http://www.w3.org/2000/svg">
<path d="M6 14C5.16667 14 4.38611 13.8417 3.65833 13.525C2.93056 13.2083 2.29722 12.7806 1.75833 12.2417C1.21944 11.7028 0.791667 11.0694 0.475 10.3417C0.158333 9.61389 0 8.83333 0 8H1.33333C1.33333 9.3 1.78611 10.4028 2.69167 11.3083C3.59722 12.2139 4.7 12.6667 6 12.6667C7.3 12.6667 8.40278 12.2139 9.30833 11.3083C10.2139 10.4028 10.6667 9.3 10.6667 8C10.6667 6.7 10.2139 5.59722 9.30833 4.69167C8.40278 3.78611 7.3 3.33333 6 3.33333H5.9L6.93333 4.36667L6 5.33333L3.33333 2.66667L6 0L6.93333 0.966667L5.9 2H6C6.83333 2 7.61389 2.15833 8.34167 2.475C9.06944 2.79167 9.70278 3.21944 10.2417 3.75833C10.7806 4.29722 11.2083 4.93056 11.525 5.65833C11.8417 6.38611 12 7.16667 12 8C12 8.83333 11.8417 9.61389 11.525 10.3417C11.2083 11.0694 10.7806 11.7028 10.2417 12.2417C9.70278 12.7806 9.06944 13.2083 8.34167 13.525C7.61389 13.8417 6.83333 14 6 14Z" fill="#585858"/>
</svg>
