<svg width="112" height="70" viewBox="0 0 112 70" fill="none" xmlns="http://www.w3.org/2000/svg">
<mask id="path-1-inside-1_2275_4644" fill="white">
<path d="M100.727 68.9845C102.698 69.5127 104.739 68.3442 105.12 66.3391C106.318 60.0398 106.295 53.557 105.039 47.2455C103.543 39.7235 100.336 32.6465 95.6677 26.5619C90.9988 20.4774 84.9929 15.5484 78.1144 12.1564C71.236 8.76428 63.6694 7 56 7C48.3306 7 40.764 8.76428 33.8856 12.1564C27.0071 15.5484 21.0012 20.4774 16.3323 26.5619C11.6635 32.6465 8.45696 39.7235 6.96074 47.2455C5.7053 53.557 5.68224 60.0398 6.87993 66.3391C7.26116 68.3442 9.30191 69.5127 11.2734 68.9845V68.9845C13.2449 68.4562 14.398 66.4311 14.0425 64.4213C13.1229 59.2223 13.1757 53.8867 14.2099 48.6874C15.485 42.2774 18.2175 36.2465 22.1962 31.0614C26.1748 25.8763 31.293 21.676 37.1546 18.7853C43.0163 15.8947 49.4643 14.3912 56 14.3912C62.5357 14.3912 68.9837 15.8947 74.8454 18.7853C80.707 21.676 85.8252 25.8763 89.8038 31.0614C93.7825 36.2465 96.515 42.2774 97.7901 48.6874C98.8243 53.8867 98.8771 59.2223 97.9575 64.4213C97.602 66.4311 98.7551 68.4562 100.727 68.9845V68.9845Z"/>
</mask>
<path d="M100.727 68.9845C102.698 69.5127 104.739 68.3442 105.12 66.3391C106.318 60.0398 106.295 53.557 105.039 47.2455C103.543 39.7235 100.336 32.6465 95.6677 26.5619C90.9988 20.4774 84.9929 15.5484 78.1144 12.1564C71.236 8.76428 63.6694 7 56 7C48.3306 7 40.764 8.76428 33.8856 12.1564C27.0071 15.5484 21.0012 20.4774 16.3323 26.5619C11.6635 32.6465 8.45696 39.7235 6.96074 47.2455C5.7053 53.557 5.68224 60.0398 6.87993 66.3391C7.26116 68.3442 9.30191 69.5127 11.2734 68.9845V68.9845C13.2449 68.4562 14.398 66.4311 14.0425 64.4213C13.1229 59.2223 13.1757 53.8867 14.2099 48.6874C15.485 42.2774 18.2175 36.2465 22.1962 31.0614C26.1748 25.8763 31.293 21.676 37.1546 18.7853C43.0163 15.8947 49.4643 14.3912 56 14.3912C62.5357 14.3912 68.9837 15.8947 74.8454 18.7853C80.707 21.676 85.8252 25.8763 89.8038 31.0614C93.7825 36.2465 96.515 42.2774 97.7901 48.6874C98.8243 53.8867 98.8771 59.2223 97.9575 64.4213C97.602 66.4311 98.7551 68.4562 100.727 68.9845V68.9845Z" fill="white" stroke="#E7E7E7" stroke-width="12" mask="url(#path-1-inside-1_2275_4644)"/>
<mask id="path-2-inside-2_2275_4644" fill="white">
<path d="M102.342 57C104.362 57 106.014 55.3601 105.866 53.3452C105.437 47.4842 103.976 41.7349 101.543 36.3646C98.6058 29.8818 94.3183 24.1007 88.9673 19.408C83.6163 14.7153 77.325 11.219 70.5142 9.15298C63.7034 7.08695 56.5301 6.49877 49.4737 7.42776C42.4173 8.35675 35.6406 10.7815 29.5966 14.5399C23.5526 18.2983 18.3807 23.3037 14.4265 29.2215C10.4724 35.1393 7.8272 41.833 6.66783 48.8552C5.70744 54.6723 5.78496 60.6036 6.88697 66.3761C7.26582 68.3605 9.28563 69.5171 11.237 68.9942V68.9942C13.1884 68.4713 14.33 66.4668 13.9761 64.4778C13.1288 59.7163 13.0953 54.8362 13.8861 50.047C14.8758 44.0522 17.1339 38.3379 20.5095 33.286C23.8851 28.2341 28.3003 23.9611 33.4599 20.7526C38.6196 17.5441 44.4047 15.4742 50.4286 14.6811C56.4525 13.888 62.5763 14.3902 68.3905 16.1539C74.2048 17.9176 79.5755 20.9023 84.1436 24.9084C88.7116 28.9145 92.3718 33.8497 94.8794 39.384C96.8827 43.8054 98.1134 48.5278 98.5274 53.3464C98.7003 55.3593 100.322 57 102.342 57V57Z"/>
</mask>
<path d="M102.342 57C104.362 57 106.014 55.3601 105.866 53.3452C105.437 47.4842 103.976 41.7349 101.543 36.3646C98.6058 29.8818 94.3183 24.1007 88.9673 19.408C83.6163 14.7153 77.325 11.219 70.5142 9.15298C63.7034 7.08695 56.5301 6.49877 49.4737 7.42776C42.4173 8.35675 35.6406 10.7815 29.5966 14.5399C23.5526 18.2983 18.3807 23.3037 14.4265 29.2215C10.4724 35.1393 7.8272 41.833 6.66783 48.8552C5.70744 54.6723 5.78496 60.6036 6.88697 66.3761C7.26582 68.3605 9.28563 69.5171 11.237 68.9942V68.9942C13.1884 68.4713 14.33 66.4668 13.9761 64.4778C13.1288 59.7163 13.0953 54.8362 13.8861 50.047C14.8758 44.0522 17.1339 38.3379 20.5095 33.286C23.8851 28.2341 28.3003 23.9611 33.4599 20.7526C38.6196 17.5441 44.4047 15.4742 50.4286 14.6811C56.4525 13.888 62.5763 14.3902 68.3905 16.1539C74.2048 17.9176 79.5755 20.9023 84.1436 24.9084C88.7116 28.9145 92.3718 33.8497 94.8794 39.384C96.8827 43.8054 98.1134 48.5278 98.5274 53.3464C98.7003 55.3593 100.322 57 102.342 57V57Z" stroke="#784AFF" stroke-width="12" mask="url(#path-2-inside-2_2275_4644)"/>
<mask id="path-3-inside-3_2275_4644" fill="white">
<path d="M102.342 57C104.362 57 106.014 55.3601 105.866 53.3452C105.437 47.4842 103.976 41.7349 101.543 36.3646C98.6058 29.8818 94.3183 24.1007 88.9673 19.408C83.6163 14.7153 77.325 11.219 70.5142 9.15298C63.7034 7.08695 56.5301 6.49877 49.4737 7.42776C42.4173 8.35675 35.6406 10.7815 29.5966 14.5399C23.5526 18.2983 18.3807 23.3037 14.4265 29.2215C10.4724 35.1393 7.8272 41.833 6.66783 48.8552C5.70744 54.6723 5.78496 60.6036 6.88697 66.3761C7.26582 68.3605 9.28563 69.5171 11.237 68.9942V68.9942C13.1884 68.4713 14.33 66.4668 13.9761 64.4778C13.1288 59.7163 13.0953 54.8362 13.8861 50.047C14.8758 44.0522 17.1339 38.3379 20.5095 33.286C23.8851 28.2341 28.3003 23.9611 33.4599 20.7526C38.6196 17.5441 44.4047 15.4742 50.4286 14.6811C56.4525 13.888 62.5763 14.3902 68.3905 16.1539C74.2048 17.9176 79.5755 20.9023 84.1436 24.9084C88.7116 28.9145 92.3718 33.8497 94.8794 39.384C96.8827 43.8054 98.1134 48.5278 98.5274 53.3464C98.7003 55.3593 100.322 57 102.342 57V57Z"/>
</mask>
<path d="M102.342 57C104.362 57 106.014 55.3601 105.866 53.3452C105.437 47.4842 103.976 41.7349 101.543 36.3646C98.6058 29.8818 94.3183 24.1007 88.9673 19.408C83.6163 14.7153 77.325 11.219 70.5142 9.15298C63.7034 7.08695 56.5301 6.49877 49.4737 7.42776C42.4173 8.35675 35.6406 10.7815 29.5966 14.5399C23.5526 18.2983 18.3807 23.3037 14.4265 29.2215C10.4724 35.1393 7.8272 41.833 6.66783 48.8552C5.70744 54.6723 5.78496 60.6036 6.88697 66.3761C7.26582 68.3605 9.28563 69.5171 11.237 68.9942V68.9942C13.1884 68.4713 14.33 66.4668 13.9761 64.4778C13.1288 59.7163 13.0953 54.8362 13.8861 50.047C14.8758 44.0522 17.1339 38.3379 20.5095 33.286C23.8851 28.2341 28.3003 23.9611 33.4599 20.7526C38.6196 17.5441 44.4047 15.4742 50.4286 14.6811C56.4525 13.888 62.5763 14.3902 68.3905 16.1539C74.2048 17.9176 79.5755 20.9023 84.1436 24.9084C88.7116 28.9145 92.3718 33.8497 94.8794 39.384C96.8827 43.8054 98.1134 48.5278 98.5274 53.3464C98.7003 55.3593 100.322 57 102.342 57V57Z" stroke="#784AFF" stroke-width="12" mask="url(#path-3-inside-3_2275_4644)"/>
<circle cx="102" cy="60" r="7.5" fill="#784AFF" stroke="white" stroke-width="3"/>
</svg>
