<svg width="112" height="70" viewBox="0 0 112 70" fill="none" xmlns="http://www.w3.org/2000/svg">
<mask id="path-1-inside-1_2313_4523" fill="white">
<path d="M100.727 68.9845C102.698 69.5127 104.739 68.3442 105.12 66.3391C106.318 60.0398 106.295 53.557 105.039 47.2455C103.543 39.7235 100.336 32.6465 95.6677 26.5619C90.9988 20.4774 84.9929 15.5484 78.1144 12.1564C71.236 8.76428 63.6694 7 56 7C48.3306 7 40.764 8.76428 33.8856 12.1564C27.0071 15.5484 21.0012 20.4774 16.3323 26.5619C11.6635 32.6465 8.45696 39.7235 6.96074 47.2455C5.7053 53.557 5.68224 60.0398 6.87993 66.3391C7.26116 68.3442 9.30191 69.5127 11.2734 68.9845V68.9845C13.2449 68.4562 14.398 66.4311 14.0425 64.4213C13.1229 59.2223 13.1757 53.8867 14.2099 48.6874C15.485 42.2774 18.2175 36.2465 22.1962 31.0614C26.1748 25.8763 31.293 21.676 37.1546 18.7853C43.0163 15.8947 49.4643 14.3912 56 14.3912C62.5357 14.3912 68.9837 15.8947 74.8454 18.7853C80.707 21.676 85.8252 25.8763 89.8038 31.0614C93.7825 36.2465 96.515 42.2774 97.7901 48.6874C98.8243 53.8867 98.8771 59.2223 97.9575 64.4213C97.602 66.4311 98.7551 68.4562 100.727 68.9845V68.9845Z"/>
</mask>
<path d="M100.727 68.9845C102.698 69.5127 104.739 68.3442 105.12 66.3391C106.318 60.0398 106.295 53.557 105.039 47.2455C103.543 39.7235 100.336 32.6465 95.6677 26.5619C90.9988 20.4774 84.9929 15.5484 78.1144 12.1564C71.236 8.76428 63.6694 7 56 7C48.3306 7 40.764 8.76428 33.8856 12.1564C27.0071 15.5484 21.0012 20.4774 16.3323 26.5619C11.6635 32.6465 8.45696 39.7235 6.96074 47.2455C5.7053 53.557 5.68224 60.0398 6.87993 66.3391C7.26116 68.3442 9.30191 69.5127 11.2734 68.9845V68.9845C13.2449 68.4562 14.398 66.4311 14.0425 64.4213C13.1229 59.2223 13.1757 53.8867 14.2099 48.6874C15.485 42.2774 18.2175 36.2465 22.1962 31.0614C26.1748 25.8763 31.293 21.676 37.1546 18.7853C43.0163 15.8947 49.4643 14.3912 56 14.3912C62.5357 14.3912 68.9837 15.8947 74.8454 18.7853C80.707 21.676 85.8252 25.8763 89.8038 31.0614C93.7825 36.2465 96.515 42.2774 97.7901 48.6874C98.8243 53.8867 98.8771 59.2223 97.9575 64.4213C97.602 66.4311 98.7551 68.4562 100.727 68.9845V68.9845Z" fill="white" stroke="#E7E7E7" stroke-width="12" mask="url(#path-1-inside-1_2313_4523)"/>
<mask id="path-2-inside-2_2313_4523" fill="white">
<path d="M56 10.658C56 8.63773 54.3601 6.98608 52.3452 7.13374C45.9375 7.60336 39.6684 9.3046 33.8856 12.1564C27.0071 15.5484 21.0012 20.4774 16.3323 26.5619C11.6635 32.6465 8.45696 39.7235 6.96074 47.2455C5.70285 53.5693 5.68215 60.0652 6.88698 66.3761C7.26582 68.3605 9.28563 69.5171 11.237 68.9942V68.9942C13.1884 68.4713 14.33 66.4669 13.9761 64.4779C13.0469 59.256 13.0972 53.8957 14.1361 48.6728C15.4134 42.2514 18.1508 36.2098 22.1365 31.0156C26.1221 25.8213 31.2493 21.6136 37.1213 18.7178C41.8974 16.3625 47.062 14.9266 52.3465 14.4726C54.3593 14.2997 56 12.6782 56 10.658V10.658Z"/>
</mask>
<path d="M56 10.658C56 8.63773 54.3601 6.98608 52.3452 7.13374C45.9375 7.60336 39.6684 9.3046 33.8856 12.1564C27.0071 15.5484 21.0012 20.4774 16.3323 26.5619C11.6635 32.6465 8.45696 39.7235 6.96074 47.2455C5.70285 53.5693 5.68215 60.0652 6.88698 66.3761C7.26582 68.3605 9.28563 69.5171 11.237 68.9942V68.9942C13.1884 68.4713 14.33 66.4669 13.9761 64.4779C13.0469 59.256 13.0972 53.8957 14.1361 48.6728C15.4134 42.2514 18.1508 36.2098 22.1365 31.0156C26.1221 25.8213 31.2493 21.6136 37.1213 18.7178C41.8974 16.3625 47.062 14.9266 52.3465 14.4726C54.3593 14.2997 56 12.6782 56 10.658V10.658Z" stroke="#3BCA80" stroke-width="12" mask="url(#path-2-inside-2_2313_4523)"/>
<circle cx="56" cy="10" r="7.5" fill="#3BCA80" stroke="white" stroke-width="3"/>
</svg>
