<svg width="112" height="70" viewBox="0 0 112 70" fill="none" xmlns="http://www.w3.org/2000/svg">
<mask id="path-1-inside-1_2313_4623" fill="white">
<path d="M100.727 68.9845C102.698 69.5127 104.739 68.3442 105.12 66.3391C106.318 60.0398 106.295 53.557 105.039 47.2455C103.543 39.7235 100.336 32.6465 95.6677 26.5619C90.9988 20.4774 84.9929 15.5484 78.1144 12.1564C71.236 8.76428 63.6694 7 56 7C48.3306 7 40.764 8.76428 33.8856 12.1564C27.0071 15.5484 21.0012 20.4774 16.3323 26.5619C11.6635 32.6465 8.45696 39.7235 6.96074 47.2455C5.7053 53.557 5.68224 60.0398 6.87993 66.3391C7.26116 68.3442 9.30191 69.5127 11.2734 68.9845V68.9845C13.2449 68.4562 14.398 66.4311 14.0425 64.4213C13.1229 59.2223 13.1757 53.8867 14.2099 48.6874C15.485 42.2774 18.2175 36.2465 22.1962 31.0614C26.1748 25.8763 31.293 21.676 37.1546 18.7853C43.0163 15.8947 49.4643 14.3912 56 14.3912C62.5357 14.3912 68.9837 15.8947 74.8454 18.7853C80.707 21.676 85.8252 25.8763 89.8038 31.0614C93.7825 36.2465 96.515 42.2774 97.7901 48.6874C98.8243 53.8867 98.8771 59.2223 97.9575 64.4213C97.602 66.4311 98.7551 68.4562 100.727 68.9845V68.9845Z"/>
</mask>
<path d="M100.727 68.9845C102.698 69.5127 104.739 68.3442 105.12 66.3391C106.318 60.0398 106.295 53.557 105.039 47.2455C103.543 39.7235 100.336 32.6465 95.6677 26.5619C90.9988 20.4774 84.9929 15.5484 78.1144 12.1564C71.236 8.76428 63.6694 7 56 7C48.3306 7 40.764 8.76428 33.8856 12.1564C27.0071 15.5484 21.0012 20.4774 16.3323 26.5619C11.6635 32.6465 8.45696 39.7235 6.96074 47.2455C5.7053 53.557 5.68224 60.0398 6.87993 66.3391C7.26116 68.3442 9.30191 69.5127 11.2734 68.9845V68.9845C13.2449 68.4562 14.398 66.4311 14.0425 64.4213C13.1229 59.2223 13.1757 53.8867 14.2099 48.6874C15.485 42.2774 18.2175 36.2465 22.1962 31.0614C26.1748 25.8763 31.293 21.676 37.1546 18.7853C43.0163 15.8947 49.4643 14.3912 56 14.3912C62.5357 14.3912 68.9837 15.8947 74.8454 18.7853C80.707 21.676 85.8252 25.8763 89.8038 31.0614C93.7825 36.2465 96.515 42.2774 97.7901 48.6874C98.8243 53.8867 98.8771 59.2223 97.9575 64.4213C97.602 66.4311 98.7551 68.4562 100.727 68.9845V68.9845Z" fill="white" stroke="#E7E7E7" stroke-width="12" mask="url(#path-1-inside-1_2313_4623)"/>
<mask id="path-2-inside-2_2313_4623" fill="white">
<path d="M23.2312 24.2312C21.8027 22.8027 19.4752 22.7945 18.1549 24.3236C13.2381 30.018 9.65903 36.7617 7.70371 44.0591C5.74839 51.3564 5.47614 58.9861 6.88696 66.3761C7.2658 68.3605 9.28563 69.5171 11.237 68.9942V68.9942C13.1884 68.4713 14.33 66.4668 13.9761 64.4778C12.8828 58.3338 13.1475 52.0091 14.7704 45.9526C16.3932 39.896 19.3263 34.2863 23.3451 29.512C24.6461 27.9665 24.6598 25.6598 23.2312 24.2312V24.2312Z"/>
</mask>
<path d="M23.2312 24.2312C21.8027 22.8027 19.4752 22.7945 18.1549 24.3236C13.2381 30.018 9.65903 36.7617 7.70371 44.0591C5.74839 51.3564 5.47614 58.9861 6.88696 66.3761C7.2658 68.3605 9.28563 69.5171 11.237 68.9942V68.9942C13.1884 68.4713 14.33 66.4668 13.9761 64.4778C12.8828 58.3338 13.1475 52.0091 14.7704 45.9526C16.3932 39.896 19.3263 34.2863 23.3451 29.512C24.6461 27.9665 24.6598 25.6598 23.2312 24.2312V24.2312Z" stroke="#FFCF4F" stroke-width="12" mask="url(#path-2-inside-2_2313_4623)"/>
<circle cx="21" cy="26" r="7.5" fill="#FFCF4F" stroke="white" stroke-width="3"/>
</svg>
