<svg xmlns="http://www.w3.org/2000/svg" width="20" height="20" viewBox="0 0 20 20" fill="none">
    <path d="M5.5 8C4.80556 8 4.21528 7.75694 3.72917 7.27083C3.24306 6.78472 3 6.19444 3 5.5C3 4.79167 3.24306 4.19792 3.72917 3.71875C4.21528 3.23958 4.80556 3 5.5 3C6.20833 3 6.80208 3.23958 7.28125 3.71875C7.76042 4.19792 8 4.79167 8 5.5C8 6.19444 7.76042 6.78472 7.28125 7.27083C6.80208 7.75694 6.20833 8 5.5 8Z" fill="#784AFF"/>
    <path d="M2 12C2 10.3431 3.34315 9 5 9H6C7.65685 9 9 10.3431 9 12V17H2V12Z" fill="#784AFF"/>
    <path d="M17.8916 12C18.5288 12.0001 19.0035 12.5881 18.8691 13.2109L18.3262 15.7246C18.3117 15.7745 18.3012 15.8207 18.2939 15.8623C18.2818 15.932 18.3316 16 18.4023 16H19.2539C19.666 16 20 16.334 20 16.7461V17C20 17.5523 19.5523 18 19 18H1C0.447715 18 0 17.5523 0 17C0 16.4477 0.447715 16 1 16H11.1631C11.2338 15.9999 11.2836 15.932 11.2715 15.8623C11.2642 15.8207 11.2537 15.7745 11.2393 15.7246L10.6963 13.2109C10.5619 12.5881 11.0366 12 11.6738 12H17.8916ZM12.6523 14L12.9346 15.25C12.978 15.4833 13.0798 15.6665 13.2393 15.7998C13.3986 15.9331 13.5795 15.9999 13.7822 16H15.7822C15.9851 16 16.1668 15.9331 16.3262 15.7998C16.4855 15.6665 16.5864 15.4832 16.6299 15.25L16.9131 14H12.6523Z" fill="#784AFF"/>
</svg>