<svg width="20" height="20" viewBox="0 0 20 20" fill="none" xmlns="http://www.w3.org/2000/svg">
<path d="M5.5 2.5C6.33425 2.5 7.0572 2.78767 7.63477 3.36523C8.21233 3.9428 8.5 4.66575 8.5 5.5C8.5 6.32322 8.21082 7.04061 7.6377 7.62207C7.06067 8.20746 6.33654 8.5 5.5 8.5C4.67446 8.5 3.95692 8.20497 3.37598 7.62402C2.79503 7.04308 2.5 6.32554 2.5 5.5C2.5 4.66346 2.79254 3.93933 3.37793 3.3623C3.95939 2.78918 4.67678 2.5 5.5 2.5Z" fill="#784AFF" stroke="white"/>
<path d="M2 12C2 10.3431 3.34315 9 5 9H6C7.65685 9 9 10.3431 9 12V17H2V12Z" fill="#784AFF"/>
<path d="M1.73913 16H1C0.447715 16 0 16.4477 0 17C0 17.5523 0.447715 18 1 18H19C19.5523 18 20 17.5523 20 17V16.7461C20 16.334 19.666 16 19.2539 16H18.4023C18.3315 16 18.2814 15.9322 18.2935 15.8625C18.3007 15.8208 18.3116 15.775 18.3261 15.725L18.8689 13.2111C19.0034 12.5881 18.5287 12 17.8915 12H11.6738C11.0365 12 10.5618 12.5881 10.6963 13.2111L11.2391 15.725C11.2536 15.775 11.2645 15.8208 11.2717 15.8625C11.2839 15.9322 11.2337 16 11.163 16H3.47826H1.73913Z" fill="#784AFF"/>
<path d="M15.7825 16H13.7825C13.5796 16 13.3985 15.9333 13.2391 15.8C13.0796 15.6667 12.9782 15.4833 12.9347 15.25L12.6521 14H16.913L16.6304 15.25C16.5869 15.4833 16.4854 15.6667 16.326 15.8C16.1666 15.9333 15.9854 16 15.7825 16Z" fill="white"/>
</svg>
