<svg width="46" height="44" viewBox="0 0 46 44" fill="none" xmlns="http://www.w3.org/2000/svg">
<path d="M2.09068 32.6419C0.80224 31.942 1.91757e-07 30.5932 2.28723e-07 29.127L9.63055e-07 9.53674e-05L46 9.58518e-05L46 29.127C46 30.5932 45.1978 31.942 43.9093 32.6419L24.9093 42.9628C23.7186 43.6096 22.2814 43.6096 21.0907 42.9628L2.09068 32.6419Z" fill="#989898"/>
<mask id="mask0_2288_4586" style="mask-type:alpha" maskUnits="userSpaceOnUse" x="0" y="0" width="46" height="44">
<path d="M2.09068 32.6419C0.80224 31.942 1.91757e-07 30.5932 2.28723e-07 29.127L9.63055e-07 9.53674e-05L46 9.58518e-05L46 29.127C46 30.5932 45.1978 31.942 43.9093 32.6419L24.9093 42.9628C23.7186 43.6096 22.2814 43.6096 21.0907 42.9628L2.09068 32.6419Z" fill="#6A00FF"/>
</mask>
<g mask="url(#mask0_2288_4586)">
<circle opacity="0.15" cx="10" cy="31" r="21" fill="white"/>
<circle opacity="0.15" cx="37" cy="16" r="20" fill="white"/>
</g>
<circle cx="39.5" cy="6.5" r="2.5" fill="white"/>
</svg>
