<svg width="46" height="48" viewBox="0 0 46 48" fill="none" xmlns="http://www.w3.org/2000/svg">
<path d="M1.96079 36.0197C0.745334 35.2896 -3.2651e-08 33.9636 0 32.5314L6.492e-07 0H4L42 4.41979e-07H46V32.5314C46 33.9636 45.2547 35.2896 44.0392 36.0197L25.0392 47.4335C23.7818 48.1888 22.2182 48.1888 20.9608 47.4335L1.96079 36.0197Z" fill="#FFB900"/>
<mask id="mask0_2288_4594" style="mask-type:alpha" maskUnits="userSpaceOnUse" x="0" y="0" width="46" height="48">
<path d="M1.96079 36.0198C0.745333 35.2896 -3.2652e-08 33.9637 0 32.5314L6.49199e-07 0H4L42 4.42491e-07H46V32.5314C46 33.9636 45.2547 35.2896 44.0392 36.0198L25.0392 47.4335C23.7818 48.1888 22.2182 48.1888 20.9608 47.4335L1.96079 36.0198Z" fill="#FFB900"/>
</mask>
<g mask="url(#mask0_2288_4594)">
<path opacity="0.15" d="M33 32C33 43.598 23.598 53 12 53C0.40202 53 -9 43.598 -9 32C-9 20.402 0.40202 11 12 11C23.598 11 33 20.402 33 32Z" fill="white"/>
<path opacity="0.15" d="M57 16C57 27.0457 48.0457 36 37 36C25.9543 36 17 27.0457 17 16C17 4.9543 25.9543 -4 37 -4C48.0457 -4 57 4.9543 57 16Z" fill="white"/>
</g>
<circle cx="38.5" cy="8.5" r="2.5" fill="white"/>
</svg>
