<svg width="26" height="26" viewBox="0 0 26 26" fill="none" xmlns="http://www.w3.org/2000/svg">
<path d="M12.1836 2.88379C12.5821 2.32083 13.4179 2.32083 13.8164 2.88379L16.4541 6.60938C16.8347 7.14705 17.3817 7.54439 18.0107 7.74023L22.3691 9.09766C23.0275 9.30281 23.2853 10.0975 22.873 10.6504L20.1445 14.3096C19.7508 14.8377 19.5418 15.481 19.5498 16.1396L19.6064 20.7041C19.6149 21.3937 18.9394 21.885 18.2861 21.6641L13.9619 20.2002C13.338 19.989 12.662 19.989 12.0381 20.2002L7.71387 21.6641C7.06064 21.885 6.38506 21.3937 6.39355 20.7041L6.4502 16.1396C6.45824 15.481 6.24918 14.8377 5.85547 14.3096L3.12695 10.6504C2.71474 10.0975 2.97246 9.30281 3.63086 9.09766L7.98926 7.74023C8.61825 7.54439 9.16526 7.14705 9.5459 6.60938L12.1836 2.88379Z" stroke="#111111" stroke-width="2"/>
</svg>
