<svg width="22" height="22" viewBox="0 0 22 22" fill="none" xmlns="http://www.w3.org/2000/svg">
<path d="M3.30762 4.75H18.6924C19.5526 4.75004 20.25 5.44739 20.25 6.30762V15.2236C20.2497 16.0893 19.5435 16.7893 18.6777 16.7812L14.165 16.7393L13.8604 16.7363L13.6406 16.9463L10.8496 19.6055C10.6806 19.7666 10.4103 19.7515 10.2607 19.5723L8.12695 17.0088L7.89844 16.7354L7.54297 16.7393L3.32324 16.7803C2.45726 16.7887 1.75025 16.0886 1.75 15.2227V6.30762C1.75004 5.44739 2.44739 4.75004 3.30762 4.75Z" stroke="black" stroke-width="1.5"/>
<circle cx="6.38462" cy="10.6151" r="1.38462" fill="#24292E"/>
<circle cx="10.9998" cy="10.6151" r="1.38462" fill="#24292E"/>
<circle cx="15.6151" cy="10.6151" r="1.38462" fill="#24292E"/>
</svg>
