<svg width="26" height="28" viewBox="0 0 26 28" fill="none" xmlns="http://www.w3.org/2000/svg">
<path d="M1.10827 21.0115C0.421276 20.5856 -1.84549e-08 19.8121 0 18.9767L3.66939e-07 0H2.26087L23.7391 2.57821e-07H26V18.9767C26 19.8121 25.5787 20.5856 24.8917 21.0115L14.1526 27.6695C13.4419 28.1102 12.5581 28.1102 11.8474 27.6695L1.10827 21.0115Z" fill="#FFB900"/>
<mask id="mask0_2252_2719" style="mask-type:alpha" maskUnits="userSpaceOnUse" x="0" y="0" width="26" height="28">
<path d="M1.10827 21.0116C0.421275 20.5856 -1.84555e-08 19.8122 0 18.9767L3.66939e-07 0H2.26087L23.7391 2.58119e-07H26V18.9767C26 19.8121 25.5787 20.5856 24.8917 21.0116L14.1526 27.6695C13.4419 28.1102 12.5581 28.1102 11.8474 27.6695L1.10827 21.0116Z" fill="#FFB900"/>
</mask>
<g mask="url(#mask0_2252_2719)">
<path opacity="0.15" d="M19 18C19 24.6274 13.6274 30 7 30C0.372583 30 -5 24.6274 -5 18C-5 11.3726 0.372583 6 7 6C13.6274 6 19 11.3726 19 18Z" fill="white"/>
<path opacity="0.15" d="M34 8C34 14.6274 28.6274 20 22 20C15.3726 20 10 14.6274 10 8C10 1.37258 15.3726 -4 22 -4C28.6274 -4 34 1.37258 34 8Z" fill="white"/>
</g>
<circle cx="21.5" cy="4.5" r="1.5" fill="white"/>
</svg>
