<svg width="14" height="16" viewBox="0 0 14 16" fill="none" xmlns="http://www.w3.org/2000/svg">
<g clip-path="url(#clip0_2221_3542)">
<path fill-rule="evenodd" clip-rule="evenodd" d="M10.808 3.14689C11.3081 3.63979 11.705 4.22498 11.9756 4.86905C12.2463 5.51311 12.3856 6.20344 12.3856 6.90059C12.3856 7.59774 12.2463 8.28806 11.9756 8.93213C11.705 9.57619 11.3081 10.1614 10.808 10.6543L7 14.4058L3.192 10.6532C2.69193 10.1603 2.29525 9.57507 2.02461 8.93102C1.75397 8.28695 1.61467 7.59665 1.61467 6.89953C1.61467 6.2024 1.75397 5.5121 2.02461 4.86804C2.29525 4.22398 2.69193 3.63877 3.192 3.14583C3.69208 2.65288 4.28575 2.26187 4.93912 1.99509C5.5925 1.7283 6.29279 1.591 7 1.591C7.70721 1.591 8.40749 1.7283 9.06087 1.99509C9.71427 2.26187 10.3079 2.65288 10.808 3.14583V3.14689ZM11.9495 11.7795C12.9286 10.8146 13.5953 9.58507 13.8655 8.24655C14.1356 6.90803 13.997 5.5206 13.4672 4.25972C12.9374 2.99885 12.0402 1.92116 10.8891 1.16292C9.73786 0.404703 8.38449 0 7 0C5.61551 0 4.2621 0.404703 3.11095 1.16292C1.95979 1.92116 1.06259 2.99885 0.532786 4.25972C0.00299371 5.5206 -0.135595 6.90803 0.134551 8.24655C0.404697 9.58507 1.07144 10.8146 2.05046 11.7795L5.85738 15.5332C6.0074 15.6812 6.18552 15.7986 6.38159 15.8787C6.57764 15.9588 6.78778 16 7 16C7.21223 16 7.42237 15.9588 7.61842 15.8787C7.81448 15.7986 7.9926 15.6812 8.14261 15.5332L11.9495 11.7795ZM7 9.02372C7.57124 9.02372 8.11907 8.80003 8.523 8.40187C8.92692 8.00371 9.15384 7.46368 9.15384 6.90059C9.15384 6.33749 8.92692 5.79748 8.523 5.3993C8.11907 5.00114 7.57124 4.77746 7 4.77746C6.42877 4.77746 5.88092 5.00114 5.477 5.3993C5.07308 5.79748 4.84615 6.33749 4.84615 6.90059C4.84615 7.46368 5.07308 8.00371 5.477 8.40187C5.88092 8.80003 6.42877 9.02372 7 9.02372Z" fill="#919191"/>
</g>
<defs>
<clipPath id="clip0_2221_3542">
<rect width="14" height="16" fill="white"/>
</clipPath>
</defs>
</svg>
