<svg width="32" height="32" viewBox="0 0 32 32" fill="none" xmlns="http://www.w3.org/2000/svg">
<ellipse cx="16.0001" cy="16" rx="12.3077" ry="12.3077" fill="white"/>
<path fill-rule="evenodd" clip-rule="evenodd" d="M4.68629 27.3137C-1.5621 21.0653 -1.5621 10.9347 4.68629 4.68629C10.9347 -1.5621 21.0653 -1.5621 27.3137 4.68629C33.5621 10.9347 33.5621 21.0653 27.3137 27.3137C21.0653 33.5621 10.9347 33.5621 4.68629 27.3137ZM12.0606 9.93934C11.4749 9.35355 10.5251 9.35355 9.93933 9.93934C9.35354 10.5251 9.35354 11.4749 9.93932 12.0607L13.8787 16L9.93933 19.9393C9.35354 20.5251 9.35354 21.4749 9.93933 22.0607C10.5251 22.6465 11.4749 22.6465 12.0606 22.0607L16 18.1213L19.9393 22.0607C20.5251 22.6464 21.4749 22.6464 22.0606 22.0607C22.6464 21.4749 22.6464 20.5251 22.0606 19.9393L18.1213 16L22.0606 12.0607C22.6464 11.4749 22.6464 10.5251 22.0606 9.93935C21.4749 9.35357 20.5251 9.35357 19.9393 9.93935L16 13.8787L12.0606 9.93934Z" fill="#24292E"/>
</svg>
