<svg width="81" height="92" viewBox="0 0 81 92" fill="none" xmlns="http://www.w3.org/2000/svg">
<path d="M45 35L35 31.5L27.25 34.5C26.6944 34.7222 26.1806 34.6597 25.7083 34.3125C25.2361 33.9653 25 33.5 25 32.9167V9.58333C25 9.22222 25.1042 8.90278 25.3125 8.625C25.5208 8.34722 25.8056 8.13889 26.1667 8L35 5L45 8.5L52.75 5.5C53.3056 5.27778 53.8194 5.34028 54.2917 5.6875C54.7639 6.03472 55 6.5 55 7.08333V30.4167C55 30.7778 54.8958 31.0972 54.6875 31.375C54.4792 31.6528 54.1944 31.8611 53.8333 32L45 35ZM43.3333 30.9167V11.4167L36.6667 9.08333V28.5833L43.3333 30.9167ZM46.6667 30.9167L51.6667 29.25V9.5L46.6667 11.4167V30.9167ZM28.3333 30.5L33.3333 28.5833V9.08333L28.3333 10.75V30.5Z" fill="#585858"/>
<path d="M6.62604 50.505H8.59804V50.981C8.59804 51.525 8.50737 52.052 8.32604 52.562C8.15604 53.072 7.89537 53.548 7.54404 53.99C7.19271 54.4207 6.76204 54.8117 6.25204 55.163C5.75337 55.503 5.17537 55.792 4.51804 56.03C3.86071 56.268 3.12971 56.438 2.32504 56.54L1.49204 54.789C2.19471 54.6983 2.81804 54.5623 3.36204 54.381C3.91737 54.1883 4.39904 53.9673 4.80704 53.718C5.21504 53.4573 5.55504 53.1797 5.82704 52.885C6.09904 52.5903 6.29737 52.2787 6.42204 51.95C6.55804 51.6213 6.62604 51.2983 6.62604 50.981V50.505ZM7.28904 50.505H9.24404V50.981C9.24404 51.2983 9.30637 51.6213 9.43104 51.95C9.56704 52.2787 9.77104 52.5903 10.043 52.885C10.315 53.1797 10.655 53.4573 11.063 53.718C11.4824 53.9673 11.964 54.1883 12.508 54.381C13.052 54.5623 13.6754 54.6983 14.378 54.789L13.545 56.54C12.7404 56.438 12.0094 56.268 11.352 56.03C10.6947 55.792 10.111 55.503 9.60104 55.163C9.10237 54.8117 8.67737 54.4207 8.32604 53.99C7.98604 53.548 7.72537 53.072 7.54404 52.562C7.37404 52.052 7.28904 51.525 7.28904 50.981V50.505ZM6.74504 58.75H9.00604V64.513H6.74504V58.75ZM0.81204 57.441H15.058V59.26H0.81204V57.441ZM2.07004 49.57H13.749V51.355H2.07004V49.57ZM23.9137 51.389H27.9257V53.191H23.9137V51.389ZM23.9137 54.772H27.9767V56.574H23.9137V54.772ZM27.0927 48.771H29.3707V60.382H27.0927V48.771ZM18.9497 62.422H29.7107V64.241H18.9497V62.422ZM18.9497 59.243H21.2107V63.459H18.9497V59.243ZM16.8417 49.808H19.0857V52.188H22.0777V49.808H24.3047V57.934H16.8417V49.808ZM19.0857 53.922V56.132H22.0777V53.922H19.0857ZM42.2819 49.06C43.4493 49.06 44.4579 49.1847 45.3079 49.434C46.1579 49.672 46.8153 50.0233 47.2799 50.488C47.7559 50.9413 47.9939 51.4853 47.9939 52.12C47.9939 52.7547 47.7559 53.3043 47.2799 53.769C46.8153 54.2223 46.1579 54.5737 45.3079 54.823C44.4579 55.0723 43.4493 55.197 42.2819 55.197C41.1373 55.197 40.1343 55.0723 39.2729 54.823C38.4116 54.5737 37.7486 54.2223 37.2839 53.769C36.8193 53.3043 36.5869 52.7547 36.5869 52.12C36.5869 51.4853 36.8193 50.9413 37.2839 50.488C37.7486 50.0233 38.4116 49.672 39.2729 49.434C40.1343 49.1847 41.1373 49.06 42.2819 49.06ZM42.2819 50.794C41.5793 50.794 40.9729 50.845 40.4629 50.947C39.9529 51.0377 39.5676 51.1793 39.3069 51.372C39.0576 51.5647 38.9329 51.814 38.9329 52.12C38.9329 52.4147 39.0576 52.664 39.3069 52.868C39.5676 53.0607 39.9529 53.208 40.4629 53.31C40.9729 53.4007 41.5793 53.446 42.2819 53.446C43.0073 53.446 43.6193 53.4007 44.1179 53.31C44.6166 53.208 44.9963 53.0607 45.2569 52.868C45.5176 52.664 45.6479 52.4147 45.6479 52.12C45.6479 51.814 45.5176 51.5647 45.2569 51.372C44.9963 51.1793 44.6166 51.0377 44.1179 50.947C43.6193 50.845 43.0073 50.794 42.2819 50.794ZM36.8249 58.971H47.7049V64.343H36.8249V58.971ZM45.4949 60.756H39.0349V62.558H45.4949V60.756ZM35.1589 56.098H49.4049V57.866H35.1589V56.098ZM54.2486 49.485H56.1186V50.981C56.1186 51.967 55.9543 52.9133 55.6256 53.82C55.297 54.7153 54.7983 55.4973 54.1296 56.166C53.461 56.8347 52.6166 57.3333 51.5966 57.662L50.4916 55.86C51.149 55.656 51.7156 55.384 52.1916 55.044C52.6676 54.6927 53.053 54.3017 53.3476 53.871C53.6536 53.429 53.8803 52.9643 54.0276 52.477C54.175 51.9783 54.2486 51.4797 54.2486 50.981V49.485ZM54.7076 49.485H56.5436V50.981C56.5436 51.4683 56.6173 51.95 56.7646 52.426C56.912 52.8907 57.1273 53.3327 57.4106 53.752C57.7053 54.16 58.085 54.5227 58.5496 54.84C59.0143 55.1573 59.5696 55.4123 60.2156 55.605L59.1106 57.39C58.102 57.0727 57.269 56.5967 56.6116 55.962C55.9656 55.3273 55.484 54.585 55.1666 53.735C54.8606 52.8737 54.7076 51.9557 54.7076 50.981V49.485ZM52.9056 58.835H63.6326V64.513H61.3716V60.637H52.9056V58.835ZM61.3716 48.771H63.6326V58.155H61.3716V48.771ZM74.4603 52.375H77.4353V54.211H74.4603V52.375ZM76.8403 48.771H79.1183V57.866H76.8403V48.771ZM68.6123 58.495H79.1183V64.343H68.6123V58.495ZM76.8913 60.263H70.8393V62.558H76.8913V60.263ZM69.5813 50.216H71.4173V51.219C71.4173 52.205 71.2586 53.1457 70.9413 54.041C70.624 54.9363 70.1366 55.724 69.4793 56.404C68.8333 57.0727 68.0003 57.5713 66.9803 57.9L65.8583 56.115C66.5043 55.8997 67.0596 55.622 67.5243 55.282C68.0003 54.9307 68.3856 54.534 68.6803 54.092C68.9863 53.65 69.213 53.1853 69.3603 52.698C69.5076 52.2107 69.5813 51.7177 69.5813 51.219V50.216ZM70.0573 50.216H71.8593V51.202C71.8593 51.814 71.984 52.426 72.2333 53.038C72.4826 53.6387 72.868 54.1827 73.3893 54.67C73.922 55.1573 74.602 55.5427 75.4293 55.826L74.3243 57.594C73.3496 57.2653 72.545 56.778 71.9103 56.132C71.287 55.486 70.8223 54.738 70.5163 53.888C70.2103 53.038 70.0573 52.1427 70.0573 51.202V50.216ZM66.4703 49.553H74.9363V51.355H66.4703V49.553ZM18.742 82.886H20.017C20.9463 82.886 21.7793 82.8747 22.516 82.852C23.264 82.8293 23.9723 82.7897 24.641 82.733C25.3097 82.665 25.984 82.5687 26.664 82.444L26.885 84.28C26.171 84.4047 25.4683 84.501 24.777 84.569C24.097 84.637 23.3717 84.6823 22.601 84.705C21.8417 84.7277 20.9803 84.739 20.017 84.739H18.742V82.886ZM18.742 74.148H25.865V75.95H21.003V83.6H18.742V74.148ZM28.942 72.754H31.203V88.547H28.942V72.754ZM25.1 78.194H29.911V80.03H25.1V78.194ZM33.3777 84.841H47.6407V86.677H33.3777V84.841ZM39.3617 81.475H41.6057V85.283H39.3617V81.475ZM34.8737 73.757H37.1347V76.188H43.8327V73.757H46.0767V81.951H34.8737V73.757ZM37.1347 77.956V80.149H43.8327V77.956H37.1347ZM59.6073 72.754H61.8683V88.496H59.6073V72.754ZM54.9663 74.386H57.1933C57.1933 75.5873 57.0743 76.7377 56.8363 77.837C56.6097 78.925 56.2243 79.9507 55.6803 80.914C55.1477 81.8773 54.411 82.7727 53.4703 83.6C52.541 84.416 51.3793 85.164 49.9853 85.844L48.7953 84.059C50.314 83.3223 51.521 82.512 52.4163 81.628C53.323 80.7327 53.9747 79.724 54.3713 78.602C54.768 77.4687 54.9663 76.1993 54.9663 74.794V74.386ZM49.6453 74.386H56.0203V76.188H49.6453V74.386Z" fill="#585858"/>
</svg>
