<svg width="219" height="84" viewBox="0 0 219 84" fill="none" xmlns="http://www.w3.org/2000/svg">
<path d="M23.5727 75.612H24.6227C25.388 75.612 26.074 75.6027 26.6807 75.584C27.2967 75.5653 27.88 75.5327 28.4307 75.486C28.9814 75.43 29.5367 75.3507 30.0967 75.248L30.2787 76.76C29.6907 76.8627 29.112 76.942 28.5427 76.998C27.9827 77.054 27.3854 77.0913 26.7507 77.11C26.1254 77.1287 25.416 77.138 24.6227 77.138H23.5727V75.612ZM23.5727 68.416H29.4387V69.9H25.4347V76.2H23.5727V68.416ZM31.9727 67.268H33.8347V80.274H31.9727V67.268ZM28.8087 71.748H32.7707V73.26H28.8087V71.748ZM43.4875 71.146H45.3495V72.938H43.4875V71.146ZM43.1655 68.192H44.7755V68.528C44.7755 68.8733 44.7055 69.2047 44.5655 69.522C44.4255 69.8393 44.2155 70.1333 43.9355 70.404C43.6648 70.6653 43.3195 70.8987 42.8995 71.104C42.4888 71.3093 42.0081 71.4773 41.4575 71.608C40.9161 71.7387 40.3141 71.8273 39.6515 71.874L39.0775 70.474C39.6468 70.446 40.1508 70.39 40.5895 70.306C41.0375 70.2127 41.4201 70.1007 41.7375 69.97C42.0641 69.8393 42.3301 69.6993 42.5355 69.55C42.7501 69.3913 42.9088 69.2233 43.0115 69.046C43.1141 68.8687 43.1655 68.696 43.1655 68.528V68.192ZM44.1035 68.192H45.7135V68.528C45.7135 68.696 45.7648 68.8687 45.8675 69.046C45.9701 69.2233 46.1241 69.3913 46.3295 69.55C46.5441 69.6993 46.8101 69.8393 47.1275 69.97C47.4541 70.1007 47.8368 70.2127 48.2755 70.306C48.7235 70.39 49.2368 70.446 49.8155 70.474L49.2415 71.874C48.5695 71.8273 47.9581 71.7387 47.4075 71.608C46.8661 71.4773 46.3901 71.314 45.9795 71.118C45.5688 70.9127 45.2235 70.6793 44.9435 70.418C44.6635 70.1473 44.4535 69.8533 44.3135 69.536C44.1735 69.2187 44.1035 68.8827 44.1035 68.528V68.192ZM39.6515 67.59H49.2555V69.004H39.6515V67.59ZM39.6375 75.094H49.2275V76.494H39.6375V75.094ZM38.5875 72.322H50.3195V73.778H38.5875V72.322ZM44.4115 76.858C45.6715 76.858 46.6468 77.0073 47.3375 77.306C48.0281 77.5953 48.3735 78.0153 48.3735 78.566C48.3735 79.126 48.0281 79.5507 47.3375 79.84C46.6468 80.1293 45.6715 80.274 44.4115 80.274C43.1608 80.274 42.1901 80.1293 41.4995 79.84C40.8088 79.5507 40.4635 79.126 40.4635 78.566C40.4635 78.0153 40.8088 77.5953 41.4995 77.306C42.1901 77.0073 43.1608 76.858 44.4115 76.858ZM44.4115 78.09C43.7395 78.09 43.2355 78.1273 42.8995 78.202C42.5635 78.2673 42.3955 78.3887 42.3955 78.566C42.3955 78.7433 42.5635 78.8693 42.8995 78.944C43.2355 79.0187 43.7395 79.056 44.4115 79.056C45.0928 79.056 45.6015 79.0187 45.9375 78.944C46.2828 78.8693 46.4555 78.7433 46.4555 78.566C46.4555 78.3887 46.2828 78.2673 45.9375 78.202C45.6015 78.1273 45.0928 78.09 44.4115 78.09ZM43.5015 74.184H45.3495V75.92H43.5015V74.184ZM51.2424 73.89H62.9744V75.36H51.2424V73.89ZM52.6704 78.524H61.6584V80.022H52.6704V78.524ZM52.6704 76.228H54.5324V79H52.6704V76.228ZM57.1084 67.66C58.0511 67.66 58.8724 67.7673 59.5724 67.982C60.2817 68.1967 60.8324 68.5047 61.2244 68.906C61.6164 69.3073 61.8124 69.7787 61.8124 70.32C61.8124 70.8707 61.6164 71.3467 61.2244 71.748C60.8324 72.1493 60.2817 72.4573 59.5724 72.672C58.8724 72.8867 58.0511 72.994 57.1084 72.994C56.1751 72.994 55.3537 72.8867 54.6444 72.672C53.9444 72.4573 53.3984 72.1493 53.0064 71.748C52.6144 71.3467 52.4184 70.8707 52.4184 70.32C52.4184 69.7787 52.6144 69.3073 53.0064 68.906C53.3984 68.5047 53.9444 68.1967 54.6444 67.982C55.3537 67.7673 56.1751 67.66 57.1084 67.66ZM57.1084 69.13C56.5391 69.13 56.0444 69.1767 55.6244 69.27C55.2044 69.3633 54.8871 69.4987 54.6724 69.676C54.4577 69.844 54.3504 70.0587 54.3504 70.32C54.3504 70.5813 54.4577 70.8007 54.6724 70.978C54.8871 71.1553 55.2044 71.2907 55.6244 71.384C56.0444 71.4773 56.5391 71.524 57.1084 71.524C57.6964 71.524 58.1957 71.4773 58.6064 71.384C59.0171 71.2907 59.3297 71.1553 59.5444 70.978C59.7684 70.8007 59.8804 70.5813 59.8804 70.32C59.8804 70.0587 59.7684 69.844 59.5444 69.676C59.3297 69.4987 59.0171 69.3633 58.6064 69.27C58.1957 69.1767 57.6964 69.13 57.1084 69.13ZM67.2512 68.164H73.3972V74.156H67.2512V68.164ZM71.5492 69.634H69.0852V72.686H71.5492V69.634ZM75.2172 67.268H77.0792V75.822H75.2172V67.268ZM76.5752 70.502H78.8012V72.028H76.5752V70.502ZM72.0252 75.234H73.6212V75.556C73.6212 76.1347 73.5138 76.6807 73.2992 77.194C73.0845 77.698 72.7672 78.1553 72.3472 78.566C71.9365 78.9673 71.4232 79.308 70.8072 79.588C70.1912 79.868 69.4865 80.0733 68.6932 80.204L67.9792 78.748C68.6792 78.6547 69.2812 78.5007 69.7852 78.286C70.2892 78.0713 70.7092 77.8193 71.0452 77.53C71.3812 77.2407 71.6285 76.928 71.7872 76.592C71.9458 76.2467 72.0252 75.9013 72.0252 75.556V75.234ZM72.3052 75.234H73.8872V75.556C73.8872 75.9013 73.9665 76.2467 74.1252 76.592C74.2932 76.928 74.5405 77.2407 74.8672 77.53C75.2032 77.8193 75.6232 78.0713 76.1272 78.286C76.6405 78.5007 77.2425 78.6547 77.9332 78.748L77.2332 80.204C76.4398 80.0733 75.7352 79.868 75.1192 79.588C74.5032 79.308 73.9852 78.9673 73.5652 78.566C73.1545 78.1553 72.8418 77.698 72.6272 77.194C72.4125 76.6807 72.3052 76.1347 72.3052 75.556V75.234ZM82.6921 68.388H84.2181V69.186C84.2181 69.9607 84.0827 70.698 83.8121 71.398C83.5507 72.098 83.1447 72.7047 82.5941 73.218C82.0527 73.7313 81.3621 74.1187 80.5221 74.38L79.5981 72.924C80.1394 72.7653 80.6014 72.5553 80.9841 72.294C81.3761 72.0233 81.6981 71.7247 81.9501 71.398C82.2021 71.062 82.3887 70.7073 82.5101 70.334C82.6314 69.9513 82.6921 69.5687 82.6921 69.186V68.388ZM83.0841 68.388H84.5961V69.186C84.5961 69.55 84.6567 69.9093 84.7781 70.264C84.8994 70.6093 85.0814 70.9407 85.3241 71.258C85.5761 71.5753 85.8934 71.86 86.2761 72.112C86.6587 72.3547 87.1161 72.5553 87.6481 72.714L86.7241 74.156C85.9121 73.9133 85.2354 73.5493 84.6941 73.064C84.1527 72.5693 83.7467 71.986 83.4761 71.314C83.2147 70.642 83.0841 69.9327 83.0841 69.186V68.388ZM80.1021 67.968H87.1581V69.438H80.1021V67.968ZM88.4601 67.282H90.3221V74.31H88.4601V67.282ZM81.7121 74.87H83.5461V76.046H88.4741V74.87H90.3221V80.106H81.7121V74.87ZM83.5461 77.474V78.608H88.4741V77.474H83.5461ZM98.091 67.45C99.5656 67.45 100.714 67.6413 101.535 68.024C102.366 68.4067 102.781 68.9573 102.781 69.676C102.781 70.3853 102.366 70.9313 101.535 71.314C100.714 71.6967 99.5656 71.888 98.091 71.888C96.607 71.888 95.4496 71.6967 94.619 71.314C93.7976 70.9313 93.387 70.3853 93.387 69.676C93.387 68.9573 93.7976 68.4067 94.619 68.024C95.4496 67.6413 96.607 67.45 98.091 67.45ZM98.077 68.822C97.461 68.822 96.9476 68.8547 96.537 68.92C96.1263 68.976 95.8183 69.0693 95.613 69.2C95.417 69.3213 95.319 69.48 95.319 69.676C95.319 69.872 95.417 70.0353 95.613 70.166C95.8183 70.2873 96.1263 70.376 96.537 70.432C96.9476 70.488 97.461 70.516 98.077 70.516C98.7023 70.516 99.2203 70.488 99.631 70.432C100.042 70.376 100.345 70.2873 100.541 70.166C100.737 70.0353 100.835 69.872 100.835 69.676C100.835 69.48 100.737 69.3213 100.541 69.2C100.345 69.0693 100.042 68.976 99.631 68.92C99.2203 68.8547 98.7023 68.822 98.077 68.822ZM92.211 72.49H103.943V73.96H92.211V72.49ZM93.555 74.688H102.515V78.006H95.417V79.154H93.569V76.718H100.681V76.06H93.555V74.688ZM93.569 78.748H102.865V80.162H93.569V78.748ZM110.754 69.424H112.266V69.9C112.266 70.628 112.13 71.3187 111.86 71.972C111.598 72.616 111.197 73.176 110.656 73.652C110.114 74.128 109.428 74.478 108.598 74.702L107.744 73.246C108.453 73.0593 109.027 72.7933 109.466 72.448C109.914 72.1027 110.24 71.7107 110.446 71.272C110.651 70.824 110.754 70.3667 110.754 69.9V69.424ZM111.104 69.424H112.616V69.9C112.616 70.3293 112.718 70.754 112.924 71.174C113.138 71.5847 113.465 71.9533 113.904 72.28C114.342 72.6067 114.907 72.8587 115.598 73.036L114.772 74.478C113.941 74.2633 113.255 73.932 112.714 73.484C112.172 73.0267 111.766 72.49 111.496 71.874C111.234 71.258 111.104 70.6 111.104 69.9V69.424ZM108.206 68.514H115.178V69.97H108.206V68.514ZM110.754 67.226H112.616V69.2H110.754V67.226ZM116.186 67.282H118.048V74.66H116.186V67.282ZM117.544 70.18H119.77V71.706H117.544V70.18ZM112.882 75.836H114.464V76.144C114.464 76.6387 114.361 77.11 114.156 77.558C113.95 78.006 113.642 78.412 113.232 78.776C112.821 79.1307 112.317 79.4293 111.72 79.672C111.122 79.9147 110.432 80.092 109.648 80.204L108.976 78.79C109.648 78.706 110.231 78.5753 110.726 78.398C111.22 78.2207 111.626 78.0107 111.944 77.768C112.261 77.5253 112.494 77.264 112.644 76.984C112.802 76.6947 112.882 76.4147 112.882 76.144V75.836ZM113.302 75.836H114.87V76.144C114.87 76.4147 114.949 76.69 115.108 76.97C115.266 77.2407 115.504 77.502 115.822 77.754C116.148 77.9967 116.554 78.2113 117.04 78.398C117.525 78.5847 118.099 78.72 118.762 78.804L118.104 80.218C117.32 80.1153 116.629 79.938 116.032 79.686C115.434 79.434 114.93 79.126 114.52 78.762C114.118 78.398 113.815 77.992 113.61 77.544C113.404 77.096 113.302 76.6293 113.302 76.144V75.836ZM109.536 75.206H118.216V76.676H109.536V75.206ZM121.729 68.374H129.933V69.858H121.729V68.374ZM120.525 77.166H132.257V78.678H120.525V77.166ZM124.669 72.714H126.545V77.922H124.669V72.714ZM129.261 68.374H131.137V69.606C131.137 70.1473 131.127 70.7213 131.109 71.328C131.099 71.9347 131.057 72.6067 130.983 73.344C130.917 74.0813 130.796 74.9073 130.619 75.822L128.757 75.626C129.018 74.3287 129.167 73.1993 129.205 72.238C129.242 71.2673 129.261 70.39 129.261 69.606V68.374ZM136.106 75.15H137.506V75.584C137.506 76.2373 137.403 76.858 137.198 77.446C136.992 78.034 136.675 78.552 136.246 79C135.826 79.4573 135.275 79.8073 134.594 80.05L133.698 78.692C134.267 78.496 134.729 78.2347 135.084 77.908C135.438 77.5813 135.695 77.2173 135.854 76.816C136.022 76.4053 136.106 75.9947 136.106 75.584V75.15ZM136.568 75.15H137.898V75.584C137.898 75.9947 137.972 76.41 138.122 76.83C138.28 77.2407 138.518 77.6187 138.836 77.964C139.162 78.3093 139.592 78.5893 140.124 78.804L139.368 80.19C138.686 79.9287 138.14 79.5553 137.73 79.07C137.319 78.594 137.02 78.0527 136.834 77.446C136.656 76.83 136.568 76.2093 136.568 75.584V75.15ZM140.824 75.15H142.154V75.584C142.154 76.1813 142.06 76.7833 141.874 77.39C141.696 77.9967 141.402 78.5473 140.992 79.042C140.59 79.5367 140.049 79.9193 139.368 80.19L138.612 78.804C139.134 78.5707 139.559 78.2767 139.886 77.922C140.212 77.558 140.45 77.1753 140.6 76.774C140.749 76.3633 140.824 75.9667 140.824 75.584V75.15ZM141.258 75.15H142.658V75.584C142.658 76.0227 142.737 76.4473 142.896 76.858C143.064 77.2687 143.325 77.6327 143.68 77.95C144.034 78.2673 144.496 78.5147 145.066 78.692L144.17 80.05C143.488 79.8167 142.933 79.476 142.504 79.028C142.074 78.5893 141.757 78.076 141.552 77.488C141.356 76.8907 141.258 76.256 141.258 75.584V75.15ZM142.098 67.282H143.96V74.618H142.098V67.282ZM136.904 67.94C137.576 67.94 138.178 68.0753 138.71 68.346C139.242 68.6073 139.662 68.9713 139.97 69.438C140.278 69.9047 140.432 70.4413 140.432 71.048C140.432 71.6547 140.278 72.1913 139.97 72.658C139.662 73.1247 139.242 73.4933 138.71 73.764C138.178 74.0253 137.576 74.156 136.904 74.156C136.232 74.156 135.63 74.0253 135.098 73.764C134.566 73.4933 134.146 73.1247 133.838 72.658C133.53 72.1913 133.376 71.6547 133.376 71.048C133.376 70.4413 133.53 69.9047 133.838 69.438C134.146 68.9713 134.566 68.6073 135.098 68.346C135.63 68.0753 136.232 67.94 136.904 67.94ZM136.904 69.48C136.586 69.48 136.297 69.5453 136.036 69.676C135.774 69.7973 135.569 69.9747 135.42 70.208C135.27 70.432 135.196 70.712 135.196 71.048C135.196 71.3747 135.27 71.6593 135.42 71.902C135.569 72.1353 135.774 72.3127 136.036 72.434C136.297 72.5553 136.586 72.616 136.904 72.616C137.23 72.616 137.52 72.5553 137.772 72.434C138.033 72.3127 138.238 72.1353 138.388 71.902C138.537 71.6593 138.612 71.3747 138.612 71.048C138.612 70.712 138.537 70.432 138.388 70.208C138.238 69.9747 138.033 69.7973 137.772 69.676C137.52 69.5453 137.23 69.48 136.904 69.48ZM149.404 68.164C150.048 68.164 150.622 68.3553 151.126 68.738C151.64 69.1113 152.036 69.648 152.316 70.348C152.606 71.0387 152.75 71.8553 152.75 72.798C152.75 73.75 152.606 74.576 152.316 75.276C152.036 75.9667 151.64 76.5033 151.126 76.886C150.622 77.2593 150.048 77.446 149.404 77.446C148.76 77.446 148.186 77.2593 147.682 76.886C147.178 76.5033 146.782 75.9667 146.492 75.276C146.203 74.576 146.058 73.75 146.058 72.798C146.058 71.8553 146.203 71.0387 146.492 70.348C146.782 69.648 147.178 69.1113 147.682 68.738C148.186 68.3553 148.76 68.164 149.404 68.164ZM149.404 69.858C149.096 69.858 148.821 69.97 148.578 70.194C148.345 70.418 148.163 70.7493 148.032 71.188C147.902 71.6173 147.836 72.154 147.836 72.798C147.836 73.4327 147.902 73.974 148.032 74.422C148.163 74.8607 148.345 75.192 148.578 75.416C148.821 75.64 149.096 75.752 149.404 75.752C149.731 75.752 150.011 75.64 150.244 75.416C150.478 75.192 150.66 74.8607 150.79 74.422C150.921 73.974 150.986 73.4327 150.986 72.798C150.986 72.154 150.921 71.6173 150.79 71.188C150.66 70.7493 150.478 70.418 150.244 70.194C150.011 69.97 149.731 69.858 149.404 69.858ZM154.878 67.254H156.74V80.26H154.878V67.254ZM152.204 71.944H155.662V73.428H152.204V71.944ZM161.107 73.862H162.969V77.488H161.107V73.862ZM165.811 73.862H167.673V77.488H165.811V73.862ZM158.531 77.222H170.277V78.734H158.531V77.222ZM164.383 67.912C165.317 67.912 166.147 68.0567 166.875 68.346C167.613 68.6353 168.187 69.0413 168.597 69.564C169.017 70.0773 169.227 70.6887 169.227 71.398C169.227 72.098 169.017 72.7093 168.597 73.232C168.187 73.7453 167.613 74.1467 166.875 74.436C166.147 74.7253 165.317 74.87 164.383 74.87C163.459 74.87 162.629 74.7253 161.891 74.436C161.163 74.1467 160.589 73.7453 160.169 73.232C159.749 72.7093 159.539 72.098 159.539 71.398C159.539 70.6887 159.749 70.0773 160.169 69.564C160.589 69.0413 161.163 68.6353 161.891 68.346C162.629 68.0567 163.459 67.912 164.383 67.912ZM164.383 69.354C163.786 69.354 163.259 69.438 162.801 69.606C162.353 69.7647 162.003 69.9933 161.751 70.292C161.499 70.5907 161.373 70.9593 161.373 71.398C161.373 71.818 161.499 72.182 161.751 72.49C162.003 72.7887 162.353 73.022 162.801 73.19C163.259 73.3487 163.786 73.428 164.383 73.428C164.99 73.428 165.517 73.3487 165.965 73.19C166.423 73.022 166.773 72.7887 167.015 72.49C167.267 72.182 167.393 71.818 167.393 71.398C167.393 70.9593 167.267 70.5907 167.015 70.292C166.773 69.9933 166.423 69.7647 165.965 69.606C165.517 69.438 164.99 69.354 164.383 69.354ZM176.878 81.828C176.215 80.7453 175.697 79.616 175.324 78.44C174.96 77.264 174.778 75.9807 174.778 74.59C174.778 73.19 174.96 71.902 175.324 70.726C175.697 69.55 176.215 68.4207 176.878 67.338L178.152 67.884C177.564 68.9107 177.13 69.998 176.85 71.146C176.579 72.294 176.444 73.442 176.444 74.59C176.444 75.738 176.579 76.886 176.85 78.034C177.13 79.182 177.564 80.2647 178.152 81.282L176.878 81.828ZM180.951 73.876C180.578 73.876 180.27 73.75 180.027 73.498C179.785 73.2367 179.663 72.9193 179.663 72.546C179.663 72.154 179.785 71.832 180.027 71.58C180.27 71.328 180.578 71.202 180.951 71.202C181.315 71.202 181.619 71.328 181.861 71.58C182.104 71.832 182.225 72.154 182.225 72.546C182.225 72.9193 182.104 73.2367 181.861 73.498C181.619 73.75 181.315 73.876 180.951 73.876ZM179.845 81.996L179.411 80.876C179.953 80.6613 180.368 80.3813 180.657 80.036C180.956 79.6907 181.105 79.3127 181.105 78.902L181.035 77.432L181.763 78.65C181.651 78.7527 181.525 78.8273 181.385 78.874C181.255 78.9207 181.115 78.944 180.965 78.944C180.629 78.944 180.331 78.8413 180.069 78.636C179.808 78.4213 179.677 78.118 179.677 77.726C179.677 77.362 179.808 77.068 180.069 76.844C180.331 76.62 180.648 76.508 181.021 76.508C181.488 76.508 181.847 76.69 182.099 77.054C182.361 77.4087 182.491 77.9033 182.491 78.538C182.491 79.3593 182.263 80.0687 181.805 80.666C181.348 81.2633 180.695 81.7067 179.845 81.996ZM183.698 75.738V74.254H187.52V75.738H183.698ZM190.266 73.876C189.892 73.876 189.584 73.75 189.342 73.498C189.099 73.2367 188.978 72.9193 188.978 72.546C188.978 72.154 189.099 71.832 189.342 71.58C189.584 71.328 189.892 71.202 190.266 71.202C190.63 71.202 190.933 71.328 191.176 71.58C191.418 71.832 191.54 72.154 191.54 72.546C191.54 72.9193 191.418 73.2367 191.176 73.498C190.933 73.75 190.63 73.876 190.266 73.876ZM190.266 79.196C189.892 79.196 189.584 79.0653 189.342 78.804C189.099 78.5427 188.978 78.2253 188.978 77.852C188.978 77.46 189.099 77.138 189.342 76.886C189.584 76.634 189.892 76.508 190.266 76.508C190.63 76.508 190.933 76.634 191.176 76.886C191.418 77.138 191.54 77.46 191.54 77.852C191.54 78.2253 191.418 78.5427 191.176 78.804C190.933 79.0653 190.63 79.196 190.266 79.196ZM194.328 81.828L193.054 81.282C193.642 80.2647 194.072 79.182 194.342 78.034C194.622 76.886 194.762 75.738 194.762 74.59C194.762 73.442 194.622 72.294 194.342 71.146C194.072 69.998 193.642 68.9107 193.054 67.884L194.328 67.338C194.991 68.4207 195.504 69.55 195.868 70.726C196.242 71.902 196.428 73.19 196.428 74.59C196.428 75.9807 196.242 77.264 195.868 78.44C195.504 79.616 194.991 80.7453 194.328 81.828Z" fill="#585858"/>
<path d="M87 17.5541C87 16.1232 87.7643 14.8014 89.0043 14.0875L108.004 3.14897C109.24 2.43771 110.76 2.43772 111.996 3.14897L130.996 14.0875C132.236 14.8014 133 16.1232 133 17.5541V46C133 48.2091 131.209 50 129 50H91C88.7909 50 87 48.2091 87 46L87 17.5541Z" stroke="#585858" stroke-width="4" stroke-dasharray="8 4"/>
<path d="M102.5 42V31.02C101.45 30.74 100.604 30.17 99.9625 29.31C99.3208 28.45 99 27.48 99 26.4V18H101.333V25.2H102.5V18H104.833V25.2H106V18H108.333V26.4C108.333 27.48 108.012 28.45 107.371 29.31C106.729 30.17 105.883 30.74 104.833 31.02V42H102.5ZM115.167 42V30.57C114.117 30.21 113.271 29.455 112.629 28.305C111.987 27.155 111.667 25.85 111.667 24.39C111.667 22.61 112.124 21.1 113.037 19.86C113.951 18.62 115.05 18 116.333 18C117.617 18 118.715 18.625 119.629 19.875C120.543 21.125 121 22.64 121 24.42C121 25.88 120.679 27.18 120.038 28.32C119.396 29.46 118.55 30.21 117.5 30.57V42H115.167Z" fill="#585858"/>
</svg>
