<svg width="93" height="54" viewBox="0 0 93 54" fill="none" xmlns="http://www.w3.org/2000/svg">
<path d="M1.155 49V40.375H3.105L7.905 46.21H7.11V40.375H9.405V49H7.455L2.58 43.165H3.45V49H1.155ZM15.9315 49.165C15.0015 49.165 14.1715 48.975 13.4415 48.595C12.7115 48.205 12.1365 47.67 11.7165 46.99C11.2965 46.31 11.0865 45.54 11.0865 44.68C11.0865 43.82 11.2965 43.055 11.7165 42.385C12.1365 41.715 12.7115 41.185 13.4415 40.795C14.1715 40.405 15.0015 40.21 15.9315 40.21C16.8615 40.21 17.6915 40.405 18.4215 40.795C19.1515 41.185 19.7265 41.715 20.1465 42.385C20.5665 43.055 20.7765 43.82 20.7765 44.68C20.7765 45.54 20.5665 46.31 20.1465 46.99C19.7265 47.67 19.1515 48.205 18.4215 48.595C17.6915 48.975 16.8615 49.165 15.9315 49.165ZM15.9315 47.23C16.4115 47.23 16.8315 47.125 17.1915 46.915C17.5615 46.695 17.8515 46.39 18.0615 46C18.2715 45.61 18.3765 45.175 18.3765 44.695C18.3765 44.195 18.2715 43.755 18.0615 43.375C17.8515 42.995 17.5615 42.695 17.1915 42.475C16.8315 42.255 16.4115 42.145 15.9315 42.145C15.4615 42.145 15.0415 42.255 14.6715 42.475C14.3015 42.695 14.0065 42.995 13.7865 43.375C13.5765 43.755 13.4715 44.19 13.4715 44.68C13.4715 45.17 13.5765 45.61 13.7865 46C14.0065 46.39 14.3015 46.695 14.6715 46.915C15.0415 47.125 15.4615 47.23 15.9315 47.23ZM26.7019 49V40.375H29.0719V49H26.7019ZM31.3601 49V40.375H33.3401L36.9101 46.18H35.9501L39.4451 40.375H41.4401L41.4701 49H39.2501L39.2351 43.75H39.5651L36.9251 48.085H35.8601L33.1301 43.75H33.5651V49H31.3601ZM42.4773 49L46.3473 40.375H48.6873L52.5723 49H50.2323L47.1273 41.515H47.9223L44.7723 49H42.4773ZM44.5923 47.29L45.2073 45.58H49.4673L50.0823 47.29H44.5923ZM57.7249 49.165C56.7649 49.165 55.9149 48.975 55.1749 48.595C54.4349 48.205 53.8549 47.67 53.4349 46.99C53.0249 46.31 52.8199 45.545 52.8199 44.695C52.8199 43.825 53.0299 43.055 53.4499 42.385C53.8699 41.715 54.4499 41.185 55.1899 40.795C55.9299 40.405 56.7699 40.21 57.7099 40.21C58.5499 40.21 59.2799 40.34 59.8999 40.6C60.5299 40.85 61.0549 41.235 61.4749 41.755L59.9149 43.15C59.6249 42.81 59.2949 42.56 58.9249 42.4C58.5649 42.23 58.1699 42.145 57.7399 42.145C57.2499 42.145 56.8149 42.255 56.4349 42.475C56.0549 42.685 55.7549 42.98 55.5349 43.36C55.3149 43.74 55.2049 44.185 55.2049 44.695C55.2049 45.185 55.3149 45.625 55.5349 46.015C55.7549 46.395 56.0549 46.695 56.4349 46.915C56.8149 47.125 57.2599 47.23 57.7699 47.23C58.1899 47.23 58.5699 47.165 58.9099 47.035C59.2599 46.905 59.6049 46.71 59.9449 46.45L61.2799 48.07C60.9599 48.3 60.5999 48.5 60.1999 48.67C59.8099 48.83 59.3999 48.95 58.9699 49.03C58.5499 49.12 58.1349 49.165 57.7249 49.165ZM59.1199 48.1V44.575H61.2799V48.07L59.1199 48.1ZM63.3376 49V40.375H70.1176V42.19H65.6776V47.185H70.2826V49H63.3376ZM65.4376 45.49V43.765H69.6076V45.49H65.4376ZM74.8745 49.165C74.1845 49.165 73.5045 49.08 72.8345 48.91C72.1745 48.74 71.6395 48.515 71.2295 48.235L72.0545 46.48C72.4445 46.74 72.8995 46.945 73.4195 47.095C73.9395 47.245 74.4695 47.32 75.0095 47.32C75.5395 47.32 75.9095 47.245 76.1195 47.095C76.3295 46.945 76.4345 46.77 76.4345 46.57C76.4345 46.37 76.3395 46.21 76.1495 46.09C75.9695 45.97 75.7295 45.875 75.4295 45.805C75.1395 45.725 74.8145 45.65 74.4545 45.58C74.1045 45.51 73.7495 45.42 73.3895 45.31C73.0395 45.2 72.7145 45.055 72.4145 44.875C72.1245 44.685 71.8845 44.44 71.6945 44.14C71.5145 43.83 71.4245 43.445 71.4245 42.985C71.4245 42.445 71.5795 41.97 71.8895 41.56C72.2095 41.14 72.6595 40.81 73.2395 40.57C73.8195 40.33 74.5095 40.21 75.3095 40.21C75.8495 40.21 76.3995 40.27 76.9595 40.39C77.5195 40.51 78.0095 40.7 78.4295 40.96L77.6645 42.715C77.2745 42.475 76.8695 42.305 76.4495 42.205C76.0395 42.105 75.6295 42.055 75.2195 42.055C74.7195 42.055 74.3545 42.13 74.1245 42.28C73.8945 42.43 73.7795 42.62 73.7795 42.85C73.7795 43.05 73.8695 43.21 74.0495 43.33C74.2295 43.45 74.4645 43.55 74.7545 43.63C75.0545 43.7 75.3845 43.77 75.7445 43.84C76.1045 43.91 76.4595 44 76.8095 44.11C77.1595 44.21 77.4845 44.35 77.7845 44.53C78.0845 44.71 78.3245 44.95 78.5045 45.25C78.6845 45.54 78.7745 45.915 78.7745 46.375C78.7745 46.915 78.6195 47.395 78.3095 47.815C78.0095 48.235 77.5695 48.565 76.9895 48.805C76.4195 49.045 75.7145 49.165 74.8745 49.165ZM85.3293 43.735C84.9293 43.735 84.5843 43.6 84.2943 43.33C84.0143 43.05 83.8743 42.695 83.8743 42.265C83.8743 41.835 84.0143 41.49 84.2943 41.23C84.5843 40.96 84.9293 40.825 85.3293 40.825C85.7393 40.825 86.0843 40.96 86.3643 41.23C86.6443 41.49 86.7843 41.835 86.7843 42.265C86.7843 42.695 86.6443 43.05 86.3643 43.33C86.0843 43.6 85.7393 43.735 85.3293 43.735ZM85.3293 49.12C84.9293 49.12 84.5843 48.985 84.2943 48.715C84.0143 48.435 83.8743 48.08 83.8743 47.65C83.8743 47.22 84.0143 46.875 84.2943 46.615C84.5843 46.345 84.9293 46.21 85.3293 46.21C85.7393 46.21 86.0843 46.345 86.3643 46.615C86.6443 46.875 86.7843 47.22 86.7843 47.65C86.7843 48.08 86.6443 48.435 86.3643 48.715C86.0843 48.985 85.7393 49.12 85.3293 49.12ZM87.44 51.91C88.09 50.78 88.555 49.645 88.835 48.505C89.125 47.355 89.27 46.15 89.27 44.89C89.27 43.63 89.125 42.43 88.835 41.29C88.555 40.14 88.09 39 87.44 37.87H89.675C90.295 38.76 90.765 39.81 91.085 41.02C91.405 42.22 91.565 43.51 91.565 44.89C91.565 46.27 91.405 47.56 91.085 48.76C90.765 49.95 90.295 51 89.675 51.91H87.44Z" fill="#656565"/>
<path d="M38.1667 28V15.19C36.9167 14.8633 35.9097 14.1983 35.1458 13.195C34.3819 12.1917 34 11.06 34 9.8V0H36.7778V8.4H38.1667V0H40.9444V8.4H42.3333V0H45.1111V9.8C45.1111 11.06 44.7292 12.1917 43.9653 13.195C43.2014 14.1983 42.1944 14.8633 40.9444 15.19V28H38.1667ZM52.0556 28V14.665C50.8056 14.245 49.7986 13.3642 49.0347 12.0225C48.2708 10.6808 47.8889 9.15833 47.8889 7.455C47.8889 5.37833 48.4329 3.61667 49.5208 2.17C50.6088 0.723333 51.9167 0 53.4444 0C54.9722 0 56.2801 0.729167 57.3681 2.1875C58.456 3.64583 59 5.41333 59 7.49C59 9.19333 58.6181 10.71 57.8542 12.04C57.0903 13.37 56.0833 14.245 54.8333 14.665V28H52.0556Z" fill="#656565"/>
</svg>
