<svg width="18" height="20" viewBox="0 0 18 20" fill="none" xmlns="http://www.w3.org/2000/svg">
<path fill-rule="evenodd" clip-rule="evenodd" d="M16.2 3.75C16.2 4.78554 15.3941 5.625 14.4 5.625C13.4059 5.625 12.6 4.78554 12.6 3.75C12.6 2.71446 13.4059 1.875 14.4 1.875C15.3941 1.875 16.2 2.71446 16.2 3.75ZM18 3.75C18 5.82106 16.3883 7.5 14.4 7.5C13.3727 7.5 12.4459 7.05179 11.79 6.33285L7.0849 9.05571C7.16003 9.3574 7.2 9.67384 7.2 10C7.2 10.3262 7.16002 10.6426 7.08488 10.9443L11.79 13.6672C12.4459 12.9482 13.3727 12.5 14.4 12.5C16.3883 12.5 18 14.1789 18 16.25C18 18.3211 16.3883 20 14.4 20C12.4117 20 10.8 18.3211 10.8 16.25C10.8 15.9239 10.84 15.6075 10.9151 15.3057L6.20992 12.5829C5.55403 13.3018 4.62726 13.75 3.6 13.75C1.61178 13.75 0 12.0711 0 10C0 7.92894 1.61178 6.25 3.6 6.25C4.62728 6.25 5.55406 6.69821 6.20995 7.41713L10.9151 4.69425C10.84 4.39257 10.8 4.07615 10.8 3.75C10.8 1.67894 12.4117 0 14.4 0C16.3883 0 18 1.67894 18 3.75ZM16.2 16.25C16.2 17.2855 15.3941 18.125 14.4 18.125C13.4059 18.125 12.6 17.2855 12.6 16.25C12.6 15.2145 13.4059 14.375 14.4 14.375C15.3941 14.375 16.2 15.2145 16.2 16.25ZM5.4 10C5.4 11.0355 4.59412 11.875 3.6 11.875C2.60588 11.875 1.8 11.0355 1.8 10C1.8 8.96446 2.60588 8.125 3.6 8.125C4.59412 8.125 5.4 8.96446 5.4 10Z" fill="#919191"/>
</svg>
