<svg width="12" height="19" viewBox="0 0 12 19" fill="none" xmlns="http://www.w3.org/2000/svg">
<path d="M3.79499 14.1935C3.95425 13.9089 4.20554 13.5124 4.54352 13.1498C4.90882 12.7578 5.348 12.4318 5.84981 12.2973C6.35184 12.1628 6.89577 12.2253 7.40828 12.3822C7.88178 12.5271 8.29632 12.7456 8.57651 12.9123C8.4172 13.1967 8.16653 13.5919 7.82937 13.9537C7.46394 14.3458 7.02419 14.6719 6.52213 14.8064C6.02025 14.9408 5.47696 14.8781 4.9646 14.7213C4.49117 14.5764 4.07518 14.3603 3.79499 14.1935Z" stroke="white"/>
<path d="M5.10499 1.16367C5.41933 1.33618 5.87595 1.61952 6.29744 2.00682C6.7485 2.42133 7.13036 2.92692 7.28661 3.51003C7.44285 4.09314 7.36494 4.72193 7.18157 5.30644C7.01031 5.85224 6.75614 6.32531 6.5702 6.6319C6.25587 6.45936 5.79922 6.17675 5.378 5.7897C4.92694 5.37519 4.54507 4.8696 4.38883 4.28649C4.23259 3.70338 4.3105 3.07459 4.49387 2.49008C4.66524 1.94393 4.91901 1.47024 5.10499 1.16367Z" stroke="white"/>
<path d="M1.88723 4.8879C2.24572 4.88013 2.78283 4.8972 3.34149 5.02187C3.93938 5.15532 4.52288 5.40224 4.94975 5.8291C5.37661 6.25597 5.62353 6.83947 5.75698 7.43736C5.88157 7.99567 5.89799 8.53244 5.89026 8.89093C5.53177 8.89867 4.995 8.88224 4.43668 8.75766C3.83879 8.62421 3.25529 8.37729 2.82843 7.95042C2.40156 7.52356 2.15464 6.94005 2.02119 6.34217C1.89653 5.7835 1.87946 5.24639 1.88723 4.8879Z" stroke="white"/>
<path d="M2.78624 8.90005C3.11514 8.83775 3.59791 8.7739 4.11261 8.80128C4.66726 8.83083 5.22062 8.96325 5.66288 9.27483C6.1051 9.58644 6.41596 10.0631 6.63041 10.5754C6.82932 11.0508 6.93165 11.527 6.98365 11.8577C6.65475 11.92 6.1719 11.9838 5.65728 11.9565C5.10264 11.9269 4.54924 11.7945 4.107 11.4829C3.66477 11.1712 3.35391 10.6947 3.13948 10.1823C2.94051 9.70681 2.83822 9.23074 2.78624 8.90005Z" stroke="white"/>
<path d="M6.29505 7C5.85221 8.68254 5.40985 9.86072 8.9498 12.8893C13.3747 16.675 9.39238 18.3575 8.5074 17.9369" stroke="white" stroke-linecap="round"/>
</svg>
