<svg width="12" height="19" viewBox="0 0 12 19" fill="none" xmlns="http://www.w3.org/2000/svg">
<path d="M8.20501 14.1935C8.04575 13.9089 7.79446 13.5124 7.45648 13.1498C7.09118 12.7578 6.652 12.4318 6.15019 12.2973C5.64816 12.1628 5.10423 12.2253 4.59172 12.3822C4.11822 12.5271 3.70368 12.7456 3.42349 12.9123C3.5828 13.1967 3.83347 13.5919 4.17063 13.9537C4.53606 14.3458 4.97581 14.6719 5.47787 14.8064C5.97975 14.9408 6.52304 14.8781 7.0354 14.7213C7.50883 14.5764 7.92482 14.3603 8.20501 14.1935Z" stroke="white"/>
<path d="M6.89501 1.16367C6.58067 1.33618 6.12405 1.61952 5.70256 2.00682C5.2515 2.42133 4.86964 2.92692 4.71339 3.51003C4.55715 4.09314 4.63506 4.72193 4.81843 5.30644C4.98969 5.85224 5.24386 6.32531 5.4298 6.6319C5.74413 6.45936 6.20078 6.17675 6.622 5.7897C7.07306 5.37519 7.45493 4.8696 7.61117 4.28649C7.76741 3.70338 7.6895 3.07459 7.50613 2.49008C7.33476 1.94393 7.08099 1.47024 6.89501 1.16367Z" stroke="white"/>
<path d="M10.1128 4.8879C9.75428 4.88013 9.21717 4.8972 8.65851 5.02187C8.06062 5.15532 7.47712 5.40224 7.05025 5.8291C6.62339 6.25597 6.37647 6.83947 6.24302 7.43736C6.11843 7.99567 6.10201 8.53244 6.10974 8.89093C6.46823 8.89867 7.005 8.88224 7.56332 8.75766C8.16121 8.62421 8.74471 8.37729 9.17157 7.95042C9.59844 7.52356 9.84536 6.94005 9.97881 6.34217C10.1035 5.7835 10.1205 5.24639 10.1128 4.8879Z" stroke="white"/>
<path d="M9.21376 8.90005C8.88486 8.83775 8.40209 8.7739 7.88739 8.80128C7.33274 8.83083 6.77938 8.96325 6.33712 9.27483C5.8949 9.58644 5.58404 10.0631 5.36959 10.5754C5.17068 11.0508 5.06835 11.527 5.01635 11.8577C5.34525 11.92 5.8281 11.9838 6.34272 11.9565C6.89736 11.9269 7.45076 11.7945 7.893 11.4829C8.33523 11.1712 8.64609 10.6947 8.86052 10.1823C9.05949 9.70681 9.16178 9.23074 9.21376 8.90005Z" stroke="white"/>
<path d="M5.70495 7C6.14779 8.68254 6.59015 9.86072 3.0502 12.8893C-1.37473 16.675 2.60762 18.3575 3.4926 17.9369" stroke="white" stroke-linecap="round"/>
</svg>
