<svg width="12" height="16" viewBox="0 0 12 16" fill="none" xmlns="http://www.w3.org/2000/svg">
<path d="M0 12.9097C0.8 14.5097 3.33333 15.243 4.5 15.4097C9.5 16.4097 11 12.9097 10.5 13.4097C10.1 13.8097 9.66667 13.5763 9.5 13.4097C12.3 11.4097 11.3333 8.243 10.5 6.90967C10.5 7.70967 10.1667 7.90967 10 7.90967C9.5 7.90967 9.5 7.243 9.5 6.90967C10.3 3.70967 6.83333 1.243 5 0.409668C6 3.90967 5 4.90967 4.5 4.90967C4.1 4.90967 4.33333 4.243 4.5 3.90967C2.9 4.30967 2.83333 7.40967 3 8.90967C1.8 9.30967 1.16667 7.743 1 6.90967C-1 10.1097 0.833333 12.5763 2 13.4097L0 12.9097Z" fill="url(#paint0_radial_3029_10690)"/>
<path d="M1.30899 4.07633C1.869 3.543 2.00955 2.85411 2.00955 2.40967C2.00955 2.40967 3.05935 4.07633 2.35934 4.743C1.79933 5.27633 1.19247 6.29856 1.30921 6.40967C1.07587 6.18745 0.74898 4.60967 1.30899 4.07633Z" fill="#D9D9D9"/>
<path d="M1.30899 4.07633C1.869 3.543 2.00955 2.85411 2.00955 2.40967C2.00955 2.40967 3.05935 4.07633 2.35934 4.743C1.79933 5.27633 1.19247 6.29856 1.30921 6.40967C1.07587 6.18745 0.74898 4.60967 1.30899 4.07633Z" fill="url(#paint1_radial_3029_10690)"/>
<path d="M3 12.8204C3.42244 13.769 4.76017 14.2037 5.37623 14.3026C8.01649 14.8954 8.80857 12.8204 8.54454 13.1168C8.33332 13.354 8.1045 13.2156 8.01649 13.1168C9.49503 11.9311 8.98458 10.0537 8.54454 9.26325C8.54454 9.73754 8.36852 9.85611 8.28051 9.85611C8.01649 9.85611 8.01649 9.46087 8.01649 9.26325C8.43893 7.3661 6.60835 5.90372 5.64026 5.40967C6.16831 7.48467 5.64026 8.07753 5.37623 8.07753C5.16501 8.07753 5.28822 7.68229 5.37623 7.48467C4.53135 7.72182 4.49615 9.55968 4.58415 10.449C3.95049 10.6861 3.61606 9.7573 3.52805 9.26325C2.47195 11.1604 3.44004 12.6228 4.0561 13.1168L3 12.8204Z" fill="#D9D9D9"/>
<path d="M3 12.8204C3.42244 13.769 4.76017 14.2037 5.37623 14.3026C8.01649 14.8954 8.80857 12.8204 8.54454 13.1168C8.33332 13.354 8.1045 13.2156 8.01649 13.1168C9.49503 11.9311 8.98458 10.0537 8.54454 9.26325C8.54454 9.73754 8.36852 9.85611 8.28051 9.85611C8.01649 9.85611 8.01649 9.46087 8.01649 9.26325C8.43893 7.3661 6.60835 5.90372 5.64026 5.40967C6.16831 7.48467 5.64026 8.07753 5.37623 8.07753C5.16501 8.07753 5.28822 7.68229 5.37623 7.48467C4.53135 7.72182 4.49615 9.55968 4.58415 10.449C3.95049 10.6861 3.61606 9.7573 3.52805 9.26325C2.47195 11.1604 3.44004 12.6228 4.0561 13.1168L3 12.8204Z" fill="#FFD700"/>
<path d="M3 12.8204C3.42244 13.769 4.76017 14.2037 5.37623 14.3026C8.01649 14.8954 8.80857 12.8204 8.54454 13.1168C8.33332 13.354 8.1045 13.2156 8.01649 13.1168C9.49503 11.9311 8.98458 10.0537 8.54454 9.26325C8.54454 9.73754 8.36852 9.85611 8.28051 9.85611C8.01649 9.85611 8.01649 9.46087 8.01649 9.26325C8.43893 7.3661 6.60835 5.90372 5.64026 5.40967C6.16831 7.48467 5.64026 8.07753 5.37623 8.07753C5.16501 8.07753 5.28822 7.68229 5.37623 7.48467C4.53135 7.72182 4.49615 9.55968 4.58415 10.449C3.95049 10.6861 3.61606 9.7573 3.52805 9.26325C2.47195 11.1604 3.44004 12.6228 4.0561 13.1168L3 12.8204Z" fill="url(#paint2_radial_3029_10690)"/>
<defs>
<radialGradient id="paint0_radial_3029_10690" cx="0" cy="0" r="1" gradientUnits="userSpaceOnUse" gradientTransform="translate(6 10.4097) rotate(96.3402) scale(9.05539 6.77783)">
<stop stop-color="#FF950F"/>
<stop offset="1" stop-color="#DA161A"/>
</radialGradient>
<radialGradient id="paint1_radial_3029_10690" cx="0" cy="0" r="1" gradientTransform="matrix(-1 2 -0.747826 -0.521925 2 4.90967)" gradientUnits="userSpaceOnUse">
<stop stop-color="#FF950F"/>
<stop offset="1" stop-color="#DA161A"/>
</radialGradient>
<radialGradient id="paint2_radial_3029_10690" cx="0" cy="0" r="1" gradientTransform="matrix(-1.09093 4.07141 -2.70256 -0.798427 6.16831 11.3383)" gradientUnits="userSpaceOnUse">
<stop stop-color="white"/>
<stop offset="1" stop-color="#FFD915"/>
</radialGradient>
</defs>
</svg>
